<?xml version="1.0" encoding="UTF-8"?>
<svg width="3300px" height="2200px" viewBox="0 0 3300 2200" version="1.1" xmlns="http://www.w3.org/2000/svg" xmlns:xlink="http://www.w3.org/1999/xlink">
    <title>circle.fill</title>
    <g id="Page-1" stroke="none" stroke-width="1" fill="none" fill-rule="evenodd">
        <g id="circle.fill">
            <g id="Notes">
                <rect id="artboard" fill="#FFFFFF" fill-rule="nonzero" x="0" y="0" width="3300" height="2200"></rect>
                <line x1="263" y1="292" x2="3036" y2="292" id="Path" stroke="#000000" stroke-width="0.5"></line>
                <text id="Weight/Scale-Variations" fill="#000000" fill-rule="nonzero" font-family="Helvetica" font-size="13" font-weight="normal">
                    <tspan x="263" y="322">Weight/Scale Variations</tspan>
                </text>
                <text id="Ultralight" fill="#000000" fill-rule="nonzero" font-family="Helvetica" font-size="13" font-weight="normal">
                    <tspan x="533.711" y="322">Ultralight</tspan>
                </text>
                <text id="Thin" fill="#000000" fill-rule="nonzero" font-family="Helvetica" font-size="13" font-weight="normal">
                    <tspan x="843.422" y="322">Thin</tspan>
                </text>
                <text id="Light" fill="#000000" fill-rule="nonzero" font-family="Helvetica" font-size="13" font-weight="normal">
                    <tspan x="1138.63" y="322">Light</tspan>
                </text>
                <text id="Regular" fill="#000000" fill-rule="nonzero" font-family="Helvetica" font-size="13" font-weight="normal">
                    <tspan x="1426.84" y="322">Regular</tspan>
                </text>
                <text id="Medium" fill="#000000" fill-rule="nonzero" font-family="Helvetica" font-size="13" font-weight="normal">
                    <tspan x="1723.06" y="322">Medium</tspan>
                </text>
                <text id="Semibold" fill="#000000" fill-rule="nonzero" font-family="Helvetica" font-size="13" font-weight="normal">
                    <tspan x="2015.77" y="322">Semibold</tspan>
                </text>
                <text id="Bold" fill="#000000" fill-rule="nonzero" font-family="Helvetica" font-size="13" font-weight="normal">
                    <tspan x="2326.48" y="322">Bold</tspan>
                </text>
                <text id="Heavy" fill="#000000" fill-rule="nonzero" font-family="Helvetica" font-size="13" font-weight="normal">
                    <tspan x="2618.19" y="322">Heavy</tspan>
                </text>
                <text id="Black" fill="#000000" fill-rule="nonzero" font-family="Helvetica" font-size="13" font-weight="normal">
                    <tspan x="2917.4" y="322">Black</tspan>
                </text>
                <line x1="263" y1="1903" x2="3036" y2="1903" id="Path" stroke="#000000" stroke-width="0.5"></line>
                <g id="Group" transform="translate(264.367190, 1918.068400)" fill="#000000" fill-rule="nonzero">
                    <path d="M7.88086,15.761678 C8.96156,15.761678 9.97717667,15.5566 10.92771,15.146444 C11.8782433,14.7362873 12.7164767,14.166626 13.44241,13.43746 C14.1682767,12.7082933 14.7379433,11.86845 15.15141,10.91793 C15.56481,9.96741 15.77151,8.95504 15.77151,7.88082 C15.77151,6.8066 15.56481,5.79422667 15.15141,4.8437 C14.7379433,3.89316667 14.1666433,3.05333333 13.43751,2.3242 C12.70831,1.595 11.8684767,1.02533333 10.91801,0.6152 C9.96747667,0.205066667 8.95183667,0 7.87109,0 C6.79687,0 5.7845,0.205066667 4.83398,0.6152 C3.88346,1.02533333 3.04687333,1.595 2.32422,2.3242 C1.60156,3.05333333 1.03352333,3.89316667 0.62011,4.8437 C0.206703333,5.79422667 -8.8817842e-16,6.8066 -8.8817842e-16,7.88082 C-8.8817842e-16,8.95504 0.206703333,9.96741 0.62011,10.91793 C1.03352333,11.86845 1.60318667,12.7082933 2.3291,13.43746 C3.05501333,14.166626 3.89323,14.7362873 4.84375,15.146444 C5.79427,15.5566 6.80664,15.761678 7.88086,15.761678 Z M7.88086,14.277303 C6.99544,14.277303 6.16699,14.1129153 5.39551,13.78414 C4.62402333,13.4553667 3.94694,12.99801 3.36426,12.41207 C2.78157333,11.82613 2.32584333,11.14579 1.99707,10.37105 C1.66829,9.59631 1.5039,8.76623333 1.5039,7.88082 C1.5039,6.9954 1.66666333,6.16532 1.99219,5.39058 C2.31771,4.61586 2.77181,3.93553333 3.35449,3.3496 C3.93717,2.76366667 4.61425333,2.3063 5.38574,1.9775 C6.15722667,1.6487 6.98567667,1.4843 7.87109,1.4843 C8.76303667,1.4843 9.59474333,1.6487 10.36621,1.9775 C11.1376767,2.3063 11.8163767,2.76366667 12.40231,3.3496 C12.9882433,3.93553333 13.4472433,4.61586 13.77931,5.39058 C14.11131,6.16532 14.27731,6.9954 14.27731,7.88082 C14.27731,8.76623333 14.1129433,9.59631 13.78421,10.37105 C13.45541,11.14579 12.9996767,11.82613 12.41701,12.41207 C11.8343433,12.99801 11.15561,13.4553667 10.38081,13.78414 C9.60607667,14.1129153 8.77276,14.277303 7.88086,14.277303 Z M4.47265,7.89058 C4.47265,8.10542667 4.54101,8.27958333 4.67773,8.41305 C4.81445,8.54651 4.99674333,8.61324 5.22461,8.61324 L7.13867,8.61324 L7.13867,10.53707 C7.13867,10.7584233 7.2054,10.93746 7.33886,11.07418 C7.47232667,11.2109 7.64648333,11.27926 7.86133,11.27926 C8.08268333,11.27926 8.26171667,11.2109 8.39843,11.07418 C8.53515,10.93746 8.60351,10.7584233 8.60351,10.53707 L8.60351,8.61324 L10.52731,8.61324 C10.74871,8.61324 10.9277433,8.54651 11.06441,8.41305 C11.2011433,8.27958333 11.26951,8.10542667 11.26951,7.89058 C11.26951,7.66922667 11.2011433,7.49019333 11.06441,7.35348 C10.9277433,7.21676 10.74871,7.1484 10.52731,7.1484 L8.60351,7.1484 L8.60351,5.23433 C8.60351,5.00644333 8.53515,4.82416667 8.39843,4.6875 C8.26171667,4.55076667 8.08268333,4.4824 7.86133,4.4824 C7.64648333,4.4824 7.47232667,4.55076667 7.33886,4.6875 C7.2054,4.82416667 7.13867,5.00644333 7.13867,5.23433 L7.13867,7.1484 L5.22461,7.1484 C4.99674333,7.1484 4.81445,7.21676 4.67773,7.35348 C4.54101,7.49019333 4.47265,7.66922667 4.47265,7.89058 Z" id="Shape"></path>
                </g>
                <g id="Group" transform="translate(283.615050, 1915.988300)" fill="#000000" fill-rule="nonzero">
                    <path d="M9.96095,19.92186 C11.3216167,19.92186 12.60255,19.6614433 13.80375,19.14061 C15.0048833,18.6197767 16.06445,17.9003744 16.98245,16.9824031 C17.9003833,16.0644344 18.6197833,15.0048633 19.14065,13.80369 C19.66145,12.6025167 19.92185,11.3215933 19.92185,9.96092 C19.92185,8.60024 19.66145,7.3193 19.14065,6.1181 C18.6197833,4.91696667 17.9003833,3.8574 16.98245,2.9394 C16.06445,2.02146667 15.00325,1.30206667 13.79885,0.7812 C12.5943833,0.2604 11.3118167,0 9.95115,0 C8.59048333,0 7.30956667,0.2604 6.1084,0.7812 C4.90722667,1.30206667 3.84928333,2.02146667 2.93457,2.9394 C2.01985667,3.8574 1.30208333,4.91696667 0.78125,6.1181 C0.260416667,7.3193 8.8817842e-16,8.60024 8.8817842e-16,9.96092 C8.8817842e-16,11.3215933 0.260416667,12.6025167 0.78125,13.80369 C1.30208333,15.0048633 2.02148333,16.0644344 2.93945,16.9824031 C3.85741667,17.9003744 4.91698667,18.6197767 6.11816,19.14061 C7.31933333,19.6614433 8.60026333,19.92186 9.96095,19.92186 Z M9.96095,18.2617 C8.80859667,18.2617 7.73111667,18.0468563 6.72851,17.617169 C5.72591,17.1874813 4.84537667,16.593405 4.08691,15.83494 C3.32845,15.07648 2.73600333,14.1959467 2.30957,13.19334 C1.88313667,12.1907333 1.66992,11.11326 1.66992,9.96092 C1.66992,8.80857333 1.88313667,7.7311 2.30957,6.7285 C2.73600333,5.7259 3.32682333,4.84373333 4.08203,4.082 C4.83723667,3.32026667 5.71614333,2.7262 6.71875,2.2998 C7.72135,1.87333333 8.79881667,1.6601 9.95115,1.6601 C11.1034833,1.6601 12.18095,1.87333333 13.18355,2.2998 C14.18615,2.7262 15.0683167,3.32026667 15.83005,4.082 C16.5917833,4.84373333 17.1874833,5.7259 17.61715,6.7285 C18.0468833,7.7311 18.26175,8.80857333 18.26175,9.96092 C18.26175,11.11326 18.0485167,12.1907333 17.62205,13.19334 C17.19565,14.1959467 16.6032167,15.07648 15.84475,15.83494 C15.0862833,16.593405 14.2041167,17.1874813 13.19825,17.617169 C12.1923833,18.0468563 11.1132833,18.2617 9.96095,18.2617 Z M5.64453,9.97068 C5.64453,10.20506 5.72265333,10.39712 5.8789,10.54686 C6.03515333,10.6966 6.23697667,10.77147 6.48437,10.77147 L9.13085,10.77147 L9.13085,13.43748 C9.13085,13.6783667 9.20571667,13.8753067 9.35545,14.0283 C9.50518333,14.1812933 9.69725,14.25779 9.93165,14.25779 C10.17905,14.25779 10.3808833,14.1812933 10.53715,14.0283 C10.69335,13.8753067 10.77145,13.6783667 10.77145,13.43748 L10.77145,10.77147 L13.42775,10.77147 C13.6686167,10.77147 13.8671833,10.6966 14.02345,10.54686 C14.1797167,10.39712 14.25785,10.20506 14.25785,9.97068 C14.25785,9.72328667 14.1797167,9.52309333 14.02345,9.3701 C13.8671833,9.21710667 13.6686167,9.14061 13.42775,9.14061 L10.77145,9.14061 L10.77145,6.4941 C10.77145,6.24023333 10.69335,6.0368 10.53715,5.8838 C10.3808833,5.7308 10.17905,5.6543 9.93165,5.6543 C9.69725,5.6543 9.50518333,5.7308 9.35545,5.8838 C9.20571667,6.0368 9.13085,6.24023333 9.13085,6.4941 L9.13085,9.14061 L6.48437,9.14061 C6.23046333,9.14061 6.02701333,9.21710667 5.87402,9.3701 C5.72102667,9.52309333 5.64453,9.72328667 5.64453,9.97068 Z" id="Shape"></path>
                </g>
                <g id="Group" transform="translate(307.901860, 1913.224600)" fill="#000000" fill-rule="nonzero">
                    <path d="M12.71484,25.43946 C14.10804,25.43946 15.4378067,25.22299 16.70414,24.79005 C17.9704067,24.3571033 19.13414,23.7500067 20.19534,22.96876 C21.25654,22.1875067 22.1793733,21.2662827 22.96384,20.205088 C23.7483733,19.1438893 24.3571067,17.9785233 24.79004,16.70899 C25.2229733,15.4394633 25.43944,14.11134 25.43944,12.72462 C25.43944,11.3313933 25.2229733,10.0016533 24.79004,8.7354 C24.3571067,7.46906667 23.7483733,6.30533333 22.96384,5.2442 C22.1793733,4.183 21.25654,3.26013333 20.19534,2.4756 C19.13414,1.69106667 17.9687733,1.08233333 16.69924,0.6494 C15.4297067,0.216466667 14.0983067,0 12.70504,0 C11.31184,0 9.98210667,0.216466667 8.71584,0.6494 C7.44955333,1.08233333 6.28743667,1.69106667 5.22949,2.4756 C4.17155,3.26013333 3.25032667,4.183 2.46582,5.2442 C1.68131333,6.30533333 1.07421667,7.46906667 0.64453,8.7354 C0.214843333,10.0016533 0,11.3313933 0,12.72462 C0,14.11134 0.21647,15.4394633 0.64941,16.70899 C1.08235667,17.9785233 1.68945333,19.1438893 2.4707,20.205088 C3.25195333,21.2662827 4.17317667,22.1875067 5.23437,22.96876 C6.29557,23.7500067 7.45929333,24.3571033 8.72554,24.79005 C9.99187333,25.22299 11.32164,25.43946 12.71484,25.43946 Z M12.71484,23.62306 C11.51044,23.62306 10.3629733,23.43914 9.27244,23.0713 C8.18196,22.70346 7.18424667,22.18751 6.2793,21.52345 C5.37434667,20.8593853 4.58821333,20.0732513 3.9209,19.165048 C3.25358,18.2568427 2.73763,17.2574933 2.37305,16.167 C2.00846333,15.0765067 1.82617,13.9290467 1.82617,12.72462 C1.82617,11.51368 2.00846333,10.3629733 2.37305,9.2725 C2.73763,8.18196667 3.25195333,7.1826 3.91602,6.2744 C4.58008,5.3662 5.36458333,4.58006667 6.26953,3.916 C7.17447667,3.25193333 8.17221333,2.73763333 9.26274,2.3731 C10.3532067,2.0085 11.50064,1.8262 12.70504,1.8262 C13.9159733,1.8262 15.0667067,2.0085 16.15724,2.3731 C17.2477067,2.73763333 18.24704,3.25193333 19.15524,3.916 C20.06344,4.58006667 20.8495733,5.3662 21.51364,6.2744 C22.1777067,7.1826 22.6936733,8.18196667 23.06154,9.2725 C23.42934,10.3629733 23.6134125,11.51368 23.6134125,12.72462 C23.6197733,13.9290467 23.44074,15.0765067 23.07614,16.167 C22.7116067,17.2574933 22.1956733,18.2568427 21.52834,19.165048 C20.8610067,20.0732513 20.07324,20.8593853 19.16504,21.52345 C18.25684,22.18751 17.2575067,22.70346 16.16704,23.0713 C15.0765067,23.43914 13.9257733,23.62306 12.71484,23.62306 Z M7.19726,12.73438 C7.19726,12.9882867 7.28352333,13.19825 7.45605,13.36427 C7.62857667,13.5302833 7.84830667,13.61329 8.11524,13.61329 L11.80664,13.61329 L11.80664,17.31446 C11.80664,17.5813867 11.88964,17.7994867 12.05564,17.96876 C12.22164,18.1380333 12.4316067,18.22267 12.68554,18.22267 C12.9590067,18.22267 13.1803733,18.1380333 13.34964,17.96876 C13.5189067,17.7994867 13.60354,17.5813867 13.60354,17.31446 L13.60354,13.61329 L17.30464,13.61329 C17.5715733,13.61329 17.7896733,13.5302833 17.95894,13.36427 C18.1282733,13.19825 18.21294,12.9882867 18.21294,12.73438 C18.21294,12.4609467 18.1282733,12.2395933 17.95894,12.07032 C17.7896733,11.9010533 17.5715733,11.81642 17.30464,11.81642 L13.60354,11.81642 L13.60354,8.125 C13.60354,7.8516 13.5189067,7.63023333 13.34964,7.4609 C13.1803733,7.29163333 12.9590067,7.207 12.68554,7.207 C12.4316067,7.207 12.22164,7.29326667 12.05564,7.4658 C11.88964,7.63833333 11.80664,7.85806667 11.80664,8.125 L11.80664,11.81642 L8.11524,11.81642 C7.8418,11.81642 7.62044333,11.9010533 7.45117,12.07032 C7.28189667,12.2395933 7.19726,12.4609467 7.19726,12.73438 Z" id="Shape"></path>
                </g>
                <text id="Design-Variations" fill="#000000" fill-rule="nonzero" font-family="Helvetica" font-size="13" font-weight="normal">
                    <tspan x="263" y="1953">Design Variations</tspan>
                </text>
                <text id="Symbols-are-supported-in-up-to-nine-weights-and-three-scales." fill="#000000" fill-rule="nonzero" font-family="Helvetica" font-size="13" font-weight="normal">
                    <tspan x="263" y="1971">Symbols are supported in up to nine weights and three scales.</tspan>
                </text>
                <text id="For-optimal-layout-with-text-and-other-symbols,-vertically-align" fill="#000000" fill-rule="nonzero" font-family="Helvetica" font-size="13" font-weight="normal">
                    <tspan x="263" y="1989">For optimal layout with text and other symbols, vertically align</tspan>
                </text>
                <text id="symbols-with-the-adjacent-text." fill="#000000" fill-rule="nonzero" font-family="Helvetica" font-size="13" font-weight="normal">
                    <tspan x="263" y="2007">symbols with the adjacent text.</tspan>
                </text>
                <line x1="776" y1="1919" x2="776" y2="1933" id="Path" stroke="#00AEEF" stroke-width="0.5"></line>
                <g id="Group" transform="translate(778.490230, 1918.732400)" fill="#000000" fill-rule="nonzero">
                    <path d="M0.82032,14.42385 C1.08073333,14.42385 1.28255667,14.3685115 1.42579,14.2578344 C1.56901667,14.1471575 1.68620333,13.9551 1.77735,13.681662 L3.03711,10.2344 L8.79887,10.2344 L10.05857,13.681662 C10.1497033,13.9551 10.2669033,14.1471575 10.41017,14.2578344 C10.55337,14.3685115 10.7519367,14.42385 11.00587,14.42385 C11.26627,14.42385 11.47297,14.3522354 11.62597,14.2090062 C11.77897,14.0657767 11.85547,13.8704643 11.85547,13.623069 C11.85547,13.473329 11.81967,13.297546 11.74807,13.09572 L7.16797,0.8985 C7.05078333,0.598966667 6.89128,0.374333333 6.68946,0.2246 C6.48763333,0.0748666667 6.23047,0 5.91797,0 C5.31250333,0 4.90234667,0.296233333 4.6875,0.8887 L0.10743,13.10549 C0.03581,13.3073133 -4.4408921e-16,13.4830947 -4.4408921e-16,13.632834 C-4.4408921e-16,13.88023 0.0732433333,14.073915 0.21973,14.2138891 C0.366216667,14.353863 0.566413333,14.42385 0.82032,14.42385 Z M3.51563,8.75002 L5.88868,2.1778 L5.9375,2.1778 L8.31057,8.75002 L3.51563,8.75002 Z" id="Shape"></path>
                </g>
                <line x1="793.197" y1="1919" x2="793.197" y2="1933" id="Path" stroke="#00AEEF" stroke-width="0.5"></line>
                <text id="Margins" fill="#000000" fill-rule="nonzero" font-family="Helvetica" font-size="13" font-weight="normal">
                    <tspan x="776" y="1953">Margins</tspan>
                </text>
                <text id="Leading-and-trailing-margins-on-the-left-and-right-side-of-each-symbol" fill="#000000" fill-rule="nonzero" font-family="Helvetica" font-size="13" font-weight="normal">
                    <tspan x="776" y="1971">Leading and trailing margins on the left and right side of each symbol</tspan>
                </text>
                <text id="can-be-adjusted-by-modifying-the-x-location-of-the-margin-guidelines." fill="#000000" fill-rule="nonzero" font-family="Helvetica" font-size="13" font-weight="normal">
                    <tspan x="776" y="1989">can be adjusted by modifying the x-location of the margin guidelines.</tspan>
                </text>
                <text id="Modifications-are-automatically-applied-proportionally-to-all" fill="#000000" fill-rule="nonzero" font-family="Helvetica" font-size="13" font-weight="normal">
                    <tspan x="776" y="2007">Modifications are automatically applied proportionally to all</tspan>
                </text>
                <text id="scales-and-weights." fill="#000000" fill-rule="nonzero" font-family="Helvetica" font-size="13" font-weight="normal">
                    <tspan x="776" y="2025">scales and weights.</tspan>
                </text>
                <g id="Group" transform="translate(1291.246849, 1914.517550)" fill="#000000" fill-rule="nonzero">
                    <path d="M0.594951479,20.3476805 L2.29417148,22.0566705 C2.72385815,22.4928705 3.17795815,22.6946938 3.65647148,22.6621405 C4.13498481,22.6295872 4.60536148,22.3561505 5.06760148,21.8418305 L15.7609515,10.0547205 L14.7941515,9.07815049 L4.17893148,20.7578405 C4.00315148,20.9596605 3.82574148,21.0735938 3.64670148,21.0996405 C3.46766815,21.1256805 3.26096481,21.0215138 3.02659148,20.7871405 L1.85471148,19.6250305 C1.62033815,19.3906545 1.51780148,19.1839482 1.54710148,19.0049115 C1.57639481,18.8258748 1.69195148,18.6452108 1.89377148,18.4629193 L13.3683515,7.66215049 L12.3918515,6.69535049 L0.800031479,17.5840125 C0.305238146,18.0397418 0.039938146,18.5052368 0.00413147929,18.9804975 C-0.0316751874,19.4557595 0.165264813,19.9114872 0.594951479,20.3476805 Z M7.01096148,2.15435049 C6.80262815,2.35615049 6.68544148,2.58725049 6.65940148,2.84765049 C6.63336148,3.10811716 6.67893481,3.33598382 6.79612148,3.53125049 C6.91330815,3.71358382 7.08420481,3.85031716 7.30881148,3.94145049 C7.53342481,4.03258382 7.80850481,4.03908382 8.13405148,3.96095049 C8.86318481,3.79168382 9.60211815,3.72171716 10.3508515,3.75105049 C11.0995181,3.78031716 11.8319181,4.02931716 12.5480515,4.49805049 L11.9621515,5.95315049 C11.7928848,6.36981716 11.7456848,6.73278382 11.8205515,7.04205049 C11.8954181,7.35125049 12.0663181,7.64258382 12.3332515,7.91605049 L14.6281515,10.2305005 C14.8690181,10.4778938 15.1033848,10.6211205 15.3312515,10.6601805 C15.5591181,10.6992472 15.8130181,10.6927372 16.0929515,10.6406505 L17.1574515,10.4453405 L17.8215515,11.1191705 L17.7824515,11.6758105 C17.7629181,11.9232038 17.7938515,12.1510672 17.8752515,12.3594005 C17.9565848,12.5677338 18.1177181,12.7923438 18.3586515,13.0332305 L19.1203515,13.7754205 C19.3612181,14.0163072 19.6232515,14.1416338 19.9064515,14.1514005 C20.1896515,14.1611605 20.4484515,14.0488538 20.6828515,13.8144805 L23.5929515,10.8945605 C23.8273515,10.6601872 23.9412848,10.4046538 23.9347515,10.1279605 C23.9282848,9.85126716 23.8045848,9.59247716 23.5636515,9.35159049 L22.7922515,8.58987049 C22.5578515,8.34899049 22.3381181,8.18461716 22.1330515,8.09675049 C21.9279848,8.00881716 21.7049848,7.97461716 21.4640515,7.99415049 L20.8879515,8.04295049 L20.2433515,7.40825049 L20.4875515,6.28515049 C20.5526181,6.00521716 20.5395848,5.74318382 20.4484515,5.49905049 C20.3573181,5.25491716 20.1652515,4.98635049 19.8722515,4.69335049 L17.6750515,2.50585049 C16.8417181,1.67905049 15.9546515,1.05895049 15.0138515,0.64555049 C14.0731181,0.23215049 13.1258515,0.0173171567 12.1720515,0.00105049002 C11.2183181,-0.0152828433 10.3003515,0.15885049 9.41815148,0.52345049 C8.53601815,0.88805049 7.73362148,1.43168382 7.01096148,2.15435049 Z M8.50515148,2.52545049 C9.11061815,2.08271716 9.76001815,1.76695049 10.4533515,1.57815049 C11.1466848,1.38935049 11.8481848,1.32911716 12.5578515,1.39745049 C13.2674515,1.46585049 13.9559181,1.65628382 14.6232515,1.96875049 C15.2905848,2.28128382 15.9009515,2.71748382 16.4543515,3.27735049 L18.8859515,5.68945049 C19.0031515,5.80665049 19.0763848,5.92058382 19.1056515,6.03125049 C19.1349848,6.14191716 19.1301181,6.28191716 19.0910515,6.45125049 L18.7687515,7.93555049 L20.2726515,9.41995049 L21.2590515,9.36136049 C21.3827181,9.35484716 21.4771181,9.36298382 21.5422515,9.38577049 C21.6073181,9.40855716 21.6886848,9.46877716 21.7863515,9.56643049 L22.3625515,10.1426105 L19.9211515,12.5840105 L19.3449515,12.0078405 C19.2472848,11.9101872 19.1854181,11.8288072 19.1593515,11.7637005 C19.1333515,11.6985938 19.1236181,11.6009372 19.1301515,11.4707305 L19.1984515,10.4941705 L17.7043515,9.00979049 L16.1808515,9.26370049 C16.0181181,9.29625382 15.8895515,9.30113716 15.7951515,9.27835049 C15.7007515,9.25556382 15.5916848,9.18557716 15.4679515,9.06839049 L13.4660515,7.06645049 C13.3358515,6.94925049 13.2626181,6.83695049 13.2463515,6.72955049 C13.2300848,6.62208382 13.2609848,6.47721716 13.3390515,6.29495049 L14.2179515,4.20515049 C13.4367515,3.47595049 12.5578515,2.97138382 11.5812515,2.69145049 C10.6047181,2.41151716 9.60861815,2.42128382 8.59295148,2.72075049 C8.51488481,2.74028382 8.46445148,2.72561716 8.44165148,2.67675049 C8.41885148,2.62795049 8.44001815,2.57751716 8.50515148,2.52545049 Z" id="Shape"></path>
                </g>
                <text id="Exporting" fill="#000000" fill-rule="nonzero" font-family="Helvetica" font-size="13" font-weight="normal">
                    <tspan x="1289" y="1953">Exporting</tspan>
                </text>
                <text id="Symbols-should-be-outlined-when-exporting-to-ensure-the" fill="#000000" fill-rule="nonzero" font-family="Helvetica" font-size="13" font-weight="normal">
                    <tspan x="1289" y="1971">Symbols should be outlined when exporting to ensure the</tspan>
                </text>
                <text id="design-is-preserved-when-submitting-to-Xcode." fill="#000000" fill-rule="nonzero" font-family="Helvetica" font-size="13" font-weight="normal">
                    <tspan x="1289" y="1989">design is preserved when submitting to Xcode.</tspan>
                </text>
                <text id="template-version" fill="#000000" fill-rule="nonzero" font-family="Helvetica" font-size="13" font-weight="normal">
                    <tspan x="2952" y="1933">Template v.3.0</tspan>
                </text>
                <text id="Requires-Xcode-13-or-greater" fill="#000000" fill-rule="nonzero" font-family="Helvetica" font-size="13" font-weight="normal">
                    <tspan x="2865" y="1951">Requires Xcode 13 or greater</tspan>
                </text>
                <text id="descriptive-name" fill="#000000" fill-rule="nonzero" font-family="Helvetica" font-size="13" font-weight="normal">
                    <tspan x="2895" y="1969">Generated from circle.fill</tspan>
                </text>
                <text id="Typeset-at-100-points" fill="#000000" fill-rule="nonzero" font-family="Helvetica" font-size="13" font-weight="normal">
                    <tspan x="2912" y="1987">Typeset at 100 points</tspan>
                </text>
                <text id="Small" fill="#000000" fill-rule="nonzero" font-family="Helvetica" font-size="13" font-weight="normal">
                    <tspan x="263" y="726">Small</tspan>
                </text>
                <text id="Medium" fill="#000000" fill-rule="nonzero" font-family="Helvetica" font-size="13" font-weight="normal">
                    <tspan x="263" y="1156">Medium</tspan>
                </text>
                <text id="Large" fill="#000000" fill-rule="nonzero" font-family="Helvetica" font-size="13" font-weight="normal">
                    <tspan x="263" y="1586">Large</tspan>
                </text>
            </g>
            <g id="Guides" transform="translate(263.000000, 625.041000)">
                <g id="H-reference" transform="translate(76.993347, 0.500000)" fill="#27AAE1" fill-rule="nonzero">
                    <path d="M0,70.459 L2.644353,70.459 L28.334853,3.3264 L29.036753,3.3264 L29.036753,0 L27.129353,0 L0,70.459 Z M10.694853,45.9793 L45.988453,45.9793 L45.237753,43.7302 L11.444853,43.7302 L10.694853,45.9793 Z M54.125953,70.459 L56.770353,70.459 L29.644753,0 L28.439353,0 L28.439353,3.3264 L54.125953,70.459 Z" id="Shape"></path>
                </g>
                <line x1="0" y1="70.959" x2="2773" y2="70.959" id="Baseline-S" stroke="#27AAE1" stroke-width="0.5"></line>
                <line x1="0" y1="0.5" x2="2773" y2="0.5" id="Capline-S" stroke="#27AAE1" stroke-width="0.5"></line>
                <g id="H-reference" transform="translate(76.993347, 430.500000)" fill="#27AAE1" fill-rule="nonzero">
                    <path d="M0,70.459 L2.644353,70.459 L28.334853,3.3264 L29.036753,3.3264 L29.036753,0 L27.129353,0 L0,70.459 Z M10.694853,45.9793 L45.988453,45.9793 L45.237753,43.7302 L11.444853,43.7302 L10.694853,45.9793 Z M54.125953,70.459 L56.770353,70.459 L29.644753,0 L28.439353,0 L28.439353,3.3264 L54.125953,70.459 Z" id="Shape"></path>
                </g>
                <line x1="0" y1="500.959" x2="2773" y2="500.959" id="Baseline-M" stroke="#27AAE1" stroke-width="0.5"></line>
                <line x1="0" y1="430.499" x2="2773" y2="430.499" id="Capline-M" stroke="#27AAE1" stroke-width="0.5"></line>
                <g id="H-reference" transform="translate(76.993347, 860.500000)" fill="#27AAE1" fill-rule="nonzero">
                    <path d="M0,70.459 L2.644353,70.459 L28.334853,3.3264 L29.036753,3.3264 L29.036753,0 L27.129353,0 L0,70.459 Z M10.694853,45.9793 L45.988453,45.9793 L45.237753,43.7302 L11.444853,43.7302 L10.694853,45.9793 Z M54.125953,70.459 L56.770353,70.459 L29.644753,0 L28.439353,0 L28.439353,3.3264 L54.125953,70.459 Z" id="Shape"></path>
                </g>
                <line x1="0" y1="930.959" x2="2773" y2="930.959" id="Baseline-L" stroke="#27AAE1" stroke-width="0.5"></line>
                <line x1="0" y1="860.499" x2="2773" y2="860.499" id="Capline-L" stroke="#27AAE1" stroke-width="0.5"></line>
                <line x1="1128.3" y1="405.749" x2="1128.3" y2="525.079" id="left-margin-Regular-M" stroke="#00AEEF" stroke-width="0.5"></line>
                <line x1="1245.39" y1="405.749" x2="1245.39" y2="525.079" id="right-margin-Regular-M" stroke="#00AEEF" stroke-width="0.5"></line>
            </g>
            <g id="Symbols" transform="translate(512.381230, 1037.474600)" fill="#CE4100" fill-rule="nonzero">
                <g id="Black-M" transform="translate(2367.679000, 0.000000)">
                    <path d="M82.8566402,70.3428771 L83.4751012,70.5249828 L85.3247114,71.0613718 C83.1112243,79.1827933 82.0093805,88.2657733 82.0093805,98.2885933 L82.0097425,98.2622342 C79.4962087,99.87429 76.8341179,101.283612 74.02347,102.4902 C67.5781367,105.257133 60.67707,106.6406 53.32027,106.6406 C53.0794039,106.6406 52.8390131,106.639104 52.5990975,106.636111 L52.9825321,106.369748 C57.5605572,103.137906 61.7679128,99.6880037 65.7633939,95.6978423 C73.0934409,88.3775546 78.9266557,79.9924864 82.8566402,70.3428771 L82.8566402,70.3428771 Z M71.1877781,66.7400994 L72.6324793,67.2061816 C72.8368435,67.2714673 73.0414925,67.3366818 73.2482641,67.4006717 C69.8481262,75.4124275 64.9027988,82.4245673 58.697038,88.6220656 C55.1374312,92.1769331 51.3590911,95.2750562 47.2153494,98.2003169 L47.2153494,98.2003169 L46.709077,98.5533363 L45.0101839,99.706043 L39.3228537,103.476702 L39.0356684,103.686296 C38.7265603,103.929529 38.4534532,104.202774 38.217535,104.498898 C36.3324555,103.939419 34.4817742,103.269711 32.66597,102.4902 C26.2207033,99.7233 20.5485033,95.8903067 15.64937,90.99122 C14.2434629,89.5853072 12.9253511,88.1163944 11.6950344,86.5844816 C22.0200518,87.7703103 32.7816279,87.8234957 41.9672626,86.3137194 C56.6908886,83.8937037 67.2377712,77.5641071 71.1877781,66.7400994 L71.1877781,66.7400994 Z M94.953868,73.7501927 L97.4195412,74.4092424 C98.287744,74.6389352 99.1601447,74.8675905 100.036744,75.0952091 L100.036744,75.0952091 L101.814715,75.5527019 C99.3703316,80.7694661 96.2072419,85.4624607 92.3254455,89.6316857 C92.7565281,83.8932727 93.6341829,78.6024516 94.953868,73.7501927 L94.953868,73.7501927 Z M3.1066922,35.2666122 C16.3358377,44.4023398 32.7895035,52.7017548 52.4758167,60.1861988 L52.4758167,60.1861988 L54.6148365,60.9914738 C56.0492318,61.5262121 57.5003918,62.0567282 58.9683195,62.5830303 L58.818,62.529 L58.692287,62.8204994 C56.2760175,68.2286561 50.1643825,71.7045373 40.3861765,73.3968821 L39.8588366,73.4858381 C29.2943516,75.2222459 15.6921468,74.5256524 3.98758545,72.2572006 C3.79369674,72.2196232 3.60015179,72.1910844 3.40738587,72.1712902 C1.13550434,66.269556 0,59.9853064 0,53.3203 C0,46.9782885 1.02813367,40.9809807 3.08440101,35.3283767 Z M106.658941,51.4340439 C106.679494,52.0593709 106.68977,52.6881229 106.68977,53.3203 C106.68977,57.0461988 106.33281,60.6531081 105.61889,64.141028 L103.079082,63.4872332 L100.540648,62.8220833 L99.2043288,62.4646065 C101.223335,58.4225572 103.664899,54.7966205 106.526031,51.5801705 Z M84.1688693,9.8390436 C86.6002316,11.5723657 88.8824985,13.5091512 91.01567,15.6494 C95.8984033,20.5485333 99.7314367,26.2126 102.51477,32.6416 C103.497986,34.9126757 104.307541,37.2416315 104.943434,39.6284675 C104.361812,39.844421 103.811827,40.1730637 103.325338,40.6155827 C97.4795078,45.933057 92.8449454,52.3200449 89.4107267,59.7523355 L89.4107267,59.7523355 L88.2259693,59.4105939 L86.4728075,58.8965822 C90.5870193,41.6007531 89.9112743,25.4283433 84.4165835,10.5038128 Z M53.32027,0 C59.6399881,0 65.623405,1.02090706 71.2705208,3.06272119 C71.0359238,4.15142295 71.1620362,5.32404093 71.7092289,6.39176567 C79.3526631,21.3062273 81.0952584,37.7620735 76.8890308,55.9653153 L76.8890308,55.9653153 L75.4067495,55.4935686 L73.1578292,54.7629542 L73.1578292,54.7629542 L72.8997789,54.6780776 C72.2604742,37.623129 59.8854334,20.3757931 36.5383425,2.67364387 C41.8494931,0.89071177 47.4434222,0 53.32027,0 Z M24.0326206,8.79675377 C24.4781952,9.63344316 25.1145342,10.3852662 25.9308328,10.9825026 C45.3331123,25.1779785 56.2027659,38.2036556 59.1140106,49.8615435 C58.4366315,49.6097621 57.7632928,49.3570805 57.0939948,49.1034994 L57.0939948,49.1034994 L55.0592565,48.3250063 C53.3741446,47.6739261 51.7152918,47.0170079 50.082704,46.3542674 L50.082704,46.3542674 L48.1362061,45.5561851 C46.2023163,44.75531 44.3062514,43.9460597 42.4480218,43.1284611 L42.4480218,43.1284611 L40.6024043,42.3080807 L38.7820126,41.4821407 C27.0314551,36.0954752 16.8797252,30.3568507 8.32963578,24.2736536 L8.53776725,24.4203672 C10.5862778,21.2656503 12.9568121,18.3419945 15.64937,15.6494 C18.1896614,13.1091432 20.9378005,10.8555107 23.8937876,8.88850233 Z" id="Combined-Shape"></path>
                </g>
                <g id="Regular-M" transform="translate(887.659000, 3.466800)">
                    <path d="M76.0826668,67.4864608 C77.5082522,67.83798 78.9395752,68.1756819 80.3762772,68.4995179 C76.7653111,78.0533633 75.6370339,85.6385057 77.0552348,91.3465306 C74.5348178,93.0211848 71.8556942,94.4729216 69.01857,95.7031 C63.0127033,98.3073 56.60807,99.6094 49.80467,99.6094 C49.4259254,99.6094 49.0484167,99.6053646 48.6721439,99.5972938 C59.2622385,95.4346333 68.3955443,84.6778162 76.0826668,67.4864608 Z M63.9375896,64.1145581 C66.3328645,64.8557211 68.7451316,65.5560131 71.1747701,66.216632 C61.4451044,87.6331345 49.7608644,97.5823295 36.1628933,96.4738388 C35.4433296,96.4151808 34.7701406,96.667339 34.2755251,97.1180434 C33.0305516,96.7009371 31.8025939,96.2285207 30.59087,95.7031 C24.5850033,93.0989533 19.2871367,89.5019587 14.69727,84.912116 C12.4226523,82.6375096 10.3918761,80.1890243 8.60494146,77.5666602 C11.4991999,78.8830893 14.678213,79.7079578 18.1309773,80.0378994 C42.2935566,82.3468439 58.0680361,76.8439064 63.9375896,64.1145581 Z M85.3280407,69.5562571 C88.419007,70.1792512 91.5360181,70.7394642 94.679053,71.2368885 C92.1845234,76.3371412 88.9284487,80.8956988 84.91207,84.912116 C83.8292726,85.9949235 82.7070694,87.0224736 81.5454603,87.9947665 C81.1981933,84.451548 81.8680211,79.9337044 83.5875676,74.479062 L83.5875676,74.479062 L83.9041608,73.4998447 L84.1092444,72.8896344 C84.31905,72.2741792 84.5428663,71.6434689 84.7792933,71.0018182 L84.7792933,71.0018182 L85.1720704,69.9560104 Z M2.69710319,33.6738484 C20.284751,46.2083418 39.0889925,55.8363461 59.1028627,62.5561399 C53.9220078,72.7624916 40.3451222,77.1378773 18.6066041,75.0605729 C12.5623799,74.4829948 7.65603639,72.1567954 3.77818876,68.0465907 L3.77818876,68.0465907 L3.29178787,67.5328091 C1.09726262,61.9594774 0,56.0501077 0,49.8047 C0,44.2364411 0.872223606,38.9353017 2.61667082,33.9012819 Z M99.60977,49.8047 C99.60977,55.6631689 98.6440785,61.2259489 96.7126955,66.4930399 L96.1636308,66.4084773 L94.3765303,66.1240984 C91.997593,65.7357019 89.6341088,65.3104066 87.2860681,64.8482085 L87.2860681,64.8482085 L87.4473266,64.4824673 L87.5728423,64.2020353 L87.5728423,64.2020353 L87.7019573,63.9153761 L88.2365473,62.7470536 L88.7900652,61.5663254 L89.3654871,60.3666184 L89.9628184,59.1479728 L90.7379675,57.602703 L91.5520301,56.0187472 L91.8837337,55.3837151 L92.7438175,53.7623894 L93.6399621,52.1085036 L94.3798029,50.7676063 L95.333425,49.0687896 L96.3253828,47.3336365 L97.1420129,45.9274261 L98.4059594,43.786848 L99.1049799,42.6228979 C99.4415066,44.9653107 99.60977,47.3592447 99.60977,49.8047 Z M84.91207,14.6973 C89.50187,19.2871 93.09877,24.5849333 95.70277,30.5908 C96.4128964,32.2282167 97.0262198,33.8952739 97.54274,35.5919716 L95.8946629,38.2716459 L95.4306759,39.0334662 L94.5255033,40.5332569 L93.6403893,42.0182519 L92.7774054,43.4850764 L91.7277913,45.2965765 L90.7167814,47.0727951 L89.9312729,48.4762104 L89.1679062,49.8615662 L88.7920396,50.5520501 L88.0643785,51.9057989 L87.3563795,53.2461289 L86.6678742,54.5736522 L86.0068435,55.8729463 L85.6808677,56.5233348 L85.6808677,56.5233348 L85.3625388,57.165095 L84.7459502,58.4281941 L84.1487561,59.6790679 L83.855554,60.3040603 L83.2945462,61.522049 L82.7528032,62.7285432 L82.4875393,63.3313396 L82.2832327,63.8024152 C80.8728223,63.4902185 79.4680877,63.1644521 78.0693349,62.8247895 C78.3253367,62.1941172 78.5796256,61.555833 78.8322021,60.9099437 C85.6788184,43.4017581 84.9234312,25.7029879 76.5996219,7.96813 C79.5917639,9.90430201 82.3624161,12.1476091 84.91207,14.6973 Z M49.75587,0 C56.55927,0 62.9720367,1.3021 68.99417,3.9063 L69.2990014,4.04164766 C69.2958133,4.45595108 69.395741,4.87678584 69.6099812,5.26545 C79.6233041,23.4311395 81.1302317,41.3045365 74.17559,59.0889649 C73.8455331,59.9329874 73.5130187,60.7625703 73.177779,61.577283 C70.6262146,60.893961 68.0938767,60.1646285 65.5808602,59.3889945 C65.8293087,58.3814739 66.0284156,57.3389075 66.1776617,56.2614955 C68.4541194,39.8276836 57.0446896,22.2115491 32.1995346,3.22796582 C37.7213412,1.07506286 43.5739872,0 49.75587,0 Z M27.0240756,5.58808897 L27.0962178,5.6415173 L28.2276315,6.489809 C29.3502006,7.33736771 30.4460486,8.18258723 31.513491,9.02420524 L31.513491,9.02420524 L32.9248356,10.1481627 L33.8099953,10.864936 C35.5662768,12.2965788 37.238339,13.7167938 38.8263381,15.1254842 L38.8263381,15.1254842 L39.9242091,16.1096839 L40.4395741,16.5790551 C55.9771009,30.8035548 62.8511148,43.8361292 61.2249536,55.5754325 C61.1168168,56.3560747 60.9760771,57.1146934 60.8022475,57.8518019 C40.8573587,51.1681163 22.1459814,41.5285853 4.66130691,28.9301844 C7.18851727,23.6027208 10.5258995,18.8589593 14.67287,14.6973 C18.3316129,11.0254908 22.4486814,7.98908709 27.0240756,5.58808897 Z" id="Combined-Shape"></path>
                </g>
                <g id="Ultralight-M" transform="translate(0.000000, 5.964700)">
                    <path d="M70.8755107,61.1682727 C73.3350123,61.7941538 75.8133606,62.3750619 78.3105522,62.9109958 L78.1778628,63.2337531 L77.7697381,64.257972 C77.5708957,64.7658398 77.3798834,65.2673456 77.1967027,65.7624923 L77.1967027,65.7624923 L76.8407836,66.7443078 C76.7256249,67.0687539 76.6139473,67.3903746 76.5057511,67.7091707 L76.5057511,67.7091707 L76.1916075,68.6570862 C73.9644865,75.5463377 73.422601,81.0688984 74.5702498,85.23373 L74.5702498,85.23373 L75.5343178,84.9680742 L75.4616832,84.6930152 C74.4807227,80.8120099 75.0085534,75.6635218 77.0489143,69.2553451 L77.0489143,69.2553451 L77.3506842,68.3313228 C77.4026942,68.1758911 77.4555617,68.0197456 77.5092868,67.8628862 L77.5092868,67.8628862 L77.8419292,66.9131655 C77.8990849,66.7534514 77.9570983,66.5930237 78.0159695,66.4318825 L78.0159695,66.4318825 L78.3794898,65.4564747 C78.5040945,65.1284854 78.6321306,64.797643 78.7635984,64.4639484 L78.7635984,64.4639484 L79.1682978,63.4543088 L79.3064581,63.1221381 C83.2783266,63.9538925 87.2976735,64.6723253 91.364486,65.2774316 L91.124,65.24 L90.95767,65.6353 C88.588518,71.1247848 85.3531234,75.9827524 81.2514863,80.2092028 L80.73427,80.73422 C76.3865367,85.08196 71.36117,88.4821267 65.65817,90.93472 C59.9552367,93.3873067 53.8381367,94.6136 47.30687,94.6136 C42.999386,94.6136 38.8635547,94.0751079 34.8993761,92.9981236 L35.2504777,93.0232909 C49.1709225,93.9182691 60.8357522,83.7307113 70.2581525,62.5762326 L70.2581525,62.5762326 Z M59.9929521,58.0665891 C63.2588722,59.0994959 66.5596064,60.0493517 69.8951466,60.9161536 C60.4320055,82.8075088 48.7528717,93.1243764 34.8719759,91.9930758 L34.8719759,91.9930758 L34.7924704,92.9689376 C32.8116449,92.4255261 30.8737448,91.7474536 28.97877,90.93472 C23.2602367,88.4821267 18.2272367,85.08196 13.87977,80.73422 C9.77257161,76.6267697 6.51085914,71.9077277 4.09463258,66.5770941 C8.03667123,70.3699028 12.9544605,72.5467688 18.8313582,73.1030316 C41.5682929,75.2551383 55.5018659,69.9217257 59.9928553,58.0683241 Z M3.502,29.45 L4.33795971,30.0546691 C21.32589,42.2555628 39.5588579,51.4912156 59.0351365,57.7609601 C54.6913905,69.0994368 41.2213604,74.2178308 18.9255895,72.1074813 C12.9019589,71.5373298 7.95545262,69.2121894 4.0638172,65.1264885 L4.0638172,65.1264885 L3.63575902,65.5335209 C1.21191967,59.8445538 0,53.7689802 0,47.3068 C0,40.8060667 1.23392333,34.6965667 3.70177,28.9783 L3.502,29.45 Z M93.4701982,36.6290362 C94.2632461,40.0625784 94.65977,43.6218329 94.65977,47.3068 C94.65977,53.3013226 93.6104417,58.96317 91.5117851,64.2923423 L91.5116571,64.2883205 L90.3778537,64.1164797 C86.7800032,63.5611967 83.2197359,62.9164217 79.6970425,62.1821512 L79.8139599,61.9077728 L79.8139599,61.9077728 L80.0394786,61.3837096 L80.5059648,60.3227601 C80.6648934,59.9662611 80.8272555,59.6069133 80.9930514,59.2447175 L80.9930514,59.2447175 L81.5007409,58.1495867 C81.5870728,57.9656412 81.6742633,57.7809838 81.7623125,57.5956148 L81.7623125,57.5956148 L82.3009108,56.4748614 C82.3923945,56.286646 82.484737,56.0977192 82.5779382,55.908081 L82.5779382,55.908081 L83.1474508,54.7617161 C83.3407236,54.3767496 83.5374319,53.9889384 83.737576,53.5982834 L83.737576,53.5982834 L84.3483161,52.4177877 L84.9796737,51.2202343 L85.6316511,50.005628 C85.7420324,49.8017729 85.853273,49.5972074 85.9653729,49.3919317 L85.9653729,49.3919317 L86.6482846,48.1517558 L87.3518221,46.8945397 C87.4707973,46.6835839 87.590632,46.4719184 87.7113263,46.2595431 L87.7113263,46.2595431 L88.4458072,44.9767763 L89.20092,43.6769819 C89.3284916,43.4589308 89.456923,43.2401705 89.5862142,43.020701 L89.5862142,43.020701 L90.3722794,41.6953748 L91.1789827,40.3530336 C91.3151532,40.1278925 91.4521837,39.9020426 91.5900743,39.6754841 L91.5900743,39.6754841 L92.4277391,38.3076301 C92.5690701,38.0782374 92.7112614,37.8481363 92.8543128,37.6173269 L92.8543128,37.6173269 Z M68.4637564,4.99016722 C73.0241296,7.29635317 77.1143008,10.2594308 80.73427,13.8794 C85.0820033,18.2271333 88.4898033,23.2601 90.95767,28.9783 C91.9363014,31.2456923 92.7209106,33.5745967 93.3114976,35.9650131 L92.8757068,35.6927576 L92.4344565,36.3985279 L91.5675748,37.7972581 L90.7215202,39.1789121 L89.8962953,40.5434949 L89.0919023,41.8910115 L88.3083438,43.2214669 L87.5456221,44.5348664 C87.4202383,44.7523452 87.2957229,44.9691136 87.1720758,45.1851716 L87.1720758,45.1851716 L86.4406139,46.4729964 L85.7299949,47.7437778 C85.6132955,47.9541547 85.4974646,48.1638216 85.3825023,48.3727788 L85.3825023,48.3727788 L84.7031522,49.6180044 L84.0446511,50.8461993 C83.9366385,51.0494795 83.8294946,51.2520503 83.7232197,51.4539117 L83.7232197,51.4539117 L83.0959965,52.6565698 L82.4896284,53.8422097 C82.3903051,54.0383985 82.2918508,54.2338784 82.1942657,54.4286495 L82.1942657,54.4286495 L81.6191846,55.5887715 L81.0649646,56.7318881 C80.9743332,56.9209906 80.8845711,57.1093849 80.7956783,57.2970708 L80.7956783,57.2970708 L80.2727544,58.4146885 L79.7706977,59.5153132 L79.2895105,60.59895 C79.2110519,60.7781407 79.133463,60.9566239 79.0567438,61.1343995 L79.0567438,61.1343995 L78.7002741,61.971782 C76.2049159,61.4386046 73.7284874,60.8603383 71.2709854,60.2369818 C71.7509195,59.1021023 72.224059,57.9371347 72.6911981,56.7428333 C79.4146938,39.5533467 77.9553405,22.2041977 68.3244044,4.73613338 Z M47.30377,0 C53.8345033,0 59.9520033,1.2263 65.65627,3.6789 C66.5020869,4.04256649 67.3329913,4.42706651 68.148983,4.83240006 L67.4486864,5.2189564 L67.7727568,5.81246088 C76.9712272,22.8242826 78.2966486,39.6665319 71.7599033,56.3785667 C71.2768491,57.6135574 70.7876385,58.8163856 70.2922737,59.9870699 C66.9350256,59.1163595 63.6128052,58.1619993 60.3260523,57.1231161 C60.7668295,55.7787584 61.0920474,54.3570812 61.3017016,52.8579351 C63.3366044,38.3072281 52.6550762,22.3746141 29.348224,5.0226959 L29.348224,5.0226959 L28.0686126,4.07834422 C28.3688697,3.94251478 28.6710888,3.80936671 28.97527,3.6789 C34.6935367,1.2263 40.8030367,0 47.30377,0 Z M27.6909085,4.25110182 L27.3154524,4.76592866 L28.0327705,5.29255912 C51.5748309,22.6557955 62.3030458,38.477605 60.3113393,52.7194339 C60.1098322,54.160324 59.7963103,55.5268992 59.3711788,56.8177978 C39.6274277,50.4660789 21.1699414,41.0515101 3.99566069,28.5737901 L3.99566069,28.5737901 L3.7022036,28.9772953 C6.17003487,23.2595105 9.56955701,18.2268787 13.90077,13.8794 C17.9049418,9.86019066 22.5016547,6.65075793 27.6909085,4.25110182 Z" id="Combined-Shape"></path>
                </g>
            </g>
        </g>
    </g>
</svg>