<?xml version="1.0" encoding="UTF-8"?>
<svg width="3300px" height="2200px" viewBox="0 0 3300 2200" version="1.1" xmlns="http://www.w3.org/2000/svg" xmlns:xlink="http://www.w3.org/1999/xlink">
    <title>circle.fill</title>
    <g id="Page-1" stroke="none" stroke-width="1" fill="none" fill-rule="evenodd">
        <g id="circle.fill">
            <g id="Notes">
                <rect id="artboard" fill="#FFFFFF" fill-rule="nonzero" x="0" y="0" width="3300" height="2200"></rect>
                <line x1="263" y1="292" x2="3036" y2="292" id="Path" stroke="#000000" stroke-width="0.5"></line>
                <text id="Weight/Scale-Variations" fill="#000000" fill-rule="nonzero" font-family="Helvetica" font-size="13" font-weight="normal">
                    <tspan x="263" y="322">Weight/Scale Variations</tspan>
                </text>
                <text id="Ultralight" fill="#000000" fill-rule="nonzero" font-family="Helvetica" font-size="13" font-weight="normal">
                    <tspan x="533.711" y="322">Ultralight</tspan>
                </text>
                <text id="Thin" fill="#000000" fill-rule="nonzero" font-family="Helvetica" font-size="13" font-weight="normal">
                    <tspan x="843.422" y="322">Thin</tspan>
                </text>
                <text id="Light" fill="#000000" fill-rule="nonzero" font-family="Helvetica" font-size="13" font-weight="normal">
                    <tspan x="1138.63" y="322">Light</tspan>
                </text>
                <text id="Regular" fill="#000000" fill-rule="nonzero" font-family="Helvetica" font-size="13" font-weight="normal">
                    <tspan x="1426.84" y="322">Regular</tspan>
                </text>
                <text id="Medium" fill="#000000" fill-rule="nonzero" font-family="Helvetica" font-size="13" font-weight="normal">
                    <tspan x="1723.06" y="322">Medium</tspan>
                </text>
                <text id="Semibold" fill="#000000" fill-rule="nonzero" font-family="Helvetica" font-size="13" font-weight="normal">
                    <tspan x="2015.77" y="322">Semibold</tspan>
                </text>
                <text id="Bold" fill="#000000" fill-rule="nonzero" font-family="Helvetica" font-size="13" font-weight="normal">
                    <tspan x="2326.48" y="322">Bold</tspan>
                </text>
                <text id="Heavy" fill="#000000" fill-rule="nonzero" font-family="Helvetica" font-size="13" font-weight="normal">
                    <tspan x="2618.19" y="322">Heavy</tspan>
                </text>
                <text id="Black" fill="#000000" fill-rule="nonzero" font-family="Helvetica" font-size="13" font-weight="normal">
                    <tspan x="2917.4" y="322">Black</tspan>
                </text>
                <line x1="263" y1="1903" x2="3036" y2="1903" id="Path" stroke="#000000" stroke-width="0.5"></line>
                <g id="Group" transform="translate(264.367190, 1918.068400)" fill="#000000" fill-rule="nonzero">
                    <path d="M7.88086,15.761678 C8.96156,15.761678 9.97717667,15.5566 10.92771,15.146444 C11.8782433,14.7362873 12.7164767,14.166626 13.44241,13.43746 C14.1682767,12.7082933 14.7379433,11.86845 15.15141,10.91793 C15.56481,9.96741 15.77151,8.95504 15.77151,7.88082 C15.77151,6.8066 15.56481,5.79422667 15.15141,4.8437 C14.7379433,3.89316667 14.1666433,3.05333333 13.43751,2.3242 C12.70831,1.595 11.8684767,1.02533333 10.91801,0.6152 C9.96747667,0.205066667 8.95183667,0 7.87109,0 C6.79687,0 5.7845,0.205066667 4.83398,0.6152 C3.88346,1.02533333 3.04687333,1.595 2.32422,2.3242 C1.60156,3.05333333 1.03352333,3.89316667 0.62011,4.8437 C0.206703333,5.79422667 -8.8817842e-16,6.8066 -8.8817842e-16,7.88082 C-8.8817842e-16,8.95504 0.206703333,9.96741 0.62011,10.91793 C1.03352333,11.86845 1.60318667,12.7082933 2.3291,13.43746 C3.05501333,14.166626 3.89323,14.7362873 4.84375,15.146444 C5.79427,15.5566 6.80664,15.761678 7.88086,15.761678 Z M7.88086,14.277303 C6.99544,14.277303 6.16699,14.1129153 5.39551,13.78414 C4.62402333,13.4553667 3.94694,12.99801 3.36426,12.41207 C2.78157333,11.82613 2.32584333,11.14579 1.99707,10.37105 C1.66829,9.59631 1.5039,8.76623333 1.5039,7.88082 C1.5039,6.9954 1.66666333,6.16532 1.99219,5.39058 C2.31771,4.61586 2.77181,3.93553333 3.35449,3.3496 C3.93717,2.76366667 4.61425333,2.3063 5.38574,1.9775 C6.15722667,1.6487 6.98567667,1.4843 7.87109,1.4843 C8.76303667,1.4843 9.59474333,1.6487 10.36621,1.9775 C11.1376767,2.3063 11.8163767,2.76366667 12.40231,3.3496 C12.9882433,3.93553333 13.4472433,4.61586 13.77931,5.39058 C14.11131,6.16532 14.27731,6.9954 14.27731,7.88082 C14.27731,8.76623333 14.1129433,9.59631 13.78421,10.37105 C13.45541,11.14579 12.9996767,11.82613 12.41701,12.41207 C11.8343433,12.99801 11.15561,13.4553667 10.38081,13.78414 C9.60607667,14.1129153 8.77276,14.277303 7.88086,14.277303 Z M4.47265,7.89058 C4.47265,8.10542667 4.54101,8.27958333 4.67773,8.41305 C4.81445,8.54651 4.99674333,8.61324 5.22461,8.61324 L7.13867,8.61324 L7.13867,10.53707 C7.13867,10.7584233 7.2054,10.93746 7.33886,11.07418 C7.47232667,11.2109 7.64648333,11.27926 7.86133,11.27926 C8.08268333,11.27926 8.26171667,11.2109 8.39843,11.07418 C8.53515,10.93746 8.60351,10.7584233 8.60351,10.53707 L8.60351,8.61324 L10.52731,8.61324 C10.74871,8.61324 10.9277433,8.54651 11.06441,8.41305 C11.2011433,8.27958333 11.26951,8.10542667 11.26951,7.89058 C11.26951,7.66922667 11.2011433,7.49019333 11.06441,7.35348 C10.9277433,7.21676 10.74871,7.1484 10.52731,7.1484 L8.60351,7.1484 L8.60351,5.23433 C8.60351,5.00644333 8.53515,4.82416667 8.39843,4.6875 C8.26171667,4.55076667 8.08268333,4.4824 7.86133,4.4824 C7.64648333,4.4824 7.47232667,4.55076667 7.33886,4.6875 C7.2054,4.82416667 7.13867,5.00644333 7.13867,5.23433 L7.13867,7.1484 L5.22461,7.1484 C4.99674333,7.1484 4.81445,7.21676 4.67773,7.35348 C4.54101,7.49019333 4.47265,7.66922667 4.47265,7.89058 Z" id="Shape"></path>
                </g>
                <g id="Group" transform="translate(283.615050, 1915.988300)" fill="#000000" fill-rule="nonzero">
                    <path d="M9.96095,19.92186 C11.3216167,19.92186 12.60255,19.6614433 13.80375,19.14061 C15.0048833,18.6197767 16.06445,17.9003744 16.98245,16.9824031 C17.9003833,16.0644344 18.6197833,15.0048633 19.14065,13.80369 C19.66145,12.6025167 19.92185,11.3215933 19.92185,9.96092 C19.92185,8.60024 19.66145,7.3193 19.14065,6.1181 C18.6197833,4.91696667 17.9003833,3.8574 16.98245,2.9394 C16.06445,2.02146667 15.00325,1.30206667 13.79885,0.7812 C12.5943833,0.2604 11.3118167,0 9.95115,0 C8.59048333,0 7.30956667,0.2604 6.1084,0.7812 C4.90722667,1.30206667 3.84928333,2.02146667 2.93457,2.9394 C2.01985667,3.8574 1.30208333,4.91696667 0.78125,6.1181 C0.260416667,7.3193 8.8817842e-16,8.60024 8.8817842e-16,9.96092 C8.8817842e-16,11.3215933 0.260416667,12.6025167 0.78125,13.80369 C1.30208333,15.0048633 2.02148333,16.0644344 2.93945,16.9824031 C3.85741667,17.9003744 4.91698667,18.6197767 6.11816,19.14061 C7.31933333,19.6614433 8.60026333,19.92186 9.96095,19.92186 Z M9.96095,18.2617 C8.80859667,18.2617 7.73111667,18.0468563 6.72851,17.617169 C5.72591,17.1874813 4.84537667,16.593405 4.08691,15.83494 C3.32845,15.07648 2.73600333,14.1959467 2.30957,13.19334 C1.88313667,12.1907333 1.66992,11.11326 1.66992,9.96092 C1.66992,8.80857333 1.88313667,7.7311 2.30957,6.7285 C2.73600333,5.7259 3.32682333,4.84373333 4.08203,4.082 C4.83723667,3.32026667 5.71614333,2.7262 6.71875,2.2998 C7.72135,1.87333333 8.79881667,1.6601 9.95115,1.6601 C11.1034833,1.6601 12.18095,1.87333333 13.18355,2.2998 C14.18615,2.7262 15.0683167,3.32026667 15.83005,4.082 C16.5917833,4.84373333 17.1874833,5.7259 17.61715,6.7285 C18.0468833,7.7311 18.26175,8.80857333 18.26175,9.96092 C18.26175,11.11326 18.0485167,12.1907333 17.62205,13.19334 C17.19565,14.1959467 16.6032167,15.07648 15.84475,15.83494 C15.0862833,16.593405 14.2041167,17.1874813 13.19825,17.617169 C12.1923833,18.0468563 11.1132833,18.2617 9.96095,18.2617 Z M5.64453,9.97068 C5.64453,10.20506 5.72265333,10.39712 5.8789,10.54686 C6.03515333,10.6966 6.23697667,10.77147 6.48437,10.77147 L9.13085,10.77147 L9.13085,13.43748 C9.13085,13.6783667 9.20571667,13.8753067 9.35545,14.0283 C9.50518333,14.1812933 9.69725,14.25779 9.93165,14.25779 C10.17905,14.25779 10.3808833,14.1812933 10.53715,14.0283 C10.69335,13.8753067 10.77145,13.6783667 10.77145,13.43748 L10.77145,10.77147 L13.42775,10.77147 C13.6686167,10.77147 13.8671833,10.6966 14.02345,10.54686 C14.1797167,10.39712 14.25785,10.20506 14.25785,9.97068 C14.25785,9.72328667 14.1797167,9.52309333 14.02345,9.3701 C13.8671833,9.21710667 13.6686167,9.14061 13.42775,9.14061 L10.77145,9.14061 L10.77145,6.4941 C10.77145,6.24023333 10.69335,6.0368 10.53715,5.8838 C10.3808833,5.7308 10.17905,5.6543 9.93165,5.6543 C9.69725,5.6543 9.50518333,5.7308 9.35545,5.8838 C9.20571667,6.0368 9.13085,6.24023333 9.13085,6.4941 L9.13085,9.14061 L6.48437,9.14061 C6.23046333,9.14061 6.02701333,9.21710667 5.87402,9.3701 C5.72102667,9.52309333 5.64453,9.72328667 5.64453,9.97068 Z" id="Shape"></path>
                </g>
                <g id="Group" transform="translate(307.901860, 1913.224600)" fill="#000000" fill-rule="nonzero">
                    <path d="M12.71484,25.43946 C14.10804,25.43946 15.4378067,25.22299 16.70414,24.79005 C17.9704067,24.3571033 19.13414,23.7500067 20.19534,22.96876 C21.25654,22.1875067 22.1793733,21.2662827 22.96384,20.205088 C23.7483733,19.1438893 24.3571067,17.9785233 24.79004,16.70899 C25.2229733,15.4394633 25.43944,14.11134 25.43944,12.72462 C25.43944,11.3313933 25.2229733,10.0016533 24.79004,8.7354 C24.3571067,7.46906667 23.7483733,6.30533333 22.96384,5.2442 C22.1793733,4.183 21.25654,3.26013333 20.19534,2.4756 C19.13414,1.69106667 17.9687733,1.08233333 16.69924,0.6494 C15.4297067,0.216466667 14.0983067,0 12.70504,0 C11.31184,0 9.98210667,0.216466667 8.71584,0.6494 C7.44955333,1.08233333 6.28743667,1.69106667 5.22949,2.4756 C4.17155,3.26013333 3.25032667,4.183 2.46582,5.2442 C1.68131333,6.30533333 1.07421667,7.46906667 0.64453,8.7354 C0.214843333,10.0016533 0,11.3313933 0,12.72462 C0,14.11134 0.21647,15.4394633 0.64941,16.70899 C1.08235667,17.9785233 1.68945333,19.1438893 2.4707,20.205088 C3.25195333,21.2662827 4.17317667,22.1875067 5.23437,22.96876 C6.29557,23.7500067 7.45929333,24.3571033 8.72554,24.79005 C9.99187333,25.22299 11.32164,25.43946 12.71484,25.43946 Z M12.71484,23.62306 C11.51044,23.62306 10.3629733,23.43914 9.27244,23.0713 C8.18196,22.70346 7.18424667,22.18751 6.2793,21.52345 C5.37434667,20.8593853 4.58821333,20.0732513 3.9209,19.165048 C3.25358,18.2568427 2.73763,17.2574933 2.37305,16.167 C2.00846333,15.0765067 1.82617,13.9290467 1.82617,12.72462 C1.82617,11.51368 2.00846333,10.3629733 2.37305,9.2725 C2.73763,8.18196667 3.25195333,7.1826 3.91602,6.2744 C4.58008,5.3662 5.36458333,4.58006667 6.26953,3.916 C7.17447667,3.25193333 8.17221333,2.73763333 9.26274,2.3731 C10.3532067,2.0085 11.50064,1.8262 12.70504,1.8262 C13.9159733,1.8262 15.0667067,2.0085 16.15724,2.3731 C17.2477067,2.73763333 18.24704,3.25193333 19.15524,3.916 C20.06344,4.58006667 20.8495733,5.3662 21.51364,6.2744 C22.1777067,7.1826 22.6936733,8.18196667 23.06154,9.2725 C23.42934,10.3629733 23.6134125,11.51368 23.6134125,12.72462 C23.6197733,13.9290467 23.44074,15.0765067 23.07614,16.167 C22.7116067,17.2574933 22.1956733,18.2568427 21.52834,19.165048 C20.8610067,20.0732513 20.07324,20.8593853 19.16504,21.52345 C18.25684,22.18751 17.2575067,22.70346 16.16704,23.0713 C15.0765067,23.43914 13.9257733,23.62306 12.71484,23.62306 Z M7.19726,12.73438 C7.19726,12.9882867 7.28352333,13.19825 7.45605,13.36427 C7.62857667,13.5302833 7.84830667,13.61329 8.11524,13.61329 L11.80664,13.61329 L11.80664,17.31446 C11.80664,17.5813867 11.88964,17.7994867 12.05564,17.96876 C12.22164,18.1380333 12.4316067,18.22267 12.68554,18.22267 C12.9590067,18.22267 13.1803733,18.1380333 13.34964,17.96876 C13.5189067,17.7994867 13.60354,17.5813867 13.60354,17.31446 L13.60354,13.61329 L17.30464,13.61329 C17.5715733,13.61329 17.7896733,13.5302833 17.95894,13.36427 C18.1282733,13.19825 18.21294,12.9882867 18.21294,12.73438 C18.21294,12.4609467 18.1282733,12.2395933 17.95894,12.07032 C17.7896733,11.9010533 17.5715733,11.81642 17.30464,11.81642 L13.60354,11.81642 L13.60354,8.125 C13.60354,7.8516 13.5189067,7.63023333 13.34964,7.4609 C13.1803733,7.29163333 12.9590067,7.207 12.68554,7.207 C12.4316067,7.207 12.22164,7.29326667 12.05564,7.4658 C11.88964,7.63833333 11.80664,7.85806667 11.80664,8.125 L11.80664,11.81642 L8.11524,11.81642 C7.8418,11.81642 7.62044333,11.9010533 7.45117,12.07032 C7.28189667,12.2395933 7.19726,12.4609467 7.19726,12.73438 Z" id="Shape"></path>
                </g>
                <text id="Design-Variations" fill="#000000" fill-rule="nonzero" font-family="Helvetica" font-size="13" font-weight="normal">
                    <tspan x="263" y="1953">Design Variations</tspan>
                </text>
                <text id="Symbols-are-supported-in-up-to-nine-weights-and-three-scales." fill="#000000" fill-rule="nonzero" font-family="Helvetica" font-size="13" font-weight="normal">
                    <tspan x="263" y="1971">Symbols are supported in up to nine weights and three scales.</tspan>
                </text>
                <text id="For-optimal-layout-with-text-and-other-symbols,-vertically-align" fill="#000000" fill-rule="nonzero" font-family="Helvetica" font-size="13" font-weight="normal">
                    <tspan x="263" y="1989">For optimal layout with text and other symbols, vertically align</tspan>
                </text>
                <text id="symbols-with-the-adjacent-text." fill="#000000" fill-rule="nonzero" font-family="Helvetica" font-size="13" font-weight="normal">
                    <tspan x="263" y="2007">symbols with the adjacent text.</tspan>
                </text>
                <line x1="776" y1="1919" x2="776" y2="1933" id="Path" stroke="#00AEEF" stroke-width="0.5"></line>
                <g id="Group" transform="translate(778.490230, 1918.732400)" fill="#000000" fill-rule="nonzero">
                    <path d="M0.82032,14.42385 C1.08073333,14.42385 1.28255667,14.3685115 1.42579,14.2578344 C1.56901667,14.1471575 1.68620333,13.9551 1.77735,13.681662 L3.03711,10.2344 L8.79887,10.2344 L10.05857,13.681662 C10.1497033,13.9551 10.2669033,14.1471575 10.41017,14.2578344 C10.55337,14.3685115 10.7519367,14.42385 11.00587,14.42385 C11.26627,14.42385 11.47297,14.3522354 11.62597,14.2090062 C11.77897,14.0657767 11.85547,13.8704643 11.85547,13.623069 C11.85547,13.473329 11.81967,13.297546 11.74807,13.09572 L7.16797,0.8985 C7.05078333,0.598966667 6.89128,0.374333333 6.68946,0.2246 C6.48763333,0.0748666667 6.23047,0 5.91797,0 C5.31250333,0 4.90234667,0.296233333 4.6875,0.8887 L0.10743,13.10549 C0.03581,13.3073133 -4.4408921e-16,13.4830947 -4.4408921e-16,13.632834 C-4.4408921e-16,13.88023 0.0732433333,14.073915 0.21973,14.2138891 C0.366216667,14.353863 0.566413333,14.42385 0.82032,14.42385 Z M3.51563,8.75002 L5.88868,2.1778 L5.9375,2.1778 L8.31057,8.75002 L3.51563,8.75002 Z" id="Shape"></path>
                </g>
                <line x1="793.197" y1="1919" x2="793.197" y2="1933" id="Path" stroke="#00AEEF" stroke-width="0.5"></line>
                <text id="Margins" fill="#000000" fill-rule="nonzero" font-family="Helvetica" font-size="13" font-weight="normal">
                    <tspan x="776" y="1953">Margins</tspan>
                </text>
                <text id="Leading-and-trailing-margins-on-the-left-and-right-side-of-each-symbol" fill="#000000" fill-rule="nonzero" font-family="Helvetica" font-size="13" font-weight="normal">
                    <tspan x="776" y="1971">Leading and trailing margins on the left and right side of each symbol</tspan>
                </text>
                <text id="can-be-adjusted-by-modifying-the-x-location-of-the-margin-guidelines." fill="#000000" fill-rule="nonzero" font-family="Helvetica" font-size="13" font-weight="normal">
                    <tspan x="776" y="1989">can be adjusted by modifying the x-location of the margin guidelines.</tspan>
                </text>
                <text id="Modifications-are-automatically-applied-proportionally-to-all" fill="#000000" fill-rule="nonzero" font-family="Helvetica" font-size="13" font-weight="normal">
                    <tspan x="776" y="2007">Modifications are automatically applied proportionally to all</tspan>
                </text>
                <text id="scales-and-weights." fill="#000000" fill-rule="nonzero" font-family="Helvetica" font-size="13" font-weight="normal">
                    <tspan x="776" y="2025">scales and weights.</tspan>
                </text>
                <g id="Group" transform="translate(1291.246849, 1914.517550)" fill="#000000" fill-rule="nonzero">
                    <path d="M0.594951479,20.3476805 L2.29417148,22.0566705 C2.72385815,22.4928705 3.17795815,22.6946938 3.65647148,22.6621405 C4.13498481,22.6295872 4.60536148,22.3561505 5.06760148,21.8418305 L15.7609515,10.0547205 L14.7941515,9.07815049 L4.17893148,20.7578405 C4.00315148,20.9596605 3.82574148,21.0735938 3.64670148,21.0996405 C3.46766815,21.1256805 3.26096481,21.0215138 3.02659148,20.7871405 L1.85471148,19.6250305 C1.62033815,19.3906545 1.51780148,19.1839482 1.54710148,19.0049115 C1.57639481,18.8258748 1.69195148,18.6452108 1.89377148,18.4629193 L13.3683515,7.66215049 L12.3918515,6.69535049 L0.800031479,17.5840125 C0.305238146,18.0397418 0.039938146,18.5052368 0.00413147929,18.9804975 C-0.0316751874,19.4557595 0.165264813,19.9114872 0.594951479,20.3476805 Z M7.01096148,2.15435049 C6.80262815,2.35615049 6.68544148,2.58725049 6.65940148,2.84765049 C6.63336148,3.10811716 6.67893481,3.33598382 6.79612148,3.53125049 C6.91330815,3.71358382 7.08420481,3.85031716 7.30881148,3.94145049 C7.53342481,4.03258382 7.80850481,4.03908382 8.13405148,3.96095049 C8.86318481,3.79168382 9.60211815,3.72171716 10.3508515,3.75105049 C11.0995181,3.78031716 11.8319181,4.02931716 12.5480515,4.49805049 L11.9621515,5.95315049 C11.7928848,6.36981716 11.7456848,6.73278382 11.8205515,7.04205049 C11.8954181,7.35125049 12.0663181,7.64258382 12.3332515,7.91605049 L14.6281515,10.2305005 C14.8690181,10.4778938 15.1033848,10.6211205 15.3312515,10.6601805 C15.5591181,10.6992472 15.8130181,10.6927372 16.0929515,10.6406505 L17.1574515,10.4453405 L17.8215515,11.1191705 L17.7824515,11.6758105 C17.7629181,11.9232038 17.7938515,12.1510672 17.8752515,12.3594005 C17.9565848,12.5677338 18.1177181,12.7923438 18.3586515,13.0332305 L19.1203515,13.7754205 C19.3612181,14.0163072 19.6232515,14.1416338 19.9064515,14.1514005 C20.1896515,14.1611605 20.4484515,14.0488538 20.6828515,13.8144805 L23.5929515,10.8945605 C23.8273515,10.6601872 23.9412848,10.4046538 23.9347515,10.1279605 C23.9282848,9.85126716 23.8045848,9.59247716 23.5636515,9.35159049 L22.7922515,8.58987049 C22.5578515,8.34899049 22.3381181,8.18461716 22.1330515,8.09675049 C21.9279848,8.00881716 21.7049848,7.97461716 21.4640515,7.99415049 L20.8879515,8.04295049 L20.2433515,7.40825049 L20.4875515,6.28515049 C20.5526181,6.00521716 20.5395848,5.74318382 20.4484515,5.49905049 C20.3573181,5.25491716 20.1652515,4.98635049 19.8722515,4.69335049 L17.6750515,2.50585049 C16.8417181,1.67905049 15.9546515,1.05895049 15.0138515,0.64555049 C14.0731181,0.23215049 13.1258515,0.0173171567 12.1720515,0.00105049002 C11.2183181,-0.0152828433 10.3003515,0.15885049 9.41815148,0.52345049 C8.53601815,0.88805049 7.73362148,1.43168382 7.01096148,2.15435049 Z M8.50515148,2.52545049 C9.11061815,2.08271716 9.76001815,1.76695049 10.4533515,1.57815049 C11.1466848,1.38935049 11.8481848,1.32911716 12.5578515,1.39745049 C13.2674515,1.46585049 13.9559181,1.65628382 14.6232515,1.96875049 C15.2905848,2.28128382 15.9009515,2.71748382 16.4543515,3.27735049 L18.8859515,5.68945049 C19.0031515,5.80665049 19.0763848,5.92058382 19.1056515,6.03125049 C19.1349848,6.14191716 19.1301181,6.28191716 19.0910515,6.45125049 L18.7687515,7.93555049 L20.2726515,9.41995049 L21.2590515,9.36136049 C21.3827181,9.35484716 21.4771181,9.36298382 21.5422515,9.38577049 C21.6073181,9.40855716 21.6886848,9.46877716 21.7863515,9.56643049 L22.3625515,10.1426105 L19.9211515,12.5840105 L19.3449515,12.0078405 C19.2472848,11.9101872 19.1854181,11.8288072 19.1593515,11.7637005 C19.1333515,11.6985938 19.1236181,11.6009372 19.1301515,11.4707305 L19.1984515,10.4941705 L17.7043515,9.00979049 L16.1808515,9.26370049 C16.0181181,9.29625382 15.8895515,9.30113716 15.7951515,9.27835049 C15.7007515,9.25556382 15.5916848,9.18557716 15.4679515,9.06839049 L13.4660515,7.06645049 C13.3358515,6.94925049 13.2626181,6.83695049 13.2463515,6.72955049 C13.2300848,6.62208382 13.2609848,6.47721716 13.3390515,6.29495049 L14.2179515,4.20515049 C13.4367515,3.47595049 12.5578515,2.97138382 11.5812515,2.69145049 C10.6047181,2.41151716 9.60861815,2.42128382 8.59295148,2.72075049 C8.51488481,2.74028382 8.46445148,2.72561716 8.44165148,2.67675049 C8.41885148,2.62795049 8.44001815,2.57751716 8.50515148,2.52545049 Z" id="Shape"></path>
                </g>
                <text id="Exporting" fill="#000000" fill-rule="nonzero" font-family="Helvetica" font-size="13" font-weight="normal">
                    <tspan x="1289" y="1953">Exporting</tspan>
                </text>
                <text id="Symbols-should-be-outlined-when-exporting-to-ensure-the" fill="#000000" fill-rule="nonzero" font-family="Helvetica" font-size="13" font-weight="normal">
                    <tspan x="1289" y="1971">Symbols should be outlined when exporting to ensure the</tspan>
                </text>
                <text id="design-is-preserved-when-submitting-to-Xcode." fill="#000000" fill-rule="nonzero" font-family="Helvetica" font-size="13" font-weight="normal">
                    <tspan x="1289" y="1989">design is preserved when submitting to Xcode.</tspan>
                </text>
                <text id="template-version" fill="#000000" fill-rule="nonzero" font-family="Helvetica" font-size="13" font-weight="normal">
                    <tspan x="2952" y="1933">Template v.3.0</tspan>
                </text>
                <text id="Requires-Xcode-13-or-greater" fill="#000000" fill-rule="nonzero" font-family="Helvetica" font-size="13" font-weight="normal">
                    <tspan x="2865" y="1951">Requires Xcode 13 or greater</tspan>
                </text>
                <text id="descriptive-name" fill="#000000" fill-rule="nonzero" font-family="Helvetica" font-size="13" font-weight="normal">
                    <tspan x="2895" y="1969">Generated from circle.fill</tspan>
                </text>
                <text id="Typeset-at-100-points" fill="#000000" fill-rule="nonzero" font-family="Helvetica" font-size="13" font-weight="normal">
                    <tspan x="2912" y="1987">Typeset at 100 points</tspan>
                </text>
                <text id="Small" fill="#000000" fill-rule="nonzero" font-family="Helvetica" font-size="13" font-weight="normal">
                    <tspan x="263" y="726">Small</tspan>
                </text>
                <text id="Medium" fill="#000000" fill-rule="nonzero" font-family="Helvetica" font-size="13" font-weight="normal">
                    <tspan x="263" y="1156">Medium</tspan>
                </text>
                <text id="Large" fill="#000000" fill-rule="nonzero" font-family="Helvetica" font-size="13" font-weight="normal">
                    <tspan x="263" y="1586">Large</tspan>
                </text>
            </g>
            <g id="Guides" transform="translate(263.000000, 625.041000)">
                <g id="H-reference" transform="translate(76.993347, 0.500000)" fill="#27AAE1" fill-rule="nonzero">
                    <path d="M0,70.459 L2.644353,70.459 L28.334853,3.3264 L29.036753,3.3264 L29.036753,0 L27.129353,0 L0,70.459 Z M10.694853,45.9793 L45.988453,45.9793 L45.237753,43.7302 L11.444853,43.7302 L10.694853,45.9793 Z M54.125953,70.459 L56.770353,70.459 L29.644753,0 L28.439353,0 L28.439353,3.3264 L54.125953,70.459 Z" id="Shape"></path>
                </g>
                <line x1="0" y1="70.959" x2="2773" y2="70.959" id="Baseline-S" stroke="#27AAE1" stroke-width="0.5"></line>
                <line x1="0" y1="0.5" x2="2773" y2="0.5" id="Capline-S" stroke="#27AAE1" stroke-width="0.5"></line>
                <g id="H-reference" transform="translate(76.993347, 430.500000)" fill="#27AAE1" fill-rule="nonzero">
                    <path d="M0,70.459 L2.644353,70.459 L28.334853,3.3264 L29.036753,3.3264 L29.036753,0 L27.129353,0 L0,70.459 Z M10.694853,45.9793 L45.988453,45.9793 L45.237753,43.7302 L11.444853,43.7302 L10.694853,45.9793 Z M54.125953,70.459 L56.770353,70.459 L29.644753,0 L28.439353,0 L28.439353,3.3264 L54.125953,70.459 Z" id="Shape"></path>
                </g>
                <line x1="0" y1="500.959" x2="2773" y2="500.959" id="Baseline-M" stroke="#27AAE1" stroke-width="0.5"></line>
                <line x1="0" y1="430.499" x2="2773" y2="430.499" id="Capline-M" stroke="#27AAE1" stroke-width="0.5"></line>
                <g id="H-reference" transform="translate(76.993347, 860.500000)" fill="#27AAE1" fill-rule="nonzero">
                    <path d="M0,70.459 L2.644353,70.459 L28.334853,3.3264 L29.036753,3.3264 L29.036753,0 L27.129353,0 L0,70.459 Z M10.694853,45.9793 L45.988453,45.9793 L45.237753,43.7302 L11.444853,43.7302 L10.694853,45.9793 Z M54.125953,70.459 L56.770353,70.459 L29.644753,0 L28.439353,0 L28.439353,3.3264 L54.125953,70.459 Z" id="Shape"></path>
                </g>
                <line x1="0" y1="930.959" x2="2773" y2="930.959" id="Baseline-L" stroke="#27AAE1" stroke-width="0.5"></line>
                <line x1="0" y1="860.499" x2="2773" y2="860.499" id="Capline-L" stroke="#27AAE1" stroke-width="0.5"></line>
                <line x1="1128.3" y1="405.749" x2="1128.3" y2="525.079" id="left-margin-Regular-M" stroke="#00AEEF" stroke-width="0.5"></line>
                <line x1="1245.39" y1="405.749" x2="1245.39" y2="525.079" id="right-margin-Regular-M" stroke="#00AEEF" stroke-width="0.5"></line>
            </g>
            <g id="Symbols" transform="translate(512.381230, 1037.474600)">
                <g id="Black-M" transform="translate(2367.679000, 0.000000)">
                    <path d="M53.32027,106.6406 C60.67707,106.6406 67.5781367,105.257133 74.02347,102.4902 C80.4687367,99.7233 86.1328033,95.8903067 91.01567,90.99122 C95.8984033,86.0921333 99.7314367,80.42806 102.51477,73.999 C105.298103,67.57 106.68977,60.6771 106.68977,53.3203 C106.68977,45.9635667 105.298103,39.0706667 102.51477,32.6416 C99.7314367,26.2126 95.8984033,20.5485333 91.01567,15.6494 C86.1328033,10.7503333 80.4687367,6.91733333 74.02347,4.1504 C67.5781367,1.38346667 60.67707,0 53.32027,0 C45.99607,0 39.1113033,1.38346667 32.66597,4.1504 C26.2207033,6.91733333 20.5485033,10.7503333 15.64937,15.6494 C10.7503033,20.5485333 6.91730333,26.2126 4.15037,32.6416 C1.38345667,39.0706667 0,45.9635667 0,53.3203 C0,60.6771 1.38345667,67.57 4.15037,73.999 C6.91730333,80.42806 10.7503033,86.0921333 15.64937,90.99122 C20.5485033,95.8903067 26.2207033,99.7233 32.66597,102.4902 C39.1113033,105.257133 45.99607,106.6406 53.32027,106.6406 Z" id="Combined-Shape" fill="#000000" fill-rule="nonzero"></path>
                    <g id="Group-2" transform="translate(15.250956, 14.912596)" stroke="#979797">
                        <path d="M0,1.52226949 C15.2400601,25.9601717 15.7490899,51.0164211 1.52708931,76.6910176" id="Path-2" stroke-width="2"></path>
                        <path d="" id="Path-3" stroke-width="6"></path>
                        <path d="M10.2054813,4.44323964 C6.75361881,3.9991668 4.24370155,4.30936102 2.67572952,5.3738223" id="Path-6" stroke-width="6"></path>
                        <line x1="15.2533185" y1="15.7175149" x2="6.60656437" y2="13.8597055" id="Path-8" stroke-width="6"></line>
                        <path d="M18.6422156,31.7788346 C14.0287802,29.2567925 11.4580222,27.9006491 10.9299414,27.7104043" id="Path-10" stroke-width="6"></path>
                        <path d="M18.7853322,49.6124402 C17.0979534,48.5844748 15.8556249,47.7498445 15.0583465,47.1085492 C14.261068,46.467254 13.2548133,45.4932239 12.0395822,44.1864591" id="Path-12" stroke-width="6"></path>
                        <path d="M14.0113868,64.9724669 C11.9954131,63.2241061 10.3729919,61.3684619 9.14412341,59.4055344" id="Path-14" stroke-width="6"></path>
                        <path d="M9.47658262,75.9212114 C7.33322572,74.1183609 5.82368121,72.2268834 4.94794909,70.2467791" id="Path-16" stroke-width="6"></path>
                        <path d="M2.67572952,12.1770674 C1.79360189,8.61277597 0.901692048,6.46756295 4.54747351e-13,5.74142835" id="Path-6" stroke-width="6" transform="translate(1.337865, 8.959248) scale(-1, 1) translate(-1.337865, -8.959248) "></path>
                        <line x1="6.60656437" y1="20.3476941" x2="2.76937817" y2="14.055048" id="Path-8" stroke-width="6" transform="translate(4.687971, 17.201371) scale(-1, 1) translate(-4.687971, -17.201371) "></line>
                        <path d="M11.0174328,33.914841 C7.82058787,30.1571791 5.95812503,28.1832258 5.43004427,27.992981 C4.90196351,27.8027363 6.76442636,29.7766896 11.0174328,33.914841 Z" id="Path-10" stroke-width="6" transform="translate(8.179993, 30.947640) scale(-1, 1) translate(-8.179993, -30.947640) "></path>
                        <path d="M12.0883029,49.6124402 C10.4009241,48.5844748 9.15859555,47.7498445 8.36131714,47.1085492 C7.56403873,46.467254 6.55778398,45.4932239 5.34255289,44.1864591" id="Path-12" stroke-width="6" transform="translate(8.715428, 46.899450) scale(-1, 1) translate(-8.715428, -46.899450) "></path>
                        <path d="M8.71542787,62.1890006 C6.34466154,62.5956116 4.54484411,61.8174533 3.31597557,59.8545258" id="Path-14" stroke-width="6" transform="translate(6.015702, 61.074094) scale(-1, 1) translate(-6.015702, -61.074094) "></path>
                        <path d="M5.52479991,69.9224694 C2.71733209,71.6627593 0.875732123,71.542852 4.54747351e-13,69.5627476" id="Path-16" stroke-width="6" transform="translate(2.762400, 70.353150) scale(-1, 1) translate(-2.762400, -70.353150) "></path>
                        <path d="M64.1852155,0 C79.4252757,24.4379023 79.9343054,49.4941516 65.7123049,75.1687481" id="Path-2" stroke-width="2" transform="translate(70.097720, 37.584374) scale(-1, -1) translate(-70.097720, -37.584374) "></path>
                        <path d="" id="Path-3" stroke-width="6" transform="translate(75.128368, 74.575179) scale(-1, -1) translate(-75.128368, -74.575179) "></path>
                        <path d="M73.3344956,71.5132804 C69.8826331,71.0692075 67.3727158,71.3794017 65.8047438,72.443863" id="Path-6" stroke-width="6" transform="translate(69.569620, 71.880529) scale(-1, -1) translate(-69.569620, -71.880529) "></path>
                        <line x1="69.4036607" y1="62.831312" x2="60.7569066" y2="60.9735027" id="Path-8" stroke-width="6" transform="translate(65.080284, 61.902407) scale(-1, -1) translate(-65.080284, -61.902407) "></line>
                        <path d="M65.0802837,48.9806133 C60.4668483,46.4585712 57.8960903,45.1024277 57.3680095,44.912183" id="Path-10" stroke-width="6" transform="translate(61.224147, 46.946398) scale(-1, -1) translate(-61.224147, -46.946398) "></path>
                        <path d="M63.9706429,32.5045585 C62.2832641,31.4765932 61.0409356,30.6419629 60.2436572,30.0006676 C59.4463787,29.3593723 58.440124,28.3853423 57.2248929,27.0785774" id="Path-12" stroke-width="6" transform="translate(60.597768, 29.791568) scale(-1, -1) translate(-60.597768, -29.791568) "></path>
                        <path d="M66.8661017,17.2854832 C64.8501279,15.5371223 63.2277068,13.6814782 61.9988382,11.7185507" id="Path-14" stroke-width="6" transform="translate(64.432470, 14.502017) scale(-1, -1) translate(-64.432470, -14.502017) "></path>
                        <path d="M71.062276,6.44423852 C68.9189191,4.64138798 67.4093746,2.74991053 66.5336425,0.76980615" id="Path-16" stroke-width="6" transform="translate(68.797959, 3.607022) scale(-1, -1) translate(-68.797959, -3.607022) "></path>
                        <path d="M76.0102251,70.9495892 C75.1280974,67.3852978 74.2361876,65.2400848 73.3344956,64.5139502" id="Path-6" stroke-width="6" transform="translate(74.672360, 67.731770) scale(1, -1) translate(-74.672360, -67.731770) "></path>
                        <line x1="73.2408469" y1="62.6359696" x2="69.4036607" y2="56.3433235" id="Path-8" stroke-width="6" transform="translate(71.322254, 59.489647) scale(1, -1) translate(-71.322254, -59.489647) "></line>
                        <path d="M70.6676722,48.7105792 C67.4708273,44.9529173 65.6083644,42.978964 65.0802837,42.7887192 C64.5522029,42.5984745 66.4146657,44.5724278 70.6676722,48.7105792 Z" id="Path-10" stroke-width="6" transform="translate(67.830232, 45.743378) scale(1, -1) translate(-67.830232, -45.743378) "></path>
                        <path d="M70.6676722,32.5045585 C68.9802935,31.4765932 67.7379649,30.6419629 66.9406865,30.0006676 C66.1434081,29.3593723 65.1371533,28.3853423 63.9219222,27.0785774" id="Path-12" stroke-width="6" transform="translate(67.294797, 29.791568) scale(1, -1) translate(-67.294797, -29.791568) "></path>
                        <path d="M72.6942495,16.7318306 C70.3234832,17.1384415 68.5236657,16.3602832 67.2947972,14.3973557" id="Path-14" stroke-width="6" transform="translate(69.994523, 15.616924) scale(1, -1) translate(-69.994523, -15.616924) "></path>
                        <path d="M76.0102251,5.90718614 C73.2027573,7.64747598 71.3611573,7.52756871 70.4854252,5.54746434" id="Path-16" stroke-width="6" transform="translate(73.247825, 6.337867) scale(1, -1) translate(-73.247825, -6.337867) "></path>
                    </g>
                </g>
                <g id="Regular-M" transform="translate(887.659000, 3.466800)" fill="#000000" fill-rule="nonzero">
                    <path d="M49.75587,0 C56.55927,0 62.9720367,1.3021 68.99417,3.9063 C75.0163033,6.51043333 80.32227,10.1074333 84.91207,14.6973 C89.50187,19.2871 93.09877,24.5849333 95.70277,30.5908 C98.3074367,36.5966667 99.60977,43.0013 99.60977,49.8047 C99.60977,56.6081 98.3074367,63.0127333 95.70277,69.0186 C93.09877,75.0244333 89.50187,80.322272 84.91207,84.912116 C80.32227,89.5019587 75.0244367,93.0989533 69.01857,95.7031 C63.0127033,98.3073 56.60807,99.6094 49.80467,99.6094 C43.00127,99.6094 36.59667,98.3073 30.59087,95.7031 C24.5850033,93.0989533 19.2871367,89.5019587 14.69727,84.912116 C10.1074033,80.322272 6.51040333,75.0244333 3.90627,69.0186 C1.30209,63.0127333 0,56.6081 0,49.8047 C0,43.0013 1.30209,36.5966667 3.90627,30.5908 C6.51040333,24.5849333 10.09927,19.2871 14.67287,14.6973 C19.2464033,10.1074333 24.5361033,6.51043333 30.54197,3.9063 C36.5478367,1.3021 42.95247,0 49.75587,0 Z M21.1497869,13.0728662 C20.8741817,13.0257665 20.5891604,13.0961156 20.3659075,13.2704704 L20.3659075,13.2704704 L16.5292275,16.2656001 C16.3449164,16.3023924 16.1700102,16.3910617 16.0283492,16.5291474 L16.0283492,16.5291474 L15.9495673,16.615398 L13.3585277,19.8028636 L13.2914253,19.8958325 L13.2914253,19.8958325 L13.235488,19.9957029 L13.1912683,20.1014884 L12.6199276,21.7239745 L12.587538,21.8362093 C12.4768339,22.3244994 12.747287,22.8290123 13.2310079,22.9993493 C13.5650647,23.1169837 13.9197135,23.0466752 14.1795455,22.8437203 L14.1795455,22.8437203 L14.1791997,24.2198189 L16.1094737,24.2180384 C16.0330808,24.4746037 15.9570556,24.7417555 15.8812716,25.0195931 L15.8812716,25.0195931 L15.6931532,25.7329316 L15.599332,26.1062424 L17.5308826,26.5842 L17.2636984,27.0947632 L17.2136051,27.2058797 L17.2136051,27.2058797 L17.177456,27.3220466 L17.1556545,27.4419671 L16.9442324,29.2124195 L18.9301227,29.4495686 L19.1197649,27.862 L20.0860222,26.0279727 C20.3932112,26.6966854 20.6880593,27.3658684 20.9705666,28.0355263 L20.9705666,28.0355263 L17.8538984,33.1460813 L19.5614658,34.1873371 L21.8992422,30.3556248 C22.376962,31.617049 22.8110363,32.8801704 23.2014648,34.145018 L23.2014648,34.145018 L19.2761651,38.498171 L20.7616167,39.8373623 L23.8533733,36.4096604 C24.1779266,37.6248316 24.4623263,38.841607 24.7055438,40.0597237 C24.6766469,40.0840601 24.647168,40.1092846 24.6170977,40.1354049 L24.6170977,40.1354049 L24.3975946,40.3322707 L24.1582041,40.5587866 L23.8982262,40.8155345 L23.4681279,41.2586146 L22.8160776,41.9606315 L22.0690837,42.7940513 L21.2215486,43.7635293 L20.0122162,45.1738008 L21.471235,46.5385007 L23.2072145,44.8372264 L24.1663687,43.8822873 L24.9673451,43.0703517 L25.1933077,42.8370503 C25.4355011,44.4502692 25.6075872,46.0663681 25.7095647,47.6854064 L25.7095647,47.6854064 L20.9589946,51.5734885 L22.2257378,53.121184 L25.811289,50.1865917 C25.8393568,51.7123447 25.8053951,53.2407255 25.709403,54.7717835 L25.709403,54.7717835 L25.5987946,54.8878446 L25.4753561,55.0162268 L25.4753561,55.0162268 L25.3539092,55.1415058 L24.8881243,55.6115399 L24.7767002,55.7212658 L24.7767002,55.7212658 L24.6672934,55.8278737 L24.2499267,56.2230765 L23.8651823,56.5681956 L23.6851294,56.7219247 L23.6851294,56.7219247 L23.5133352,56.8630741 L23.3627269,56.9820232 L23.0242037,57.2367563 L22.9318172,57.3039306 L22.9318172,57.3039306 L22.8363342,57.3724956 L22.4234925,57.660608 L21.961332,57.9707498 L21.8381071,58.0517064 L21.8381071,58.0517064 L21.7118139,58.1340259 L20.88978,58.6564073 L20.2807514,59.0315656 L21.3212843,60.7395736 L21.9592223,60.3465351 L22.5482869,59.9744225 L23.0886597,59.6230571 L23.5805219,59.2922604 L24.0240551,58.9818536 L24.1274082,58.9074169 L24.1274082,58.9074169 L24.227755,58.8342406 L24.5991346,58.5540837 L24.6844919,58.4871676 L24.6844919,58.4871676 L24.7668598,58.4214951 C24.9751577,58.2539496 25.1967029,58.064215 25.4331587,57.8508059 C25.2725692,59.2271772 25.0620853,60.6057286 24.8017064,61.9864957 L24.8017064,61.9864957 L24.6023743,61.8491201 L24.475003,62.0198857 C24.0245507,62.5856465 23.3174824,63.1160758 22.4197282,63.5886062 C21.7830466,63.9237218 21.093451,64.2081334 20.4030414,64.4404489 L20.4030414,64.4404489 L20.0739197,64.5474142 L19.7990105,64.630276 L19.5853686,64.68921 L19.5037275,64.709759 L19.9733412,66.6538431 L20.200111,66.59502 L20.6618191,66.4590691 L21.0408786,66.3360131 L21.5114436,66.1703446 C22.1380075,65.9397439 22.7591732,65.6700654 23.3512646,65.3584197 C23.6437125,65.2044906 23.9223819,65.0439355 24.1851751,64.8742377 C23.8662539,66.212182 23.500694,67.5522206 23.0884949,68.8943859 L23.0884949,68.8943859 L22.5087021,68.5310233 L22.3859965,68.718239 C21.5541982,69.9295898 20.4447249,70.4067225 18.9104679,70.2015779 L18.9104679,70.2015779 L18.6878713,70.1675482 L18.3497871,72.1387658 L18.6411654,72.1832298 C19.9901941,72.3631987 21.1881494,72.1579904 22.203243,71.5777841 C21.954777,72.2823828 21.6935116,72.9875711 21.4194469,73.6933535 L21.4194469,73.6933535 L21.0986867,73.5344797 L21.0367228,73.6488073 C20.5337784,74.5015154 19.3862376,74.8049291 17.3755376,74.434338 L17.3755376,74.434338 L17.1083594,74.3821674 L16.7051164,76.3410944 L17.0491572,76.407461 C18.2962591,76.631493 19.3845627,76.6427407 20.2941074,76.4295741 C20.1596789,76.7391847 20.0227981,77.0489103 19.8740847,77.3549678 L19.8740847,77.3549678 L19.8222466,77.4646092 C19.3400639,78.4179787 18.4292521,78.4663825 16.5755913,77.3595256 L16.5755913,77.3595256 L16.3657229,77.2317746 L15.3119923,78.9316723 L15.609045,79.1103605 C16.690328,79.7406797 17.6836333,80.0969251 18.5570822,80.1628796 C18.4712408,80.3358511 18.3846386,80.5088587 18.2958785,80.6807118 L18.2958785,80.6807118 L18.2449958,80.7453654 C17.9626083,81.0667665 17.5003792,81.0082669 16.6838218,80.3200591 L16.6838218,80.3200591 L16.424873,80.0915363 L16.3566073,80.0281787 L16.3566073,80.0281787 L16.2868963,79.9622818 L15.9932603,79.672816 L15.9160685,79.5938586 L15.9160685,79.5938586 L15.8373298,79.5122164 L15.6751435,79.3407802 L14.2140005,80.7064526 L14.4371714,80.940078 C15.4011596,81.926821 16.3240736,82.5789229 17.1684697,82.8415491 C17.0208462,83.1146889 16.8713336,83.3879194 16.7199319,83.6612408 L16.7199319,83.6612408 L18.4694504,84.6303564 L18.8529367,83.9309568 L19.1200849,83.4315346 C19.9505234,85.1778801 21.0693033,86.4986309 22.4817125,87.3739996 L22.4817125,87.3739996 L23.5353093,85.6740191 L23.3113652,85.5278607 C21.985351,84.6176147 20.9772393,83.107311 20.2976241,80.9573055 L20.306,80.984 L20.3370289,81.0750487 C20.389498,80.969391 20.4416912,80.8637435 20.4935297,80.7582317 L20.6479023,80.4422288 C21.4954776,81.755774 22.6387645,83.0149251 24.0730975,84.2213914 L24.0730975,84.2213914 L25.360499,82.6908369 L25.0058014,82.3855862 C23.3848914,80.9577834 22.2445622,79.4838759 21.5740562,77.967805 L21.639,78.107 L21.6902441,78.2167794 C21.8302238,77.9058816 21.9678064,77.5950726 22.1028176,77.2843379 L22.4999627,76.3523424 C23.4187926,77.5486772 24.7314807,78.8521431 26.4391954,80.276706 L26.4391954,80.276706 L27.7203428,78.7409126 L27.3940794,78.4659799 C25.4134478,76.7796015 24.0809029,75.318164 23.400907,74.1124969 C23.8380752,72.9718799 24.242814,71.8324853 24.6125181,70.6954488 C25.5938842,71.9878309 26.7649709,73.2233885 28.1244345,74.4023886 L28.1244345,74.4023886 L29.4348021,72.8914495 L29.0085711,72.5138045 C27.4720988,71.1226745 26.2256666,69.6608133 25.2665439,68.128763 L25.2665439,68.128763 L25.3591579,68.2717364 C25.747104,66.9204749 26.0891963,65.5709852 26.3836903,64.2233067 C27.4119087,65.367402 28.7245586,66.5435453 30.3215954,67.7564059 L30.3215954,67.7564059 L31.5312009,66.1636553 L31.1352244,65.8589397 C29.1893946,64.3412726 27.7543579,62.9125292 26.8300042,61.5842319 L26.8300042,61.5842319 L26.892273,61.6695876 C27.1680894,60.1121389 27.3824576,58.5571306 27.5353768,57.0046095 L27.5353768,57.0046095 L27.5833429,57.0534794 C28.1468453,57.6102133 28.6486921,58.0658448 29.0908477,58.4214951 C29.1447638,58.4648628 29.200671,58.5090578 29.2585729,58.5540837 L29.2585729,58.5540837 L29.6299525,58.8342406 C29.6958489,58.8826053 29.7637476,58.9318084 29.8336524,58.9818536 L29.8336524,58.9818536 L30.2771856,59.2922604 L30.7690478,59.6230571 L31.3094206,59.9744225 L31.8984852,60.3465351 L32.5364232,60.7395736 L33.5769561,59.0315656 L32.9679275,58.6564073 L32.1458936,58.1340259 C32.060676,58.0786926 31.9775021,58.024266 31.8963755,57.9707498 L31.8963755,57.9707498 L31.434215,57.660608 L31.0213733,57.3724956 C30.9566864,57.3263226 30.8940619,57.2810749 30.8335038,57.2367563 L30.8335038,57.2367563 L30.4949806,56.9820232 L30.3443723,56.8630741 C30.2326034,56.7731721 30.1153057,56.6748706 29.9925252,56.5681956 L29.9925252,56.5681956 L29.6077808,56.2230765 L29.1904141,55.8278737 C29.1181497,55.7578416 29.0445375,55.6857293 28.9695832,55.6115399 L28.9695832,55.6115399 L28.5037983,55.1415058 C28.4234985,55.0590214 28.3418682,54.9744666 28.2589129,54.8878446 L28.2589129,54.8878446 L27.7453284,54.3433321 L27.7369884,54.3519651 C27.8261292,52.6848312 27.8441519,51.0206067 27.7910554,49.3593498 L27.7910554,49.3593498 L33.0560332,52.7052906 L34.1286992,51.0172777 L27.6608544,46.9070124 C27.5364521,45.2318158 27.3394753,43.559677 27.0699228,41.8906558 L27.0699228,41.8906558 L27.283299,42.0017407 L29.0470173,42.9397013 L32.4487926,44.785538 L33.4081448,43.0306468 L32.389931,42.4749285 L29.8195407,41.0838866 L28.3107037,40.2825594 L27.349372,39.7864887 L26.7768304,39.504949 L26.619943,39.4323028 C26.3361355,38.0453019 26.0020212,36.6604825 25.6175995,35.2778793 L25.6175995,35.2778793 L31.2696103,37.1573435 L31.9007002,35.2595223 L24.918312,32.9380147 C24.518045,31.6860572 24.076378,30.4359397 23.5933106,29.1876879 L23.5933106,29.1876879 L29.6822269,30.4961288 L30.1023517,28.5407528 L22.6807948,26.9468738 C22.2988749,26.0534785 21.8956711,25.1610504 21.471183,24.269599 L21.471183,24.269599 L26.79,24.326 L27.0340664,24.5446953 L28.3671397,23.0537508 L27.8431989,22.5852884 L27.7487237,22.5105471 C27.5846442,22.3961064 27.3891323,22.3329549 27.1872531,22.3308168 L27.1872531,22.3308168 L20.4771646,22.2596301 C20.2257,21.7693917 19.9677771,21.2794519 19.7027499,20.7889537 C20.9086569,20.233411 22.7564389,20.0896314 25.2422371,20.4094226 L25.2422371,20.4094226 L25.4974287,18.4257701 L25.1040266,18.3781635 C22.4003467,18.0720864 20.2763852,18.2764738 18.7288219,19.0373155 L18.7288219,19.0373155 L18.562097,18.7473433 L22.604,17.056 L23.5156208,17.4848577 L24.3676852,15.6754417 L23.3800042,15.2116886 C23.4731139,15.1062599 23.5453512,14.9794091 23.5881797,14.8357515 C23.7459688,14.3064869 23.4448284,13.7495198 22.9155638,13.5917307 L22.9155638,13.5917307 L21.2671193,13.1002816 Z M77.6437244,12.7572 L76.5901276,14.4571805 L76.8140717,14.6033389 C78.1400859,15.5135849 79.1481976,17.0238887 79.8278128,19.1738941 L79.8278128,19.1738941 L80.0518826,19.1022 L79.7631205,19.7063981 C78.9038447,18.3186434 77.7170573,16.9911811 76.20819,15.7220214 L76.20819,15.7220214 L74.9207884,17.2525759 L75.275486,17.5578265 C76.7876173,18.88981 77.8815067,20.2619177 78.5650143,21.6702643 L78.5650143,21.6702643 L78.5471709,21.7061465 L78.4612681,21.8902622 L78.7107423,22.0017025 C78.4516616,22.5916297 78.2012188,23.1812361 77.9611937,23.7712534 C77.0372892,22.5156661 75.6700135,21.1404188 73.857971,19.6288263 L73.857971,19.6288263 L72.5768235,21.1646197 L72.9030869,21.4395524 C75.0404435,23.2593718 76.4230908,24.8172433 77.0477953,26.0745089 L77.0477953,26.0745089 L77.0596375,26.0685043 C76.6514614,27.1635835 76.2732011,28.2575318 75.9255613,29.3503453 C74.908723,27.9713317 73.6780949,26.6563424 72.2352831,25.4050584 L72.2352831,25.4050584 L70.9249155,26.9159975 L71.3511465,27.2936425 C72.8876189,28.6847725 74.134051,30.1466337 75.0931737,31.6786839 L75.0931737,31.6786839 L75.2560177,31.5770489 C74.8522774,33.0089939 74.5000508,34.4389459 74.2011621,35.8670491 C73.138913,34.6342377 71.7433505,33.3643227 70.0145313,32.0513806 L70.0145313,32.0513806 L68.8049258,33.6441313 L69.2009024,33.9488469 C71.1467321,35.466514 72.5817688,36.8952574 73.5061226,38.2235547 L73.5061226,38.2235547 L73.7827674,38.0309372 C73.4896218,39.7121144 73.2680912,41.3904457 73.1181765,43.065872 L73.1181765,43.065872 L72.7567712,42.7021394 C72.1932689,42.1454055 71.6914221,41.689774 71.2492664,41.3341237 C71.0875182,41.2040206 70.9078506,41.0664723 70.7101616,40.9213782 L70.7101616,40.9213782 L70.290725,40.6210994 C70.2168041,40.5693661 70.1408732,40.5167871 70.0629286,40.4633584 L70.0629286,40.4633584 L69.5710664,40.1325617 L69.0306936,39.7811963 L68.4416289,39.4090837 L67.8036909,39.0160452 L66.7631581,40.7240532 L67.3721867,41.0992115 L67.9324407,41.4528763 L68.4437387,41.784869 L68.9058992,42.0950108 L69.3187408,42.3831232 C69.4481147,42.4754692 69.5692386,42.5641139 69.6820822,42.6490274 L69.6820822,42.6490274 L69.9957419,42.8925447 C70.1633953,43.0273977 70.3434883,43.1811497 70.5358662,43.3537125 L70.5358662,43.3537125 L70.9369561,43.7238931 C71.0760822,43.8556295 71.2206224,43.9957002 71.370531,44.1440789 L71.370531,44.1440789 L71.8363159,44.614113 C71.9166156,44.6965974 71.998246,44.7811522 72.0812012,44.8677742 L72.0812012,44.8677742 L72.5947858,45.4122867 L72.9734859,45.0600016 C72.8757457,46.8174575 72.8570245,48.5716824 72.9173235,50.3226081 L72.9173235,50.3226081 L67.496103,46.8773188 L66.423437,48.5653317 L73.053986,52.779783 C73.1784125,54.3991828 73.3706743,56.015723 73.6307722,57.6293492 L73.6307722,57.6293492 L72.2535011,56.9050303 L68.2440863,54.7337066 L67.2847341,56.4885978 L67.6332286,56.6790098 L70.6231205,58.301013 L72.3821752,59.2366852 L73.3435069,59.7327559 L73.9160485,60.0142956 L74.0801815,60.0887085 C74.3718768,61.5163441 74.7168684,62.9416687 75.115157,64.3646445 L75.115157,64.3646445 L69.282526,62.4252658 L68.651436,64.3230871 L75.8195733,66.7069125 C76.2198122,67.951349 76.6609621,69.1939667 77.1430234,70.43474 L77.1430234,70.43474 L70.8699094,69.0864805 L70.4497846,71.0418565 L78.0600338,72.6780607 C78.3998057,73.4699441 78.756302,74.2610672 79.1295228,75.0514234 L79.1295228,75.0514234 L74.4182402,75.0017852 L74.1740157,74.7834424 L72.8409424,76.2743869 L73.3648832,76.7428493 L73.4593584,76.8175906 C73.6234378,76.9320313 73.8189498,76.9951828 74.020829,76.9973209 L74.020829,76.9973209 L80.1160907,77.0624243 C80.3440266,77.5102496 80.5773498,77.957826 80.8160602,78.4051524 L80.8160602,78.4051524 L80.7761105,78.4309758 C79.592814,79.1408127 77.6243118,79.3539529 74.87582,79.0003668 L74.87582,79.0003668 L74.6206284,80.9840193 L75.0140305,81.0316259 C77.9541551,81.3644703 80.2087314,81.093663 81.7801042,80.1586344 C81.8729514,80.3226859 81.9665252,80.4867035 82.0608258,80.6506871 L82.0608258,80.6506871 L77.9871891,82.3554071 L77.0767001,81.9263147 L76.2246358,83.7357307 L77.3065867,84.2446742 C77.1484697,84.3680552 77.0258392,84.5400532 76.9641745,84.7468923 C76.8063854,85.2761569 77.1075258,85.833124 77.6367904,85.9909131 L77.6367904,85.9909131 L79.2852349,86.4823622 L79.4025674,86.5097776 C79.6781725,86.5568772 79.9631939,86.4865282 80.1864467,86.3121734 L80.1864467,86.3121734 L84.0234071,83.3172194 C84.2076219,83.2803954 84.3824294,83.1917447 84.5240232,83.0537245 L84.5240232,83.0537245 L84.6028051,82.9674739 L85.1098826,82.3422 L85.3255805,82.2082072 L85.2788826,82.1342 L87.1938448,79.7800084 L87.2609471,79.6870394 L87.2609471,79.6870394 L87.3168844,79.587169 L87.3611041,79.4813835 L87.9324449,77.8588974 L87.9648345,77.7466626 C88.0755385,77.2583725 87.8050854,76.7538597 87.3213646,76.5835226 C87.168393,76.5296554 87.0111035,76.5151982 86.8605778,76.5348413 L86.8605778,76.5348413 L86.8606983,75.1943825 L84.8606983,75.1943825 L84.8605152,76.7561707 L83.4953005,79.1287872 C83.3888351,78.9404035 83.2833568,78.7519832 83.1797744,78.5641219 C83.7708877,77.7444066 84.3060875,76.4646788 84.8252543,74.6936519 L84.8252543,74.6936519 L85.0143678,74.024408 L85.2024861,73.3110695 L85.2963073,72.9377587 L83.3548813,72.4572746 L83.2730047,72.7831261 L83.1092947,73.4053281 L82.9460028,73.9879124 L82.7835617,74.5305395 L82.6224041,75.0328699 L82.582366,75.1521164 L82.582366,75.1521164 L82.5424419,75.2688178 L82.3840211,75.7100668 L82.2279656,76.1101704 L82.1356477,76.3303416 L82.0665318,76.4836942 C81.9074344,76.1748919 81.7509795,75.8659902 81.5971672,75.5569888 L81.5971672,75.5569888 L83.3964817,72.1406422 L83.446575,72.0295256 L83.446575,72.0295256 L83.4827241,71.9133587 L83.5045255,71.7934382 L83.7159477,70.0229858 L81.7300574,69.7858367 L81.54,71.3725397 L80.5233479,73.3040445 C80.2316282,72.6636318 79.9512237,72.0227873 79.6821343,71.3815073 L79.6821343,71.3815073 L82.6982378,66.436528 L80.9906704,65.3952722 L78.7564158,69.0553975 C78.2861762,67.805952 77.8587493,66.5548408 77.4741356,65.3020357 L77.4741356,65.3020357 L81.2759711,61.0844384 L79.7905195,59.7452471 L76.8250938,63.0339421 C76.4665495,61.6827544 76.1576442,60.3295829 75.8983783,58.9743919 L75.8983783,58.9743919 L76.0325394,58.851865 L76.2821362,58.6103058 L76.6960069,58.1905545 L76.9992583,57.8715966 L77.325196,57.5206609 L77.85817,56.9330259 L78.4461241,56.2701675 L79.0914198,55.5301217 L80.3007523,54.1198502 L78.8417335,52.7551503 L77.1057539,54.4564246 L76.1465998,55.4113637 L75.4287819,56.1390345 C75.2108074,54.5818834 75.0580978,53.022045 74.9706539,51.4594657 L74.9706539,51.4594657 L79.4444418,47.7982377 L78.1776985,46.2505421 L74.8862843,48.9434051 C74.8701513,47.4959631 74.9098096,46.0461536 75.0052598,44.5939345 L75.0052598,44.5939345 L75.4519899,44.1440789 L75.6728207,43.9277451 L75.6728207,43.9277451 L75.8855647,43.7238931 L76.2866547,43.3537125 L76.4749319,43.1874232 C76.5977124,43.0807482 76.71501,42.9824467 76.826779,42.8925447 L76.826779,42.8925447 L77.1404387,42.6490274 L77.3159105,42.5188625 L77.3159105,42.5188625 L77.50378,42.3831232 L77.9166217,42.0950108 L78.3787822,41.784869 L78.8900801,41.4528763 L79.4503341,41.0992115 L80.0593628,40.7240532 L79.0188299,39.0160452 L78.3808919,39.4090837 L77.7918272,39.7811963 L77.2514545,40.1325617 L76.7595922,40.4633584 L76.6441852,40.5428647 L76.6441852,40.5428647 L76.5317959,40.6210994 L76.1123592,40.9213782 L75.9206736,41.0639607 C75.7968829,41.1573439 75.6810866,41.2473883 75.5732544,41.3341237 L75.5732544,41.3341237 L75.3800988,41.4926698 L75.2838046,41.5736328 C75.444027,40.2233638 75.6522611,38.8709961 75.9076801,37.5164029 C76.3345801,37.1174409 76.8894334,36.740641 77.5464026,36.3948471 C78.1830843,36.0597315 78.8726799,35.7753199 79.5630894,35.5430044 L79.5630894,35.5430044 L79.733986,35.4864979 L80.0368833,35.3916062 L80.2820406,35.3207303 L80.4624034,35.2736943 L79.9927896,33.3296103 L79.7660199,33.3884334 L79.4733036,33.4726352 L79.1213484,33.5826351 L79.0248896,33.6142151 L79.0248896,33.6142151 L78.9252523,33.6474402 C78.1405234,33.9114931 77.3549805,34.2354765 76.6148662,34.6250336 L76.6148662,34.6250336 L76.5148523,34.6787656 C76.7656861,33.6253238 77.0454336,32.5705836 77.3540949,31.5145293 L77.3540949,31.5145293 L77.3648738,31.5204807 L77.4875794,31.333265 C78.3193777,30.1219143 79.4288511,29.6447815 80.9631081,29.8499261 L80.9631081,29.8499261 L81.1857046,29.8839559 L81.5237889,27.9127382 L81.1867763,27.8623264 C80.185005,27.7348235 79.2670925,27.8207691 78.4455305,28.116284 C78.6879387,27.4236804 78.9427172,26.7305073 79.2094033,26.0362559 C79.8260223,25.5385522 80.880236,25.4058101 82.4826765,25.7011551 L82.4826765,25.7011551 L82.7498547,25.7533256 L83.1530977,23.7943986 L82.7884421,23.7243472 C81.8277967,23.5533552 80.9616803,23.5091131 80.1990419,23.5977445 C80.4283255,23.0595265 80.6650258,22.5209613 80.908827,21.9811385 C81.4296593,21.7261731 82.20598,21.9004276 83.3867522,22.5764094 L83.3867522,22.5764094 L83.7987291,22.8224031 L84.8524596,21.1225054 L84.5586383,20.9457018 C83.5862674,20.3784752 82.685005,20.0328399 81.8781226,19.9209186 C82.0052137,19.6600763 82.1340366,19.3991518 82.2656219,19.137157 C82.5666277,18.8544655 83.056374,18.9645002 83.9095302,19.7173305 L83.9095302,19.7173305 L84.1797702,19.9657793 L84.3235959,20.1052881 L84.3235959,20.1052881 L84.4734062,20.2552452 L84.791523,20.587281 L86.252666,19.2216085 L86.0313607,18.9898929 C85.0754063,18.0109951 84.1598592,17.3611076 83.3217858,17.0935986 C83.5382488,16.688188 83.7588761,16.2825779 83.9836678,15.8767674 L83.9836678,15.8767674 L82.2341494,14.9076517 L81.850663,15.6070513 C81.6043736,16.0608899 81.363157,16.5145453 81.128597,16.9666838 C80.2868298,15.0874477 79.127248,13.6766434 77.6437244,12.7572 L77.6437244,12.7572 Z M80.6628826,83.4022 L79.363014,84.4186428 L78.7038826,84.2222 L80.6628826,83.4022 Z M18.6277972,23.0363256 C18.7559129,23.2848301 18.8823172,23.5333988 19.0070102,23.7820322 L19.0070102,23.7820322 L17.5488826,26.5512 L17.7045149,25.944843 L17.8680699,25.3424074 L17.9088765,25.1980021 L17.9088765,25.1980021 L17.9496366,25.0560887 L18.1120777,24.5134616 L18.2732353,24.0111312 L18.4326765,23.5494369 L18.472218,23.4404024 L18.472218,23.4404024 L18.5116183,23.3339343 Z M17.3393569,20.6420266 C17.3810075,20.7163039 17.4225048,20.7905868 17.463272,20.8636847 C17.0109213,21.6124915 16.589526,22.64799 16.17975,23.9853495 L16.17975,23.9853495 L16.1789725,22.6589446 Z M21.19,15.164 L21.6318826,15.2952 L20.3158826,15.8462 L21.19,15.164 Z" id="Combined-Shape"></path>
                </g>
                <g id="Ultralight-M" transform="translate(0.000000, 5.964700)">
                    <path d="M47.30377,0 C53.8345033,0 59.9520033,1.2263 65.65627,3.6789 C70.9921182,5.97309523 75.7344842,9.09640986 79.8833678,13.0488439 L79.592611,13.5802473 C79.2540564,14.2040814 78.9251521,14.8275388 78.6058581,15.4503903 C77.7839347,13.2299997 76.573986,11.6145115 74.9713788,10.6212638 L74.9713788,10.6212638 L74.4445804,11.471254 L74.6856489,11.6284904 C76.1123461,12.6066912 77.1841006,14.2113413 77.8956153,16.4622628 L77.8956153,16.4622628 L78.1332188,16.3870374 C77.8311435,16.9946381 77.5382561,17.6018783 77.2561623,18.2089735 C76.4134108,16.6134242 75.1263723,15.0901802 73.3994679,13.637622 L73.3994679,13.637622 L72.7557671,14.4028993 L73.0989458,14.6978559 C74.7820311,16.1765194 75.9731102,17.7133441 76.6776344,19.3063329 L76.6,19.14 L76.5806851,19.0983581 C76.5449762,19.1537962 76.5103036,19.2112105 76.4766774,19.270606 L76.3789482,19.454741 L76.2962468,19.6310201 L76.5553273,19.7458125 C76.1851009,20.5827779 75.8323856,21.4190512 75.4983448,22.2548121 C74.630121,20.8773201 73.1453489,19.3185468 71.042873,17.5646769 L71.042873,17.5646769 L70.4022992,18.3325736 L70.7354525,18.6133338 C72.8030151,20.3740078 74.1882116,21.9053425 74.8893881,23.1909209 C74.8882166,23.1929768 74.8870469,23.1950346 74.8858788,23.1970943 L74.8858788,23.1970943 L74.7939159,23.3702342 L75.0172213,23.4819618 C74.4504224,24.9698344 73.9392373,26.4554917 73.4844002,27.9388478 C72.405278,26.3378883 71.0372506,24.8196035 69.3816044,23.3837381 L69.3816044,23.3837381 L68.7264206,24.1392076 L69.1616321,24.5248302 C70.7307531,25.9456666 72.0067167,27.4422512 72.9908881,29.0143129 L72.9908881,29.0143129 L73.2012403,28.8826896 C72.6967397,30.6140577 72.2680952,32.3423705 71.9153075,34.0675957 L71.9153075,34.0675957 L71.8589347,34.3464585 C71.8415851,34.3662132 71.8244256,34.3860416 71.8098854,34.4065685 C70.7292153,33.0151668 69.1918512,31.5646851 67.1978386,30.0503434 L67.1978386,30.0503434 L66.5930358,30.8467187 L66.996192,31.1569805 C68.9777778,32.702747 70.4464413,34.1652508 71.4022374,35.5387308 L71.4022374,35.5387308 L71.6661317,35.3544126 C71.2903802,37.4102023 71.0225321,39.4615885 70.8625885,41.5085161 L70.8625885,41.5085161 L70.8530447,41.6488999 L70.8414277,41.6600215 C70.6849435,41.4947379 70.5324671,41.3358943 70.3839827,41.1834816 L70.3839827,41.1834816 L69.8939261,40.6894832 L69.434571,40.2450867 C69.2125459,40.0352757 69.0019824,39.844036 68.802803,39.6713234 L68.802803,39.6713234 L68.4196002,39.350588 L68.0806209,39.0870864 L67.6932465,38.8029637 L67.2573862,38.4981305 L66.7729494,38.1724975 L66.2398453,37.8259753 L65.6579833,37.4584747 L65.0272727,37.0699062 L64.5070062,37.9239102 L64.8212285,38.1163878 L65.4130961,38.4853515 L65.9561191,38.832919 L66.4502068,39.1590008 L66.8952683,39.4635078 L67.2912131,39.7463504 L67.6379505,40.0074395 L67.792838,40.1297985 C68.1967703,40.4547037 68.6664204,40.8817754 69.200806,41.410453 L69.200806,41.410453 L69.6746815,41.8884752 C69.7562953,41.9722884 69.8392246,42.0581719 69.9234664,42.1461241 L69.9234664,42.1461241 L70.444645,42.6986484 L70.8018738,42.3661196 C70.6707596,44.4325882 70.6497541,46.4944994 70.7388582,48.5517963 L70.7388582,48.5517963 L70.4923848,48.7532638 L64.6056404,45.0126857 L64.0693074,45.8566922 L70.8305679,50.1538412 C70.9718404,52.1381221 71.2157852,54.1180866 71.5624031,56.0936839 L71.5624031,56.0936839 L71.5573201,56.1022478 C71.5269354,56.1428639 71.4999976,56.1803566 71.476262,56.2159536 L71.476262,56.2159536 L71.3187947,56.1362696 L70.5252071,55.7263923 L67.926152,54.3393347 L65.3115808,52.9174755 L64.8319047,53.7949211 L65.1859627,53.9883679 L68.4710847,55.7686265 L69.9870486,56.5731814 L70.8004506,56.9935395 L71.3918993,57.286543 L71.6411748,57.4016731 L71.8118538,57.4715901 L71.8176065,57.4548638 C72.167552,59.2086556 72.5985751,60.9589894 73.1106764,62.7058294 L73.1106764,62.7058294 L73.0373848,62.7862638 L66.5024574,60.6130849 L66.1869124,61.5619955 L73.5035025,63.994918 C74.0124537,65.6039134 74.590328,67.2099312 75.2371259,68.8129434 L75.2371259,68.8129434 L68.1425821,67.2886883 L67.9325197,68.2663763 L75.6793164,69.9308241 L75.685093,69.8966719 C76.1806015,71.0674389 76.7129374,72.2365965 77.2821009,73.4041337 L77.2821009,73.4041337 L71.2752012,73.3407847 L70.8904784,72.9967781 L70.2239417,73.7422503 L70.7478825,74.2107127 L70.820191,74.2644753 C70.8967429,74.3113138 70.9850098,74.3369864 71.0758554,74.3379485 L71.0758554,74.3379485 L77.7811005,74.4086852 C78.271188,75.3772485 78.7866607,76.3446927 79.3275188,77.3110116 L79.3275188,77.3110116 L78.8081826,76.5445937 L78.6432982,76.6503532 C77.3451994,77.4368703 75.2654809,77.6638529 72.4067656,77.2960869 L72.4067656,77.2960869 L72.2791698,78.2879131 L72.675069,78.3357378 C75.6767735,78.6742408 77.9074954,78.3647168 79.3639206,77.3759785 C79.6111311,77.8167045 79.8636227,78.2571963 80.1213954,78.6974535 L80.1213954,78.6974535 L75.3330306,80.7008893 L74.2212956,80.1777509 L73.7952634,81.0824589 L75.3080417,81.7948349 L80.6262411,79.5705807 L80.5913752,79.4901381 L80.5913752,79.4901381 L80.7098672,79.6841222 C80.6734572,79.7003713 80.6384188,79.7212684 80.6055794,79.7469152 L80.6055794,79.7469152 L76.8438389,82.6843893 L75.442939,82.2667821 L75.354508,82.2488243 C75.1188856,82.2227557 74.8910571,82.3678613 74.8209286,82.60309 C74.7420341,82.8677223 74.8926043,83.1462059 75.1572366,83.2251004 L75.1572366,83.2251004 L76.805681,83.7165495 L76.8998636,83.7350228 C77.0263534,83.7473951 77.1542285,83.7111602 77.2562869,83.6314551 L77.2562869,83.6314551 L79.7862253,81.6570753 C75.6605919,85.5658701 70.9512401,88.6584183 65.65817,90.93472 C59.9552367,93.3873067 53.8381367,94.6136 47.30687,94.6136 C40.8066033,94.6136 34.6972367,93.3873067 28.97877,90.93472 C23.8082805,88.7171745 19.1982225,85.7249766 15.1485962,81.9581263 L15.4097747,82.1014412 L15.7906647,81.4067889 C16.0482921,80.9320746 16.3003313,80.4575783 16.5455421,79.985168 C17.3660063,82.1274595 18.5569903,83.6919168 20.1228156,84.6623682 L20.1228156,84.6623682 L20.649614,83.812378 L20.4085455,83.6551415 C18.9818482,82.6769408 17.9100938,81.0722907 17.1985791,78.8213692 L17.1985791,78.8213692 L17.1278362,78.8448554 C17.4201794,78.261503 17.704056,77.6784828 17.9776858,77.0960403 C18.821023,78.6497211 20.0873813,80.1345781 21.7726518,81.5521165 L21.7726518,81.5521165 L22.4163526,80.7868392 L22.0731738,80.4918826 C20.3900886,79.0132191 19.1990095,77.4763944 18.4944853,75.8834056 L18.539,75.98 L18.5971948,76.1040625 C18.6211331,76.0638535 18.6445677,76.0226884 18.6674953,75.9805654 L18.7347537,75.8513214 L18.8174551,75.6750423 L18.6649839,75.6071577 C19.0490938,74.7504068 19.4148638,73.8943803 19.7603059,73.038589 C20.6382368,74.3857817 22.0968449,75.9040838 24.1371862,77.6061214 L24.1371862,77.6061214 L24.7777599,76.8382247 L24.4446067,76.5574645 C22.2616179,74.6984971 20.8393112,73.0951906 20.1793031,71.766874 L20.228,71.861 L20.5745987,70.9509201 C20.9131934,70.0400285 21.230692,69.1299951 21.5263862,68.2209034 L21.8147859,67.3121287 C22.8799813,68.8656199 24.2186912,70.3408377 25.8297304,71.7380175 L25.8297304,71.7380175 L26.4849142,70.982548 L26.0497027,70.5969254 C24.4805816,69.176089 23.2046181,67.6795044 22.2204466,66.1074427 L22.2204466,66.1074427 L22.1719249,66.1390101 C22.6891161,64.3676031 23.1269058,62.5993939 23.4830716,60.8343493 C24.5582383,62.1894071 26.0644619,63.6003569 28.0017007,65.071582 L28.0017007,65.071582 L28.6065035,64.2752067 L28.2033473,63.964945 C26.2217615,62.4191785 24.753098,60.9566747 23.7973019,59.5831946 L23.7973019,59.5831946 L23.715865,59.6396195 C24.0852497,57.6199691 24.3504925,55.6045686 24.5115922,53.5934703 L24.5115922,53.5934703 L24.5609661,53.6467357 L25.0664249,54.1655643 C25.719826,54.8242243 26.2911733,55.3505085 26.7819328,55.7452536 C26.8344015,55.7874571 26.8888828,55.830516 26.9453787,55.8744323 L26.9453787,55.8744323 L27.3085443,56.1482333 L27.7201503,56.4427 L28.1802875,56.757922 L28.6890466,57.0939884 L29.2465183,57.4509886 L29.8527933,57.829012 L30.1742604,58.0259354 L30.6945268,57.1719313 L30.0782708,56.792303 L29.5108141,56.4340262 L28.9922475,56.0971904 C28.9098989,56.0428428 28.8295912,55.9893923 28.7513263,55.9368407 L28.7513263,55.9368407 L28.3062647,55.6323338 C28.0960055,55.485489 27.9041652,55.3467682 27.7307946,55.2162218 L27.7307946,55.2162218 L27.4086951,54.9660431 C27.0047627,54.6411378 26.5351126,54.2140661 26.000727,53.6853886 L26.000727,53.6853886 L25.5268516,53.2073663 L25.0214064,52.6796564 L24.756888,52.3971931 L24.585429,52.5568925 C24.7191296,50.4125601 24.7342567,48.2731361 24.6308092,46.138684 L24.6308092,46.138684 L30.7019036,49.9966511 L31.2382366,49.1526446 L24.5579845,44.9079942 C24.4131763,42.8361018 24.1564415,40.7689139 23.7877791,38.7064888 L23.7877791,38.7064888 L24.1924895,38.9092896 L25.5836838,39.6367607 L26.4935561,40.1224019 L30.0663346,42.0601789 L30.5460107,41.1827333 L27.6926055,39.6316601 L25.5803812,38.5039242 L24.4414914,37.9153611 L23.8941611,37.6476964 L23.6711389,37.5476638 L23.5660616,37.5060644 L23.5626748,37.5171752 C23.2102116,35.7531157 22.7757169,33.9925551 22.25919,32.2355297 L22.25919,32.2355297 L22.2683848,32.2222638 L28.8050867,34.396252 L29.1206316,33.4473413 L21.8963775,31.0446894 C21.387814,29.4320982 20.8100246,27.8224973 20.1630087,26.2159149 L20.1630087,26.2159149 L27.164962,27.7206485 L27.3750244,26.7429606 L19.6996579,25.0938498 C19.1884607,23.8858328 18.6380556,22.6795292 18.0484423,21.474951 L18.0484423,21.474951 L24.3614739,21.5419637 L24.7450386,21.8853229 L25.4115752,21.1398507 L24.8876345,20.6713883 L24.815326,20.6176257 C24.7387741,20.5707872 24.6505072,20.5451146 24.5596616,20.5441525 L24.5596616,20.5441525 L17.5468973,20.4693214 C17.1795557,19.7462157 16.7980626,19.023734 16.402418,18.3018789 L16.402418,18.3018789 L16.4472063,18.2726069 C17.7453051,17.4860898 19.8250236,17.2591072 22.6837389,17.6268732 L22.6837389,17.6268732 L22.8113347,16.635047 L22.4154355,16.5872223 C19.6747488,16.2781543 17.5767905,16.509313 16.1195642,17.3075019 L15.915,17.425 L15.5713506,16.8226561 L15.5713506,16.8226561 L15.2208537,16.2195902 L19.9954739,14.2229637 L21.1063409,14.7458675 L21.532373,13.8411595 L20.0195947,13.1287835 L14.7045383,15.3516934 C14.6914642,15.3300118 14.6783773,15.3083308 14.6652775,15.2866503 L14.6652775,15.2866503 L14.7020737,15.2624388 L18.4634739,12.3249637 L19.864714,12.742572 L19.953145,12.7605298 C20.1887675,12.7865983 20.4165959,12.6414927 20.4867244,12.406264 C20.565619,12.1416317 20.4150488,11.8631482 20.1504165,11.7842536 L20.1504165,11.7842536 L18.501972,11.2928046 L18.4077895,11.2743313 C18.2812997,11.261959 18.1534246,11.2981939 18.0513661,11.3778989 L18.0513661,11.3778989 L14.1413848,14.4312638 L14.0285071,14.2494261 L13.1799845,14.7785851 L13.3633848,15.0762638 L11.1238777,17.8317855 L11.040248,17.981098 L10.4689073,19.6035841 L10.4466537,19.6910329 C10.409113,19.9251017 10.5429229,20.1597426 10.7744474,20.2412714 C11.0059719,20.3228003 11.257279,20.2237741 11.3746845,20.0178288 L11.3746845,20.0178288 L11.4121348,19.9357313 L11.9545582,18.3945806 L13.9167637,15.9820056 C13.9644044,16.061293 14.0118711,16.1405873 14.0591638,16.2198884 L14.0591638,16.2198884 L11.8318708,20.0914574 L11.8318708,22.0528347 L12.8318708,22.0528347 L12.8312678,20.3568198 L14.6415338,17.2119861 C14.8816815,17.6277142 15.1170537,18.043631 15.3467443,18.4584113 C14.8214488,19.175097 14.3245192,20.3283494 13.8377877,21.932421 L13.8377877,21.932421 L13.6547275,22.558576 L13.6090881,22.7218098 L13.6090881,22.7218098 L13.5634922,22.8877268 L13.3814759,23.5782812 L13.2906409,23.9397272 L14.2613539,24.1799692 L14.4311173,23.5146783 L14.600924,22.8900395 L14.7705578,22.3062224 L14.9398023,21.7633968 L15.108441,21.2617326 L15.1504807,21.1427678 L15.1504807,21.1427678 L15.1924657,21.0263889 L15.3597902,20.5867848 L15.5259682,20.1887663 L15.6177215,19.9857099 C15.7092667,19.7891738 15.8001912,19.6123138 15.8905255,19.4561641 C16.2461297,20.1202578 16.5895875,20.7848336 16.9208987,21.4498939 L16.9208987,21.4498939 L15.029831,25.0410162 L14.9758091,25.2146182 L14.764387,26.9850706 L15.7573321,27.1036451 L15.9586769,25.4239637 L17.4643312,22.5639998 C17.9771623,23.638239 18.4583543,24.713743 18.9079069,25.7905206 L18.9079069,25.7905206 L15.6584942,31.119759 L16.5122779,31.6403869 L19.3770974,26.9437744 C20.0413558,28.6203822 20.6290361,30.3000804 21.1401377,31.9829027 L21.1401377,31.9829027 L17.0252319,36.5463325 L17.7679577,37.2159282 L21.4708418,33.1098897 C21.9368334,34.7554946 22.3297172,36.404089 22.6494928,38.0557043 L22.6494928,38.0557043 L22.6264654,38.072765 L22.4397584,38.2306027 L22.2313278,38.4193571 L22.000793,38.6393446 L21.7477733,38.8908821 L21.471888,39.174286 L21.0143543,39.6598342 L20.5032314,40.2188629 L19.7361527,41.0803847 L18.8684747,42.0769711 L17.8971517,43.2111554 L18.6266611,43.8935053 L19.9768858,42.5727185 L21.3985872,41.1600516 L21.8370407,40.7168797 L22.5784968,39.9529459 L22.9245416,39.584958 C23.2582189,41.593635 23.4840043,43.6067845 23.6018969,45.6244626 L23.6018969,45.6244626 L18.6533843,49.6737761 L19.286756,50.4476239 L23.6608665,46.8677799 C23.7329694,48.8465166 23.701495,50.8296119 23.5664424,52.8171186 L23.5664424,52.8171186 L23.1922748,53.2073663 L22.7183993,53.6853886 L22.4933432,53.9057423 C22.0511692,54.3340016 21.656659,54.6875529 21.3104313,54.9660431 L21.3104313,54.9660431 L20.9883317,55.2162218 L20.8088065,55.3494911 C20.6850211,55.4401514 20.5530344,55.5344372 20.4128617,55.6323338 L20.4128617,55.6323338 L19.9678001,55.9368407 L19.8488708,56.016342 L19.8488708,56.016342 L19.7268789,56.0971904 L19.2083122,56.4340262 L18.6408555,56.792303 L18.0245996,57.1719313 L18.544866,58.0259354 L18.8663331,57.829012 L19.4726081,57.4509886 L20.0300798,57.0939884 L20.5388389,56.757922 L20.9989761,56.4427 L21.4105821,56.1482333 L21.7737476,55.8744323 L21.8569808,55.8092006 L21.8569808,55.8092006 L21.9371936,55.7452536 C22.3732262,55.3945283 22.8728754,54.9399652 23.438918,54.3806598 C23.264477,56.2138733 23.0021202,58.050843 22.651847,59.89161 L22.651847,59.89161 L22.5414893,60.0389062 C22.0417303,60.6691677 21.2798822,61.2409389 20.3233189,61.7444233 C19.6607791,62.0931493 18.9471967,62.3874539 18.2332073,62.6277037 L18.2332073,62.6277037 L18.0560109,62.6862849 L17.6046257,62.8251001 L17.2918375,62.9091437 L17.5266444,63.8811858 L17.8154991,63.8040356 L18.0463346,63.7367418 C18.2054261,63.6889328 18.3746209,63.6352143 18.5521259,63.5754858 C19.3132749,63.3193672 20.074831,63.0052768 20.7890871,62.6293301 C21.3453256,62.3365555 21.8471916,62.0198995 22.2848578,61.6767641 C21.9155016,63.3491964 21.4737665,65.024766 20.959652,66.7035037 L20.959652,66.7035037 L20.6494874,66.509703 L20.5233013,66.7026977 C19.5818447,68.0808021 18.2852157,68.6411225 16.5584724,68.4101192 L16.5584724,68.4101192 L16.3203343,68.3737163 L16.1512922,69.3593251 L16.4363297,69.402609 C18.0367604,69.6136186 19.3852584,69.2423561 20.4488928,68.3009882 C20.0955288,69.3615445 19.7133459,70.4233662 19.3023439,71.4864609 L19.3023439,71.4864609 L19.2711235,71.4703303 L19.1970223,71.6080826 C18.5735313,72.6806299 17.212133,73.0449935 15.0019544,72.6379101 L15.0019544,72.6379101 L14.7322136,72.5852629 L14.5305921,73.5647264 L14.8548018,73.6274185 C16.3485593,73.8971287 17.5727063,73.8465926 18.5056276,73.4629481 C18.1473915,74.3167844 17.7706203,75.1714427 17.3742031,76.0280832 C16.6675807,76.641659 15.5508169,76.4879078 13.8924742,75.502853 L13.8924742,75.502853 L13.6738363,75.3701128 L13.146971,76.2200616 L13.4259316,76.388169 C14.7154185,77.1425674 15.8314865,77.4751301 16.7402224,77.3691282 C16.5089435,77.8467339 16.2718992,78.3245972 16.0294048,78.8038431 C15.4240599,79.4944234 14.4466816,79.1778986 12.9066243,77.5813264 L12.9066243,77.5813264 L12.7302965,77.395562 L11.999725,78.0783983 L12.2200246,78.3091095 C13.3875431,79.5050096 14.4355387,80.1466171 15.3195722,80.1696456 C15.0639043,80.6517953 14.8023854,81.1342076 14.5350155,81.6168834 L14.6207855,81.4597436 C14.3716062,81.2209076 14.124601,80.9790664 13.87977,80.73422 C9.53230333,76.3864867 6.13213667,71.3535133 3.67927,65.6353 C1.22642333,59.9170333 0,53.8075333 0,47.3068 C0,40.8060667 1.23392333,34.6965667 3.70177,28.9783 C6.16963667,23.2601 9.56930333,18.2271333 13.90077,13.8794 C18.2322367,9.53166667 23.25707,6.1315 28.97527,3.6789 C34.6935367,1.2263 40.8030367,0 47.30377,0 Z M80.627,13.773 L80.73427,13.8794 C85.0820033,18.2271333 88.4898033,23.2601 90.95767,28.9783 C93.4257367,34.6965667 94.65977,40.8060667 94.65977,47.3068 C94.65977,53.8075333 93.4257367,59.9170333 90.95767,65.6353 C89.2356091,69.6254312 87.05588,73.2819084 84.4184827,76.6047316 L84.8387549,75.4066191 L84.8610085,75.3191703 C84.8985491,75.0851014 84.7647393,74.8504605 84.5332147,74.7689317 C84.3016902,74.6874029 84.0503831,74.786429 83.9329776,74.9923743 L83.9329776,74.9923743 L83.8955273,75.0744718 L83.3527564,76.6162795 L81.442484,78.9650161 C81.4256747,78.9370054 81.4088871,78.908994 81.3921212,78.8809816 L81.3921212,78.8809816 L83.7195542,74.8336754 L83.7195542,72.8722981 L82.7195542,72.8722981 L82.7197664,74.5656214 L80.8075528,77.8887665 C80.5305156,77.4109503 80.259788,76.9328849 79.9968901,76.4562365 C80.5726161,75.7592519 81.1130723,74.5491233 81.641508,72.8076117 L81.641508,72.8076117 L81.8245681,72.1814567 L81.8702075,72.0182229 L81.8702075,72.0182229 L81.9158034,71.8523059 L82.0978197,71.1617515 L82.1886548,70.8003055 L81.2179417,70.5600635 L81.0481784,71.2253544 L81.0057223,71.3853319 L81.0057223,71.3853319 L80.9632669,71.5427659 L80.7935196,72.1470151 L80.7511182,72.2916924 L80.7511182,72.2916924 L80.7087378,72.4338103 L80.5394934,72.9766359 L80.3708546,73.4783002 L80.2687477,73.7630129 C79.996907,74.5018446 79.7287781,75.0772742 79.4681431,75.484881 C79.1036838,74.8031525 78.7520237,74.1209157 78.4131629,73.4381684 L78.4131629,73.4381684 L80.3317349,69.7947187 L80.3857569,69.6211167 L80.597179,67.8506643 L79.6042339,67.7320897 L79.4034739,69.4119054 L77.8712659,72.3229674 C77.3666169,71.2617244 76.8928418,70.199247 76.4499405,69.1355266 L76.4499405,69.1355266 L79.6490498,63.8895778 L78.7952661,63.3689499 L75.9819665,67.9820631 C75.321728,66.3108387 74.7375698,64.6365435 74.2294926,62.9591443 L74.2294926,62.9591443 L78.2823121,58.4630043 L77.5395863,57.7934086 L73.8993652,61.8309268 C73.4167827,60.1216537 73.0130691,58.4091551 72.688225,56.693396 L72.688225,56.693396 L72.8564977,56.546019 L73.0759328,56.3416876 L73.3176624,56.1059646 C73.3598297,56.0640439 73.4029418,56.0208021 73.4470067,55.9762324 L73.4470067,55.9762324 L73.8695282,55.5390776 L74.3447822,55.0291547 L74.6915486,54.6482515 L75.2575453,54.0146736 L76.099788,53.0520908 L77.2976282,51.6559591 L76.5681188,50.9736092 L75.3742265,52.140648 L74.1049314,53.3975762 L73.2677662,54.2418268 L72.5888994,54.9428885 L72.4138426,55.1277748 C72.085708,53.0921465 71.868335,51.0519242 71.7617247,49.0070493 L71.7617247,49.0070493 L76.5054599,45.1246775 L75.8720882,44.3508298 L71.7103729,47.7571729 C71.6536421,45.8690417 71.6911697,43.9769411 71.8229564,42.0808254 L71.822,42.081 L71.8858512,42.0157475 L71.8858512,42.0157475 L72.0092582,41.8884752 L72.4831337,41.410453 L72.7081898,41.1900993 C73.1503639,40.76184 73.544874,40.4082887 73.8911017,40.1297985 L73.8911017,40.1297985 L74.0459893,40.0074395 L74.3927266,39.7463504 L74.7886714,39.4635078 L75.2337329,39.1590008 L75.7278206,38.832919 L76.2708436,38.4853515 L76.8627112,38.1163878 L77.1769335,37.9239102 L76.656667,37.0699062 L76.0259564,37.4584747 L75.4440944,37.8259753 L74.9109903,38.1724975 L74.4265535,38.4981305 L73.9906932,38.8029637 L73.6033188,39.0870864 L73.2643395,39.350588 L72.8811367,39.6713234 L72.6781598,39.8502134 C72.5403081,39.9735926 72.3973854,40.1052127 72.2493687,40.2450867 L72.2493687,40.2450867 L71.9514981,40.5318447 C72.1347657,38.6317201 72.4124735,36.7275601 72.7842802,34.8195906 C73.2679534,34.3267551 73.9155744,33.8735957 74.6912224,33.4653355 C75.3537622,33.1166095 76.0673447,32.822305 76.7813341,32.5820551 L76.7813341,32.5820551 L77.1229402,32.4710671 L77.4099157,32.3846587 L77.6352924,32.3225931 L77.7227039,32.3006151 L77.487897,31.328573 L77.1990423,31.4057232 L76.9682067,31.473017 C76.8091153,31.520826 76.6399205,31.5745445 76.4624155,31.634273 C75.7012664,31.8903916 74.9397103,32.204482 74.2254542,32.5804287 C73.8248114,32.791306 73.4523766,33.0145727 73.1113801,33.2517128 C73.446124,31.7428394 73.839777,30.2314122 74.2923394,28.7174087 L74.2923394,28.7174087 L74.3187766,28.7340577 L74.4449626,28.541063 C75.3864192,27.1629585 76.6830482,26.6026382 78.4097916,26.8336415 L78.4097916,26.8336415 L78.6479296,26.8700444 L78.8169717,25.8844355 L78.5186052,25.8394076 C77.1395802,25.6602276 75.9479863,25.9142014 74.9647611,26.5950827 C75.3524352,25.4368725 75.7744751,24.2771533 76.2317948,23.1154183 C76.9707588,22.4893104 78.1942345,22.3226519 79.9586286,22.6476281 L79.9586286,22.6476281 L80.2283694,22.7002753 L80.4299909,21.7208118 L80.0979933,21.6567162 C78.7872929,21.4208902 77.684483,21.4319926 76.804449,21.6991623 C77.1594275,20.8471752 77.5328658,19.9943698 77.9252421,19.1403163 C78.6364756,18.6958911 79.7014129,18.9004401 81.2212277,19.8032094 L81.2212277,19.8032094 L81.4398656,19.9359496 L81.9667309,19.0860008 L81.699016,18.9244811 C80.4610242,18.1984273 79.3825763,17.8606243 78.4941569,17.9270155 C78.7497621,17.3935587 79.0125634,16.8597806 79.283393,16.3253008 C79.891968,15.7038824 80.8581804,16.0446002 82.3581849,17.5996496 L82.3581849,17.5996496 L82.5345127,17.785414 L83.2650841,17.1025778 L83.0460306,16.8731431 C81.8850719,15.6836575 80.8422465,15.0421451 79.9609647,15.0117233 C80.2492009,14.4648714 80.5449661,13.9176816 80.8482603,13.3701528 L80.627,13.773 Z" id="Combined-Shape" fill="#000000" fill-rule="nonzero"></path>
                    <g id="Group-3" transform="translate(10.440385, 10.621264)"></g>
                </g>
            </g>
        </g>
    </g>
</svg>