<?xml version="1.0" encoding="UTF-8"?>
<svg width="3300px" height="2200px" viewBox="0 0 3300 2200" version="1.1" xmlns="http://www.w3.org/2000/svg" xmlns:xlink="http://www.w3.org/1999/xlink">
    <title>NHL</title>
    <g id="Page-1" stroke="none" stroke-width="1" fill="none" fill-rule="evenodd">
        <g id="NHL">
            <g id="Notes">
                <rect id="artboard" fill="#FFFFFF" fill-rule="nonzero" x="0" y="0" width="3300" height="2200"></rect>
                <line x1="263" y1="292" x2="3036" y2="292" id="Path" stroke="#000000" stroke-width="0.5"></line>
                <text id="Weight/Scale-Variations" fill="#000000" fill-rule="nonzero" font-family="Helvetica" font-size="13" font-weight="normal">
                    <tspan x="263" y="322">Weight/Scale Variations</tspan>
                </text>
                <text id="Ultralight" fill="#000000" fill-rule="nonzero" font-family="Helvetica" font-size="13" font-weight="normal">
                    <tspan x="533.711" y="322">Ultralight</tspan>
                </text>
                <text id="Thin" fill="#000000" fill-rule="nonzero" font-family="Helvetica" font-size="13" font-weight="normal">
                    <tspan x="843.422" y="322">Thin</tspan>
                </text>
                <text id="Light" fill="#000000" fill-rule="nonzero" font-family="Helvetica" font-size="13" font-weight="normal">
                    <tspan x="1138.63" y="322">Light</tspan>
                </text>
                <text id="Regular" fill="#000000" fill-rule="nonzero" font-family="Helvetica" font-size="13" font-weight="normal">
                    <tspan x="1426.84" y="322">Regular</tspan>
                </text>
                <text id="Medium" fill="#000000" fill-rule="nonzero" font-family="Helvetica" font-size="13" font-weight="normal">
                    <tspan x="1723.06" y="322">Medium</tspan>
                </text>
                <text id="Semibold" fill="#000000" fill-rule="nonzero" font-family="Helvetica" font-size="13" font-weight="normal">
                    <tspan x="2015.77" y="322">Semibold</tspan>
                </text>
                <text id="Bold" fill="#000000" fill-rule="nonzero" font-family="Helvetica" font-size="13" font-weight="normal">
                    <tspan x="2326.48" y="322">Bold</tspan>
                </text>
                <text id="Heavy" fill="#000000" fill-rule="nonzero" font-family="Helvetica" font-size="13" font-weight="normal">
                    <tspan x="2618.19" y="322">Heavy</tspan>
                </text>
                <text id="Black" fill="#000000" fill-rule="nonzero" font-family="Helvetica" font-size="13" font-weight="normal">
                    <tspan x="2917.4" y="322">Black</tspan>
                </text>
                <line x1="263" y1="1903" x2="3036" y2="1903" id="Path" stroke="#000000" stroke-width="0.5"></line>
                <g id="Group" transform="translate(264.367190, 1918.068400)" fill="#000000" fill-rule="nonzero">
                    <path d="M7.88086,15.761678 C8.96156,15.761678 9.97717667,15.5566 10.92771,15.146444 C11.8782433,14.7362873 12.7164767,14.166626 13.44241,13.43746 C14.1682767,12.7082933 14.7379433,11.86845 15.15141,10.91793 C15.56481,9.96741 15.77151,8.95504 15.77151,7.88082 C15.77151,6.8066 15.56481,5.79422667 15.15141,4.8437 C14.7379433,3.89316667 14.1666433,3.05333333 13.43751,2.3242 C12.70831,1.595 11.8684767,1.02533333 10.91801,0.6152 C9.96747667,0.205066667 8.95183667,0 7.87109,0 C6.79687,0 5.7845,0.205066667 4.83398,0.6152 C3.88346,1.02533333 3.04687333,1.595 2.32422,2.3242 C1.60156,3.05333333 1.03352333,3.89316667 0.62011,4.8437 C0.206703333,5.79422667 -8.8817842e-16,6.8066 -8.8817842e-16,7.88082 C-8.8817842e-16,8.95504 0.206703333,9.96741 0.62011,10.91793 C1.03352333,11.86845 1.60318667,12.7082933 2.3291,13.43746 C3.05501333,14.166626 3.89323,14.7362873 4.84375,15.146444 C5.79427,15.5566 6.80664,15.761678 7.88086,15.761678 Z M7.88086,14.277303 C6.99544,14.277303 6.16699,14.1129153 5.39551,13.78414 C4.62402333,13.4553667 3.94694,12.99801 3.36426,12.41207 C2.78157333,11.82613 2.32584333,11.14579 1.99707,10.37105 C1.66829,9.59631 1.5039,8.76623333 1.5039,7.88082 C1.5039,6.9954 1.66666333,6.16532 1.99219,5.39058 C2.31771,4.61586 2.77181,3.93553333 3.35449,3.3496 C3.93717,2.76366667 4.61425333,2.3063 5.38574,1.9775 C6.15722667,1.6487 6.98567667,1.4843 7.87109,1.4843 C8.76303667,1.4843 9.59474333,1.6487 10.36621,1.9775 C11.1376767,2.3063 11.8163767,2.76366667 12.40231,3.3496 C12.9882433,3.93553333 13.4472433,4.61586 13.77931,5.39058 C14.11131,6.16532 14.27731,6.9954 14.27731,7.88082 C14.27731,8.76623333 14.1129433,9.59631 13.78421,10.37105 C13.45541,11.14579 12.9996767,11.82613 12.41701,12.41207 C11.8343433,12.99801 11.15561,13.4553667 10.38081,13.78414 C9.60607667,14.1129153 8.77276,14.277303 7.88086,14.277303 Z M4.47265,7.89058 C4.47265,8.10542667 4.54101,8.27958333 4.67773,8.41305 C4.81445,8.54651 4.99674333,8.61324 5.22461,8.61324 L7.13867,8.61324 L7.13867,10.53707 C7.13867,10.7584233 7.2054,10.93746 7.33886,11.07418 C7.47232667,11.2109 7.64648333,11.27926 7.86133,11.27926 C8.08268333,11.27926 8.26171667,11.2109 8.39843,11.07418 C8.53515,10.93746 8.60351,10.7584233 8.60351,10.53707 L8.60351,8.61324 L10.52731,8.61324 C10.74871,8.61324 10.9277433,8.54651 11.06441,8.41305 C11.2011433,8.27958333 11.26951,8.10542667 11.26951,7.89058 C11.26951,7.66922667 11.2011433,7.49019333 11.06441,7.35348 C10.9277433,7.21676 10.74871,7.1484 10.52731,7.1484 L8.60351,7.1484 L8.60351,5.23433 C8.60351,5.00644333 8.53515,4.82416667 8.39843,4.6875 C8.26171667,4.55076667 8.08268333,4.4824 7.86133,4.4824 C7.64648333,4.4824 7.47232667,4.55076667 7.33886,4.6875 C7.2054,4.82416667 7.13867,5.00644333 7.13867,5.23433 L7.13867,7.1484 L5.22461,7.1484 C4.99674333,7.1484 4.81445,7.21676 4.67773,7.35348 C4.54101,7.49019333 4.47265,7.66922667 4.47265,7.89058 Z" id="Shape"></path>
                </g>
                <g id="Group" transform="translate(283.615050, 1915.988300)" fill="#000000" fill-rule="nonzero">
                    <path d="M9.96095,19.92186 C11.3216167,19.92186 12.60255,19.6614433 13.80375,19.14061 C15.0048833,18.6197767 16.06445,17.9003744 16.98245,16.9824031 C17.9003833,16.0644344 18.6197833,15.0048633 19.14065,13.80369 C19.66145,12.6025167 19.92185,11.3215933 19.92185,9.96092 C19.92185,8.60024 19.66145,7.3193 19.14065,6.1181 C18.6197833,4.91696667 17.9003833,3.8574 16.98245,2.9394 C16.06445,2.02146667 15.00325,1.30206667 13.79885,0.7812 C12.5943833,0.2604 11.3118167,0 9.95115,0 C8.59048333,0 7.30956667,0.2604 6.1084,0.7812 C4.90722667,1.30206667 3.84928333,2.02146667 2.93457,2.9394 C2.01985667,3.8574 1.30208333,4.91696667 0.78125,6.1181 C0.260416667,7.3193 8.8817842e-16,8.60024 8.8817842e-16,9.96092 C8.8817842e-16,11.3215933 0.260416667,12.6025167 0.78125,13.80369 C1.30208333,15.0048633 2.02148333,16.0644344 2.93945,16.9824031 C3.85741667,17.9003744 4.91698667,18.6197767 6.11816,19.14061 C7.31933333,19.6614433 8.60026333,19.92186 9.96095,19.92186 Z M9.96095,18.2617 C8.80859667,18.2617 7.73111667,18.0468563 6.72851,17.617169 C5.72591,17.1874813 4.84537667,16.593405 4.08691,15.83494 C3.32845,15.07648 2.73600333,14.1959467 2.30957,13.19334 C1.88313667,12.1907333 1.66992,11.11326 1.66992,9.96092 C1.66992,8.80857333 1.88313667,7.7311 2.30957,6.7285 C2.73600333,5.7259 3.32682333,4.84373333 4.08203,4.082 C4.83723667,3.32026667 5.71614333,2.7262 6.71875,2.2998 C7.72135,1.87333333 8.79881667,1.6601 9.95115,1.6601 C11.1034833,1.6601 12.18095,1.87333333 13.18355,2.2998 C14.18615,2.7262 15.0683167,3.32026667 15.83005,4.082 C16.5917833,4.84373333 17.1874833,5.7259 17.61715,6.7285 C18.0468833,7.7311 18.26175,8.80857333 18.26175,9.96092 C18.26175,11.11326 18.0485167,12.1907333 17.62205,13.19334 C17.19565,14.1959467 16.6032167,15.07648 15.84475,15.83494 C15.0862833,16.593405 14.2041167,17.1874813 13.19825,17.617169 C12.1923833,18.0468563 11.1132833,18.2617 9.96095,18.2617 Z M5.64453,9.97068 C5.64453,10.20506 5.72265333,10.39712 5.8789,10.54686 C6.03515333,10.6966 6.23697667,10.77147 6.48437,10.77147 L9.13085,10.77147 L9.13085,13.43748 C9.13085,13.6783667 9.20571667,13.8753067 9.35545,14.0283 C9.50518333,14.1812933 9.69725,14.25779 9.93165,14.25779 C10.17905,14.25779 10.3808833,14.1812933 10.53715,14.0283 C10.69335,13.8753067 10.77145,13.6783667 10.77145,13.43748 L10.77145,10.77147 L13.42775,10.77147 C13.6686167,10.77147 13.8671833,10.6966 14.02345,10.54686 C14.1797167,10.39712 14.25785,10.20506 14.25785,9.97068 C14.25785,9.72328667 14.1797167,9.52309333 14.02345,9.3701 C13.8671833,9.21710667 13.6686167,9.14061 13.42775,9.14061 L10.77145,9.14061 L10.77145,6.4941 C10.77145,6.24023333 10.69335,6.0368 10.53715,5.8838 C10.3808833,5.7308 10.17905,5.6543 9.93165,5.6543 C9.69725,5.6543 9.50518333,5.7308 9.35545,5.8838 C9.20571667,6.0368 9.13085,6.24023333 9.13085,6.4941 L9.13085,9.14061 L6.48437,9.14061 C6.23046333,9.14061 6.02701333,9.21710667 5.87402,9.3701 C5.72102667,9.52309333 5.64453,9.72328667 5.64453,9.97068 Z" id="Shape"></path>
                </g>
                <g id="Group" transform="translate(307.901860, 1913.224600)" fill="#000000" fill-rule="nonzero">
                    <path d="M12.71484,25.43946 C14.10804,25.43946 15.4378067,25.22299 16.70414,24.79005 C17.9704067,24.3571033 19.13414,23.7500067 20.19534,22.96876 C21.25654,22.1875067 22.1793733,21.2662827 22.96384,20.205088 C23.7483733,19.1438893 24.3571067,17.9785233 24.79004,16.70899 C25.2229733,15.4394633 25.43944,14.11134 25.43944,12.72462 C25.43944,11.3313933 25.2229733,10.0016533 24.79004,8.7354 C24.3571067,7.46906667 23.7483733,6.30533333 22.96384,5.2442 C22.1793733,4.183 21.25654,3.26013333 20.19534,2.4756 C19.13414,1.69106667 17.9687733,1.08233333 16.69924,0.6494 C15.4297067,0.216466667 14.0983067,0 12.70504,0 C11.31184,0 9.98210667,0.216466667 8.71584,0.6494 C7.44955333,1.08233333 6.28743667,1.69106667 5.22949,2.4756 C4.17155,3.26013333 3.25032667,4.183 2.46582,5.2442 C1.68131333,6.30533333 1.07421667,7.46906667 0.64453,8.7354 C0.214843333,10.0016533 0,11.3313933 0,12.72462 C0,14.11134 0.21647,15.4394633 0.64941,16.70899 C1.08235667,17.9785233 1.68945333,19.1438893 2.4707,20.205088 C3.25195333,21.2662827 4.17317667,22.1875067 5.23437,22.96876 C6.29557,23.7500067 7.45929333,24.3571033 8.72554,24.79005 C9.99187333,25.22299 11.32164,25.43946 12.71484,25.43946 Z M12.71484,23.62306 C11.51044,23.62306 10.3629733,23.43914 9.27244,23.0713 C8.18196,22.70346 7.18424667,22.18751 6.2793,21.52345 C5.37434667,20.8593853 4.58821333,20.0732513 3.9209,19.165048 C3.25358,18.2568427 2.73763,17.2574933 2.37305,16.167 C2.00846333,15.0765067 1.82617,13.9290467 1.82617,12.72462 C1.82617,11.51368 2.00846333,10.3629733 2.37305,9.2725 C2.73763,8.18196667 3.25195333,7.1826 3.91602,6.2744 C4.58008,5.3662 5.36458333,4.58006667 6.26953,3.916 C7.17447667,3.25193333 8.17221333,2.73763333 9.26274,2.3731 C10.3532067,2.0085 11.50064,1.8262 12.70504,1.8262 C13.9159733,1.8262 15.0667067,2.0085 16.15724,2.3731 C17.2477067,2.73763333 18.24704,3.25193333 19.15524,3.916 C20.06344,4.58006667 20.8495733,5.3662 21.51364,6.2744 C22.1777067,7.1826 22.6936733,8.18196667 23.06154,9.2725 C23.42934,10.3629733 23.6134125,11.51368 23.6134125,12.72462 C23.6197733,13.9290467 23.44074,15.0765067 23.07614,16.167 C22.7116067,17.2574933 22.1956733,18.2568427 21.52834,19.165048 C20.8610067,20.0732513 20.07324,20.8593853 19.16504,21.52345 C18.25684,22.18751 17.2575067,22.70346 16.16704,23.0713 C15.0765067,23.43914 13.9257733,23.62306 12.71484,23.62306 Z M7.19726,12.73438 C7.19726,12.9882867 7.28352333,13.19825 7.45605,13.36427 C7.62857667,13.5302833 7.84830667,13.61329 8.11524,13.61329 L11.80664,13.61329 L11.80664,17.31446 C11.80664,17.5813867 11.88964,17.7994867 12.05564,17.96876 C12.22164,18.1380333 12.4316067,18.22267 12.68554,18.22267 C12.9590067,18.22267 13.1803733,18.1380333 13.34964,17.96876 C13.5189067,17.7994867 13.60354,17.5813867 13.60354,17.31446 L13.60354,13.61329 L17.30464,13.61329 C17.5715733,13.61329 17.7896733,13.5302833 17.95894,13.36427 C18.1282733,13.19825 18.21294,12.9882867 18.21294,12.73438 C18.21294,12.4609467 18.1282733,12.2395933 17.95894,12.07032 C17.7896733,11.9010533 17.5715733,11.81642 17.30464,11.81642 L13.60354,11.81642 L13.60354,8.125 C13.60354,7.8516 13.5189067,7.63023333 13.34964,7.4609 C13.1803733,7.29163333 12.9590067,7.207 12.68554,7.207 C12.4316067,7.207 12.22164,7.29326667 12.05564,7.4658 C11.88964,7.63833333 11.80664,7.85806667 11.80664,8.125 L11.80664,11.81642 L8.11524,11.81642 C7.8418,11.81642 7.62044333,11.9010533 7.45117,12.07032 C7.28189667,12.2395933 7.19726,12.4609467 7.19726,12.73438 Z" id="Shape"></path>
                </g>
                <text id="Design-Variations" fill="#000000" fill-rule="nonzero" font-family="Helvetica" font-size="13" font-weight="normal">
                    <tspan x="263" y="1953">Design Variations</tspan>
                </text>
                <text id="Symbols-are-supported-in-up-to-nine-weights-and-three-scales." fill="#000000" fill-rule="nonzero" font-family="Helvetica" font-size="13" font-weight="normal">
                    <tspan x="263" y="1971">Symbols are supported in up to nine weights and three scales.</tspan>
                </text>
                <text id="For-optimal-layout-with-text-and-other-symbols,-vertically-align" fill="#000000" fill-rule="nonzero" font-family="Helvetica" font-size="13" font-weight="normal">
                    <tspan x="263" y="1989">For optimal layout with text and other symbols, vertically align</tspan>
                </text>
                <text id="symbols-with-the-adjacent-text." fill="#000000" fill-rule="nonzero" font-family="Helvetica" font-size="13" font-weight="normal">
                    <tspan x="263" y="2007">symbols with the adjacent text.</tspan>
                </text>
                <line x1="776" y1="1919" x2="776" y2="1933" id="Path" stroke="#00AEEF" stroke-width="0.5"></line>
                <g id="Group" transform="translate(778.490230, 1918.732400)" fill="#000000" fill-rule="nonzero">
                    <path d="M0.82032,14.42385 C1.08073333,14.42385 1.28255667,14.3685115 1.42579,14.2578344 C1.56901667,14.1471575 1.68620333,13.9551 1.77735,13.681662 L3.03711,10.2344 L8.79887,10.2344 L10.05857,13.681662 C10.1497033,13.9551 10.2669033,14.1471575 10.41017,14.2578344 C10.55337,14.3685115 10.7519367,14.42385 11.00587,14.42385 C11.26627,14.42385 11.47297,14.3522354 11.62597,14.2090062 C11.77897,14.0657767 11.85547,13.8704643 11.85547,13.623069 C11.85547,13.473329 11.81967,13.297546 11.74807,13.09572 L7.16797,0.8985 C7.05078333,0.598966667 6.89128,0.374333333 6.68946,0.2246 C6.48763333,0.0748666667 6.23047,0 5.91797,0 C5.31250333,0 4.90234667,0.296233333 4.6875,0.8887 L0.10743,13.10549 C0.03581,13.3073133 -4.4408921e-16,13.4830947 -4.4408921e-16,13.632834 C-4.4408921e-16,13.88023 0.0732433333,14.073915 0.21973,14.2138891 C0.366216667,14.353863 0.566413333,14.42385 0.82032,14.42385 Z M3.51563,8.75002 L5.88868,2.1778 L5.9375,2.1778 L8.31057,8.75002 L3.51563,8.75002 Z" id="Shape"></path>
                </g>
                <line x1="793.197" y1="1919" x2="793.197" y2="1933" id="Path" stroke="#00AEEF" stroke-width="0.5"></line>
                <text id="Margins" fill="#000000" fill-rule="nonzero" font-family="Helvetica" font-size="13" font-weight="normal">
                    <tspan x="776" y="1953">Margins</tspan>
                </text>
                <text id="Leading-and-trailing-margins-on-the-left-and-right-side-of-each-symbol" fill="#000000" fill-rule="nonzero" font-family="Helvetica" font-size="13" font-weight="normal">
                    <tspan x="776" y="1971">Leading and trailing margins on the left and right side of each symbol</tspan>
                </text>
                <text id="can-be-adjusted-by-modifying-the-x-location-of-the-margin-guidelines." fill="#000000" fill-rule="nonzero" font-family="Helvetica" font-size="13" font-weight="normal">
                    <tspan x="776" y="1989">can be adjusted by modifying the x-location of the margin guidelines.</tspan>
                </text>
                <text id="Modifications-are-automatically-applied-proportionally-to-all" fill="#000000" fill-rule="nonzero" font-family="Helvetica" font-size="13" font-weight="normal">
                    <tspan x="776" y="2007">Modifications are automatically applied proportionally to all</tspan>
                </text>
                <text id="scales-and-weights." fill="#000000" fill-rule="nonzero" font-family="Helvetica" font-size="13" font-weight="normal">
                    <tspan x="776" y="2025">scales and weights.</tspan>
                </text>
                <g id="Group" transform="translate(1291.246849, 1914.517550)" fill="#000000" fill-rule="nonzero">
                    <path d="M0.594951479,20.3476805 L2.29417148,22.0566705 C2.72385815,22.4928705 3.17795815,22.6946938 3.65647148,22.6621405 C4.13498481,22.6295872 4.60536148,22.3561505 5.06760148,21.8418305 L15.7609515,10.0547205 L14.7941515,9.07815049 L4.17893148,20.7578405 C4.00315148,20.9596605 3.82574148,21.0735938 3.64670148,21.0996405 C3.46766815,21.1256805 3.26096481,21.0215138 3.02659148,20.7871405 L1.85471148,19.6250305 C1.62033815,19.3906545 1.51780148,19.1839482 1.54710148,19.0049115 C1.57639481,18.8258748 1.69195148,18.6452108 1.89377148,18.4629193 L13.3683515,7.66215049 L12.3918515,6.69535049 L0.800031479,17.5840125 C0.305238146,18.0397418 0.039938146,18.5052368 0.00413147929,18.9804975 C-0.0316751874,19.4557595 0.165264813,19.9114872 0.594951479,20.3476805 Z M7.01096148,2.15435049 C6.80262815,2.35615049 6.68544148,2.58725049 6.65940148,2.84765049 C6.63336148,3.10811716 6.67893481,3.33598382 6.79612148,3.53125049 C6.91330815,3.71358382 7.08420481,3.85031716 7.30881148,3.94145049 C7.53342481,4.03258382 7.80850481,4.03908382 8.13405148,3.96095049 C8.86318481,3.79168382 9.60211815,3.72171716 10.3508515,3.75105049 C11.0995181,3.78031716 11.8319181,4.02931716 12.5480515,4.49805049 L11.9621515,5.95315049 C11.7928848,6.36981716 11.7456848,6.73278382 11.8205515,7.04205049 C11.8954181,7.35125049 12.0663181,7.64258382 12.3332515,7.91605049 L14.6281515,10.2305005 C14.8690181,10.4778938 15.1033848,10.6211205 15.3312515,10.6601805 C15.5591181,10.6992472 15.8130181,10.6927372 16.0929515,10.6406505 L17.1574515,10.4453405 L17.8215515,11.1191705 L17.7824515,11.6758105 C17.7629181,11.9232038 17.7938515,12.1510672 17.8752515,12.3594005 C17.9565848,12.5677338 18.1177181,12.7923438 18.3586515,13.0332305 L19.1203515,13.7754205 C19.3612181,14.0163072 19.6232515,14.1416338 19.9064515,14.1514005 C20.1896515,14.1611605 20.4484515,14.0488538 20.6828515,13.8144805 L23.5929515,10.8945605 C23.8273515,10.6601872 23.9412848,10.4046538 23.9347515,10.1279605 C23.9282848,9.85126716 23.8045848,9.59247716 23.5636515,9.35159049 L22.7922515,8.58987049 C22.5578515,8.34899049 22.3381181,8.18461716 22.1330515,8.09675049 C21.9279848,8.00881716 21.7049848,7.97461716 21.4640515,7.99415049 L20.8879515,8.04295049 L20.2433515,7.40825049 L20.4875515,6.28515049 C20.5526181,6.00521716 20.5395848,5.74318382 20.4484515,5.49905049 C20.3573181,5.25491716 20.1652515,4.98635049 19.8722515,4.69335049 L17.6750515,2.50585049 C16.8417181,1.67905049 15.9546515,1.05895049 15.0138515,0.64555049 C14.0731181,0.23215049 13.1258515,0.0173171567 12.1720515,0.00105049002 C11.2183181,-0.0152828433 10.3003515,0.15885049 9.41815148,0.52345049 C8.53601815,0.88805049 7.73362148,1.43168382 7.01096148,2.15435049 Z M8.50515148,2.52545049 C9.11061815,2.08271716 9.76001815,1.76695049 10.4533515,1.57815049 C11.1466848,1.38935049 11.8481848,1.32911716 12.5578515,1.39745049 C13.2674515,1.46585049 13.9559181,1.65628382 14.6232515,1.96875049 C15.2905848,2.28128382 15.9009515,2.71748382 16.4543515,3.27735049 L18.8859515,5.68945049 C19.0031515,5.80665049 19.0763848,5.92058382 19.1056515,6.03125049 C19.1349848,6.14191716 19.1301181,6.28191716 19.0910515,6.45125049 L18.7687515,7.93555049 L20.2726515,9.41995049 L21.2590515,9.36136049 C21.3827181,9.35484716 21.4771181,9.36298382 21.5422515,9.38577049 C21.6073181,9.40855716 21.6886848,9.46877716 21.7863515,9.56643049 L22.3625515,10.1426105 L19.9211515,12.5840105 L19.3449515,12.0078405 C19.2472848,11.9101872 19.1854181,11.8288072 19.1593515,11.7637005 C19.1333515,11.6985938 19.1236181,11.6009372 19.1301515,11.4707305 L19.1984515,10.4941705 L17.7043515,9.00979049 L16.1808515,9.26370049 C16.0181181,9.29625382 15.8895515,9.30113716 15.7951515,9.27835049 C15.7007515,9.25556382 15.5916848,9.18557716 15.4679515,9.06839049 L13.4660515,7.06645049 C13.3358515,6.94925049 13.2626181,6.83695049 13.2463515,6.72955049 C13.2300848,6.62208382 13.2609848,6.47721716 13.3390515,6.29495049 L14.2179515,4.20515049 C13.4367515,3.47595049 12.5578515,2.97138382 11.5812515,2.69145049 C10.6047181,2.41151716 9.60861815,2.42128382 8.59295148,2.72075049 C8.51488481,2.74028382 8.46445148,2.72561716 8.44165148,2.67675049 C8.41885148,2.62795049 8.44001815,2.57751716 8.50515148,2.52545049 Z" id="Shape"></path>
                </g>
                <text id="Exporting" fill="#000000" fill-rule="nonzero" font-family="Helvetica" font-size="13" font-weight="normal">
                    <tspan x="1289" y="1953">Exporting</tspan>
                </text>
                <text id="Symbols-should-be-outlined-when-exporting-to-ensure-the" fill="#000000" fill-rule="nonzero" font-family="Helvetica" font-size="13" font-weight="normal">
                    <tspan x="1289" y="1971">Symbols should be outlined when exporting to ensure the</tspan>
                </text>
                <text id="design-is-preserved-when-submitting-to-Xcode." fill="#000000" fill-rule="nonzero" font-family="Helvetica" font-size="13" font-weight="normal">
                    <tspan x="1289" y="1989">design is preserved when submitting to Xcode.</tspan>
                </text>
                <text id="template-version" fill="#000000" fill-rule="nonzero" font-family="Helvetica" font-size="13" font-weight="normal">
                    <tspan x="2952" y="1933">Template v.3.0</tspan>
                </text>
                <text id="Requires-Xcode-13-or-greater" fill="#000000" fill-rule="nonzero" font-family="Helvetica" font-size="13" font-weight="normal">
                    <tspan x="2865" y="1951">Requires Xcode 13 or greater</tspan>
                </text>
                <text id="descriptive-name" fill="#000000" fill-rule="nonzero" font-family="Helvetica" font-size="13" font-weight="normal">
                    <tspan x="2907" y="1969">Generated from pencil</tspan>
                </text>
                <text id="Typeset-at-100-points" fill="#000000" fill-rule="nonzero" font-family="Helvetica" font-size="13" font-weight="normal">
                    <tspan x="2912" y="1987">Typeset at 100 points</tspan>
                </text>
                <text id="Small" fill="#000000" fill-rule="nonzero" font-family="Helvetica" font-size="13" font-weight="normal">
                    <tspan x="263" y="726">Small</tspan>
                </text>
                <text id="Medium" fill="#000000" fill-rule="nonzero" font-family="Helvetica" font-size="13" font-weight="normal">
                    <tspan x="263" y="1156">Medium</tspan>
                </text>
                <text id="Large" fill="#000000" fill-rule="nonzero" font-family="Helvetica" font-size="13" font-weight="normal">
                    <tspan x="263" y="1586">Large</tspan>
                </text>
            </g>
            <g id="Guides" transform="translate(263.000000, 625.041000)">
                <g id="H-reference" transform="translate(76.993347, 0.500000)" fill="#27AAE1" fill-rule="nonzero">
                    <path d="M0,70.459 L2.644353,70.459 L28.334853,3.3264 L29.036753,3.3264 L29.036753,0 L27.129353,0 L0,70.459 Z M10.694853,45.9793 L45.988453,45.9793 L45.237753,43.7302 L11.444853,43.7302 L10.694853,45.9793 Z M54.125953,70.459 L56.770353,70.459 L29.644753,0 L28.439353,0 L28.439353,3.3264 L54.125953,70.459 Z" id="Shape"></path>
                </g>
                <line x1="0" y1="70.959" x2="2773" y2="70.959" id="Baseline-S" stroke="#27AAE1" stroke-width="0.5"></line>
                <line x1="0" y1="0.5" x2="2773" y2="0.5" id="Capline-S" stroke="#27AAE1" stroke-width="0.5"></line>
                <g id="H-reference" transform="translate(76.993347, 430.500000)" fill="#27AAE1" fill-rule="nonzero">
                    <path d="M0,70.459 L2.644353,70.459 L28.334853,3.3264 L29.036753,3.3264 L29.036753,0 L27.129353,0 L0,70.459 Z M10.694853,45.9793 L45.988453,45.9793 L45.237753,43.7302 L11.444853,43.7302 L10.694853,45.9793 Z M54.125953,70.459 L56.770353,70.459 L29.644753,0 L28.439353,0 L28.439353,3.3264 L54.125953,70.459 Z" id="Shape"></path>
                </g>
                <line x1="0" y1="500.959" x2="2773" y2="500.959" id="Baseline-M" stroke="#27AAE1" stroke-width="0.5"></line>
                <line x1="0" y1="430.499" x2="2773" y2="430.499" id="Capline-M" stroke="#27AAE1" stroke-width="0.5"></line>
                <g id="H-reference" transform="translate(76.993347, 860.500000)" fill="#27AAE1" fill-rule="nonzero">
                    <path d="M0,70.459 L2.644353,70.459 L28.334853,3.3264 L29.036753,3.3264 L29.036753,0 L27.129353,0 L0,70.459 Z M10.694853,45.9793 L45.988453,45.9793 L45.237753,43.7302 L11.444853,43.7302 L10.694853,45.9793 Z M54.125953,70.459 L56.770353,70.459 L29.644753,0 L28.439353,0 L28.439353,3.3264 L54.125953,70.459 Z" id="Shape"></path>
                </g>
                <line x1="0" y1="930.959" x2="2773" y2="930.959" id="Baseline-L" stroke="#27AAE1" stroke-width="0.5"></line>
                <line x1="0" y1="860.499" x2="2773" y2="860.499" id="Capline-L" stroke="#27AAE1" stroke-width="0.5"></line>
                <line x1="1136.72" y1="405.749" x2="1136.72" y2="525.079" id="left-margin-Regular-M" stroke="#00AEEF" stroke-width="0.5"></line>
                <line x1="1236.97" y1="405.749" x2="1236.97" y2="525.079" id="right-margin-Regular-M" stroke="#00AEEF" stroke-width="0.5"></line>
            </g>
            <g id="Symbols" transform="translate(525.000000, 1040.000000)" fill="#000000" fill-rule="nonzero">
                <g id="Black-M" transform="translate(2361.000000, 0.000000)" stroke="#000000" stroke-width="14">
                    <path d="M5.42501631,1.17750714 L5.48641534,1.25976092 L65.5304823,84.5280185 C68.3511088,87.2813034 71.5029146,88.8007895 74.9858996,89.0864768 L74.9858996,89.0864768 L90.3709403,88.2395777 C93.4569801,88.6067731 95,90.1763806 95,92.9484004 C95,97.1064299 93.0207002,98.884678 91.5779655,99.3253334 C90.1352308,99.7659889 80.3123355,100.377934 74.1854878,99.6921305 C70.307563,99.2580586 66.5481786,96.4231708 62.9073346,91.1874673 C62.7884319,91.0766173 62.6772793,90.9549111 62.5749837,90.8224929 L62.5135847,90.7402391 L0.579349869,4.85142073 C-0.405088775,3.48622631 -0.104649952,1.57549713 1.25039876,0.583687658 C2.57779342,-0.387880802 4.42479287,-0.117248977 5.42501631,1.17750714 Z" id="Path"></path>
                </g>
                <g id="Regular-M" transform="translate(886.000000, 13.000000)" stroke="#000000" stroke-width="7">
                    <path d="M3.90920293,0.844733383 L3.95344635,0.90374153 L47.4714925,60.9867177 C49.5473034,62.9883128 51.8715694,64.091519 54.4442906,64.2963366 L54.4442906,64.2963366 L65.6334111,63.6985254 C67.8778037,63.9577222 69,65.0656805 69,67.0224003 C69,69.95748 67.5605092,71.2127139 66.5112476,71.5237648 C65.4619861,71.8348157 58.3180622,72.2667767 53.862173,71.7826804 C50.9869231,71.4703078 48.2012761,69.3965717 45.5052318,65.5614723 C45.3522839,65.4486689 45.2127989,65.3124933 45.0907971,65.1552666 L45.0465536,65.0962585 L0.4174727,3.48036705 C-0.291902205,2.50098844 -0.0754095243,1.13024794 0.901022637,0.41873245 C1.85752761,-0.278262314 3.18845368,-0.0841133967 3.90920293,0.844733383 Z" id="Path"></path>
                </g>
                <g id="Ultralight-M" transform="translate(0.000000, 15.000000)">
                    <path d="M3.90920293,0.844733383 L3.95344635,0.90374153 L47.4714925,60.9867177 C49.5473034,62.9883128 51.8715694,64.091519 54.4442906,64.2963366 L54.4442906,64.2963366 L65.6334111,63.6985254 C67.8778037,63.9577222 69,65.0656805 69,67.0224003 C69,69.95748 67.5605092,71.2127139 66.5112476,71.5237648 C65.4619861,71.8348157 58.3180622,72.2667767 53.862173,71.7826804 C50.9869231,71.4703078 48.2012761,69.3965717 45.5052318,65.5614723 C45.3522839,65.4486689 45.2127989,65.3124933 45.0907971,65.1552666 L45.0465536,65.0962585 L0.4174727,3.48036705 C-0.291902205,2.50098844 -0.0754095243,1.13024794 0.901022637,0.41873245 C1.85752761,-0.278262314 3.18845368,-0.0841133967 3.90920293,0.844733383 Z" id="Path"></path>
                </g>
            </g>
        </g>
    </g>
</svg>