<?xml version="1.0" encoding="UTF-8"?>
<svg width="3300px" height="2200px" viewBox="0 0 3300 2200" version="1.1" xmlns="http://www.w3.org/2000/svg" xmlns:xlink="http://www.w3.org/1999/xlink">
    <title>sleep.circle.fill</title>
    <g id="Page-1" stroke="none" stroke-width="1" fill="none" fill-rule="evenodd">
        <g id="sleep.circle.fill">
            <g id="Notes">
                <rect id="artboard" fill="#FFFFFF" fill-rule="nonzero" x="0" y="0" width="3300" height="2200"></rect>
                <line x1="263" y1="292" x2="3036" y2="292" id="Path" stroke="#000000" stroke-width="0.5"></line>
                <text id="Weight/Scale-Variations" fill="#000000" fill-rule="nonzero" font-family="Helvetica" font-size="13" font-weight="normal">
                    <tspan x="263" y="322">Weight/Scale Variations</tspan>
                </text>
                <text id="Ultralight" fill="#000000" fill-rule="nonzero" font-family="Helvetica" font-size="13" font-weight="normal">
                    <tspan x="533.711" y="322">Ultralight</tspan>
                </text>
                <text id="Thin" fill="#000000" fill-rule="nonzero" font-family="Helvetica" font-size="13" font-weight="normal">
                    <tspan x="843.422" y="322">Thin</tspan>
                </text>
                <text id="Light" fill="#000000" fill-rule="nonzero" font-family="Helvetica" font-size="13" font-weight="normal">
                    <tspan x="1138.63" y="322">Light</tspan>
                </text>
                <text id="Regular" fill="#000000" fill-rule="nonzero" font-family="Helvetica" font-size="13" font-weight="normal">
                    <tspan x="1426.84" y="322">Regular</tspan>
                </text>
                <text id="Medium" fill="#000000" fill-rule="nonzero" font-family="Helvetica" font-size="13" font-weight="normal">
                    <tspan x="1723.06" y="322">Medium</tspan>
                </text>
                <text id="Semibold" fill="#000000" fill-rule="nonzero" font-family="Helvetica" font-size="13" font-weight="normal">
                    <tspan x="2015.77" y="322">Semibold</tspan>
                </text>
                <text id="Bold" fill="#000000" fill-rule="nonzero" font-family="Helvetica" font-size="13" font-weight="normal">
                    <tspan x="2326.48" y="322">Bold</tspan>
                </text>
                <text id="Heavy" fill="#000000" fill-rule="nonzero" font-family="Helvetica" font-size="13" font-weight="normal">
                    <tspan x="2618.19" y="322">Heavy</tspan>
                </text>
                <text id="Black" fill="#000000" fill-rule="nonzero" font-family="Helvetica" font-size="13" font-weight="normal">
                    <tspan x="2917.4" y="322">Black</tspan>
                </text>
                <line x1="263" y1="1903" x2="3036" y2="1903" id="Path" stroke="#000000" stroke-width="0.5"></line>
                <g id="Group" transform="translate(264.367190, 1918.068400)" fill="#000000" fill-rule="nonzero">
                    <path d="M7.88086,15.761678 C8.96156,15.761678 9.97717667,15.5566 10.92771,15.146444 C11.8782433,14.7362873 12.7164767,14.166626 13.44241,13.43746 C14.1682767,12.7082933 14.7379433,11.86845 15.15141,10.91793 C15.56481,9.96741 15.77151,8.95504 15.77151,7.88082 C15.77151,6.8066 15.56481,5.79422667 15.15141,4.8437 C14.7379433,3.89316667 14.1666433,3.05333333 13.43751,2.3242 C12.70831,1.595 11.8684767,1.02533333 10.91801,0.6152 C9.96747667,0.205066667 8.95183667,0 7.87109,0 C6.79687,0 5.7845,0.205066667 4.83398,0.6152 C3.88346,1.02533333 3.04687333,1.595 2.32422,2.3242 C1.60156,3.05333333 1.03352333,3.89316667 0.62011,4.8437 C0.206703333,5.79422667 -8.8817842e-16,6.8066 -8.8817842e-16,7.88082 C-8.8817842e-16,8.95504 0.206703333,9.96741 0.62011,10.91793 C1.03352333,11.86845 1.60318667,12.7082933 2.3291,13.43746 C3.05501333,14.166626 3.89323,14.7362873 4.84375,15.146444 C5.79427,15.5566 6.80664,15.761678 7.88086,15.761678 Z M7.88086,14.277303 C6.99544,14.277303 6.16699,14.1129153 5.39551,13.78414 C4.62402333,13.4553667 3.94694,12.99801 3.36426,12.41207 C2.78157333,11.82613 2.32584333,11.14579 1.99707,10.37105 C1.66829,9.59631 1.5039,8.76623333 1.5039,7.88082 C1.5039,6.9954 1.66666333,6.16532 1.99219,5.39058 C2.31771,4.61586 2.77181,3.93553333 3.35449,3.3496 C3.93717,2.76366667 4.61425333,2.3063 5.38574,1.9775 C6.15722667,1.6487 6.98567667,1.4843 7.87109,1.4843 C8.76303667,1.4843 9.59474333,1.6487 10.36621,1.9775 C11.1376767,2.3063 11.8163767,2.76366667 12.40231,3.3496 C12.9882433,3.93553333 13.4472433,4.61586 13.77931,5.39058 C14.11131,6.16532 14.27731,6.9954 14.27731,7.88082 C14.27731,8.76623333 14.1129433,9.59631 13.78421,10.37105 C13.45541,11.14579 12.9996767,11.82613 12.41701,12.41207 C11.8343433,12.99801 11.15561,13.4553667 10.38081,13.78414 C9.60607667,14.1129153 8.77276,14.277303 7.88086,14.277303 Z M4.47265,7.89058 C4.47265,8.10542667 4.54101,8.27958333 4.67773,8.41305 C4.81445,8.54651 4.99674333,8.61324 5.22461,8.61324 L7.13867,8.61324 L7.13867,10.53707 C7.13867,10.7584233 7.2054,10.93746 7.33886,11.07418 C7.47232667,11.2109 7.64648333,11.27926 7.86133,11.27926 C8.08268333,11.27926 8.26171667,11.2109 8.39843,11.07418 C8.53515,10.93746 8.60351,10.7584233 8.60351,10.53707 L8.60351,8.61324 L10.52731,8.61324 C10.74871,8.61324 10.9277433,8.54651 11.06441,8.41305 C11.2011433,8.27958333 11.26951,8.10542667 11.26951,7.89058 C11.26951,7.66922667 11.2011433,7.49019333 11.06441,7.35348 C10.9277433,7.21676 10.74871,7.1484 10.52731,7.1484 L8.60351,7.1484 L8.60351,5.23433 C8.60351,5.00644333 8.53515,4.82416667 8.39843,4.6875 C8.26171667,4.55076667 8.08268333,4.4824 7.86133,4.4824 C7.64648333,4.4824 7.47232667,4.55076667 7.33886,4.6875 C7.2054,4.82416667 7.13867,5.00644333 7.13867,5.23433 L7.13867,7.1484 L5.22461,7.1484 C4.99674333,7.1484 4.81445,7.21676 4.67773,7.35348 C4.54101,7.49019333 4.47265,7.66922667 4.47265,7.89058 Z" id="Shape"></path>
                </g>
                <g id="Group" transform="translate(283.615050, 1915.988300)" fill="#000000" fill-rule="nonzero">
                    <path d="M9.96095,19.92186 C11.3216167,19.92186 12.60255,19.6614433 13.80375,19.14061 C15.0048833,18.6197767 16.06445,17.9003744 16.98245,16.9824031 C17.9003833,16.0644344 18.6197833,15.0048633 19.14065,13.80369 C19.66145,12.6025167 19.92185,11.3215933 19.92185,9.96092 C19.92185,8.60024 19.66145,7.3193 19.14065,6.1181 C18.6197833,4.91696667 17.9003833,3.8574 16.98245,2.9394 C16.06445,2.02146667 15.00325,1.30206667 13.79885,0.7812 C12.5943833,0.2604 11.3118167,0 9.95115,0 C8.59048333,0 7.30956667,0.2604 6.1084,0.7812 C4.90722667,1.30206667 3.84928333,2.02146667 2.93457,2.9394 C2.01985667,3.8574 1.30208333,4.91696667 0.78125,6.1181 C0.260416667,7.3193 8.8817842e-16,8.60024 8.8817842e-16,9.96092 C8.8817842e-16,11.3215933 0.260416667,12.6025167 0.78125,13.80369 C1.30208333,15.0048633 2.02148333,16.0644344 2.93945,16.9824031 C3.85741667,17.9003744 4.91698667,18.6197767 6.11816,19.14061 C7.31933333,19.6614433 8.60026333,19.92186 9.96095,19.92186 Z M9.96095,18.2617 C8.80859667,18.2617 7.73111667,18.0468563 6.72851,17.617169 C5.72591,17.1874813 4.84537667,16.593405 4.08691,15.83494 C3.32845,15.07648 2.73600333,14.1959467 2.30957,13.19334 C1.88313667,12.1907333 1.66992,11.11326 1.66992,9.96092 C1.66992,8.80857333 1.88313667,7.7311 2.30957,6.7285 C2.73600333,5.7259 3.32682333,4.84373333 4.08203,4.082 C4.83723667,3.32026667 5.71614333,2.7262 6.71875,2.2998 C7.72135,1.87333333 8.79881667,1.6601 9.95115,1.6601 C11.1034833,1.6601 12.18095,1.87333333 13.18355,2.2998 C14.18615,2.7262 15.0683167,3.32026667 15.83005,4.082 C16.5917833,4.84373333 17.1874833,5.7259 17.61715,6.7285 C18.0468833,7.7311 18.26175,8.80857333 18.26175,9.96092 C18.26175,11.11326 18.0485167,12.1907333 17.62205,13.19334 C17.19565,14.1959467 16.6032167,15.07648 15.84475,15.83494 C15.0862833,16.593405 14.2041167,17.1874813 13.19825,17.617169 C12.1923833,18.0468563 11.1132833,18.2617 9.96095,18.2617 Z M5.64453,9.97068 C5.64453,10.20506 5.72265333,10.39712 5.8789,10.54686 C6.03515333,10.6966 6.23697667,10.77147 6.48437,10.77147 L9.13085,10.77147 L9.13085,13.43748 C9.13085,13.6783667 9.20571667,13.8753067 9.35545,14.0283 C9.50518333,14.1812933 9.69725,14.25779 9.93165,14.25779 C10.17905,14.25779 10.3808833,14.1812933 10.53715,14.0283 C10.69335,13.8753067 10.77145,13.6783667 10.77145,13.43748 L10.77145,10.77147 L13.42775,10.77147 C13.6686167,10.77147 13.8671833,10.6966 14.02345,10.54686 C14.1797167,10.39712 14.25785,10.20506 14.25785,9.97068 C14.25785,9.72328667 14.1797167,9.52309333 14.02345,9.3701 C13.8671833,9.21710667 13.6686167,9.14061 13.42775,9.14061 L10.77145,9.14061 L10.77145,6.4941 C10.77145,6.24023333 10.69335,6.0368 10.53715,5.8838 C10.3808833,5.7308 10.17905,5.6543 9.93165,5.6543 C9.69725,5.6543 9.50518333,5.7308 9.35545,5.8838 C9.20571667,6.0368 9.13085,6.24023333 9.13085,6.4941 L9.13085,9.14061 L6.48437,9.14061 C6.23046333,9.14061 6.02701333,9.21710667 5.87402,9.3701 C5.72102667,9.52309333 5.64453,9.72328667 5.64453,9.97068 Z" id="Shape"></path>
                </g>
                <g id="Group" transform="translate(307.901860, 1913.224600)" fill="#000000" fill-rule="nonzero">
                    <path d="M12.71484,25.43946 C14.10804,25.43946 15.4378067,25.22299 16.70414,24.79005 C17.9704067,24.3571033 19.13414,23.7500067 20.19534,22.96876 C21.25654,22.1875067 22.1793733,21.2662827 22.96384,20.205088 C23.7483733,19.1438893 24.3571067,17.9785233 24.79004,16.70899 C25.2229733,15.4394633 25.43944,14.11134 25.43944,12.72462 C25.43944,11.3313933 25.2229733,10.0016533 24.79004,8.7354 C24.3571067,7.46906667 23.7483733,6.30533333 22.96384,5.2442 C22.1793733,4.183 21.25654,3.26013333 20.19534,2.4756 C19.13414,1.69106667 17.9687733,1.08233333 16.69924,0.6494 C15.4297067,0.216466667 14.0983067,0 12.70504,0 C11.31184,0 9.98210667,0.216466667 8.71584,0.6494 C7.44955333,1.08233333 6.28743667,1.69106667 5.22949,2.4756 C4.17155,3.26013333 3.25032667,4.183 2.46582,5.2442 C1.68131333,6.30533333 1.07421667,7.46906667 0.64453,8.7354 C0.214843333,10.0016533 0,11.3313933 0,12.72462 C0,14.11134 0.21647,15.4394633 0.64941,16.70899 C1.08235667,17.9785233 1.68945333,19.1438893 2.4707,20.205088 C3.25195333,21.2662827 4.17317667,22.1875067 5.23437,22.96876 C6.29557,23.7500067 7.45929333,24.3571033 8.72554,24.79005 C9.99187333,25.22299 11.32164,25.43946 12.71484,25.43946 Z M12.71484,23.62306 C11.51044,23.62306 10.3629733,23.43914 9.27244,23.0713 C8.18196,22.70346 7.18424667,22.18751 6.2793,21.52345 C5.37434667,20.8593853 4.58821333,20.0732513 3.9209,19.165048 C3.25358,18.2568427 2.73763,17.2574933 2.37305,16.167 C2.00846333,15.0765067 1.82617,13.9290467 1.82617,12.72462 C1.82617,11.51368 2.00846333,10.3629733 2.37305,9.2725 C2.73763,8.18196667 3.25195333,7.1826 3.91602,6.2744 C4.58008,5.3662 5.36458333,4.58006667 6.26953,3.916 C7.17447667,3.25193333 8.17221333,2.73763333 9.26274,2.3731 C10.3532067,2.0085 11.50064,1.8262 12.70504,1.8262 C13.9159733,1.8262 15.0667067,2.0085 16.15724,2.3731 C17.2477067,2.73763333 18.24704,3.25193333 19.15524,3.916 C20.06344,4.58006667 20.8495733,5.3662 21.51364,6.2744 C22.1777067,7.1826 22.6936733,8.18196667 23.06154,9.2725 C23.42934,10.3629733 23.6134125,11.51368 23.6134125,12.72462 C23.6197733,13.9290467 23.44074,15.0765067 23.07614,16.167 C22.7116067,17.2574933 22.1956733,18.2568427 21.52834,19.165048 C20.8610067,20.0732513 20.07324,20.8593853 19.16504,21.52345 C18.25684,22.18751 17.2575067,22.70346 16.16704,23.0713 C15.0765067,23.43914 13.9257733,23.62306 12.71484,23.62306 Z M7.19726,12.73438 C7.19726,12.9882867 7.28352333,13.19825 7.45605,13.36427 C7.62857667,13.5302833 7.84830667,13.61329 8.11524,13.61329 L11.80664,13.61329 L11.80664,17.31446 C11.80664,17.5813867 11.88964,17.7994867 12.05564,17.96876 C12.22164,18.1380333 12.4316067,18.22267 12.68554,18.22267 C12.9590067,18.22267 13.1803733,18.1380333 13.34964,17.96876 C13.5189067,17.7994867 13.60354,17.5813867 13.60354,17.31446 L13.60354,13.61329 L17.30464,13.61329 C17.5715733,13.61329 17.7896733,13.5302833 17.95894,13.36427 C18.1282733,13.19825 18.21294,12.9882867 18.21294,12.73438 C18.21294,12.4609467 18.1282733,12.2395933 17.95894,12.07032 C17.7896733,11.9010533 17.5715733,11.81642 17.30464,11.81642 L13.60354,11.81642 L13.60354,8.125 C13.60354,7.8516 13.5189067,7.63023333 13.34964,7.4609 C13.1803733,7.29163333 12.9590067,7.207 12.68554,7.207 C12.4316067,7.207 12.22164,7.29326667 12.05564,7.4658 C11.88964,7.63833333 11.80664,7.85806667 11.80664,8.125 L11.80664,11.81642 L8.11524,11.81642 C7.8418,11.81642 7.62044333,11.9010533 7.45117,12.07032 C7.28189667,12.2395933 7.19726,12.4609467 7.19726,12.73438 Z" id="Shape"></path>
                </g>
                <text id="Design-Variations" fill="#000000" fill-rule="nonzero" font-family="Helvetica" font-size="13" font-weight="normal">
                    <tspan x="263" y="1953">Design Variations</tspan>
                </text>
                <text id="Symbols-are-supported-in-up-to-nine-weights-and-three-scales." fill="#000000" fill-rule="nonzero" font-family="Helvetica" font-size="13" font-weight="normal">
                    <tspan x="263" y="1971">Symbols are supported in up to nine weights and three scales.</tspan>
                </text>
                <text id="For-optimal-layout-with-text-and-other-symbols,-vertically-align" fill="#000000" fill-rule="nonzero" font-family="Helvetica" font-size="13" font-weight="normal">
                    <tspan x="263" y="1989">For optimal layout with text and other symbols, vertically align</tspan>
                </text>
                <text id="symbols-with-the-adjacent-text." fill="#000000" fill-rule="nonzero" font-family="Helvetica" font-size="13" font-weight="normal">
                    <tspan x="263" y="2007">symbols with the adjacent text.</tspan>
                </text>
                <line x1="776" y1="1919" x2="776" y2="1933" id="Path" stroke="#00AEEF" stroke-width="0.5"></line>
                <g id="Group" transform="translate(778.490230, 1918.732400)" fill="#000000" fill-rule="nonzero">
                    <path d="M0.82032,14.42385 C1.08073333,14.42385 1.28255667,14.3685115 1.42579,14.2578344 C1.56901667,14.1471575 1.68620333,13.9551 1.77735,13.681662 L3.03711,10.2344 L8.79887,10.2344 L10.05857,13.681662 C10.1497033,13.9551 10.2669033,14.1471575 10.41017,14.2578344 C10.55337,14.3685115 10.7519367,14.42385 11.00587,14.42385 C11.26627,14.42385 11.47297,14.3522354 11.62597,14.2090062 C11.77897,14.0657767 11.85547,13.8704643 11.85547,13.623069 C11.85547,13.473329 11.81967,13.297546 11.74807,13.09572 L7.16797,0.8985 C7.05078333,0.598966667 6.89128,0.374333333 6.68946,0.2246 C6.48763333,0.0748666667 6.23047,0 5.91797,0 C5.31250333,0 4.90234667,0.296233333 4.6875,0.8887 L0.10743,13.10549 C0.03581,13.3073133 -4.4408921e-16,13.4830947 -4.4408921e-16,13.632834 C-4.4408921e-16,13.88023 0.0732433333,14.073915 0.21973,14.2138891 C0.366216667,14.353863 0.566413333,14.42385 0.82032,14.42385 Z M3.51563,8.75002 L5.88868,2.1778 L5.9375,2.1778 L8.31057,8.75002 L3.51563,8.75002 Z" id="Shape"></path>
                </g>
                <line x1="793.197" y1="1919" x2="793.197" y2="1933" id="Path" stroke="#00AEEF" stroke-width="0.5"></line>
                <text id="Margins" fill="#000000" fill-rule="nonzero" font-family="Helvetica" font-size="13" font-weight="normal">
                    <tspan x="776" y="1953">Margins</tspan>
                </text>
                <text id="Leading-and-trailing-margins-on-the-left-and-right-side-of-each-symbol" fill="#000000" fill-rule="nonzero" font-family="Helvetica" font-size="13" font-weight="normal">
                    <tspan x="776" y="1971">Leading and trailing margins on the left and right side of each symbol</tspan>
                </text>
                <text id="can-be-adjusted-by-modifying-the-x-location-of-the-margin-guidelines." fill="#000000" fill-rule="nonzero" font-family="Helvetica" font-size="13" font-weight="normal">
                    <tspan x="776" y="1989">can be adjusted by modifying the x-location of the margin guidelines.</tspan>
                </text>
                <text id="Modifications-are-automatically-applied-proportionally-to-all" fill="#000000" fill-rule="nonzero" font-family="Helvetica" font-size="13" font-weight="normal">
                    <tspan x="776" y="2007">Modifications are automatically applied proportionally to all</tspan>
                </text>
                <text id="scales-and-weights." fill="#000000" fill-rule="nonzero" font-family="Helvetica" font-size="13" font-weight="normal">
                    <tspan x="776" y="2025">scales and weights.</tspan>
                </text>
                <g id="Group" transform="translate(1291.246849, 1914.517550)" fill="#000000" fill-rule="nonzero">
                    <path d="M0.594951479,20.3476805 L2.29417148,22.0566705 C2.72385815,22.4928705 3.17795815,22.6946938 3.65647148,22.6621405 C4.13498481,22.6295872 4.60536148,22.3561505 5.06760148,21.8418305 L15.7609515,10.0547205 L14.7941515,9.07815049 L4.17893148,20.7578405 C4.00315148,20.9596605 3.82574148,21.0735938 3.64670148,21.0996405 C3.46766815,21.1256805 3.26096481,21.0215138 3.02659148,20.7871405 L1.85471148,19.6250305 C1.62033815,19.3906545 1.51780148,19.1839482 1.54710148,19.0049115 C1.57639481,18.8258748 1.69195148,18.6452108 1.89377148,18.4629193 L13.3683515,7.66215049 L12.3918515,6.69535049 L0.800031479,17.5840125 C0.305238146,18.0397418 0.039938146,18.5052368 0.00413147929,18.9804975 C-0.0316751874,19.4557595 0.165264813,19.9114872 0.594951479,20.3476805 Z M7.01096148,2.15435049 C6.80262815,2.35615049 6.68544148,2.58725049 6.65940148,2.84765049 C6.63336148,3.10811716 6.67893481,3.33598382 6.79612148,3.53125049 C6.91330815,3.71358382 7.08420481,3.85031716 7.30881148,3.94145049 C7.53342481,4.03258382 7.80850481,4.03908382 8.13405148,3.96095049 C8.86318481,3.79168382 9.60211815,3.72171716 10.3508515,3.75105049 C11.0995181,3.78031716 11.8319181,4.02931716 12.5480515,4.49805049 L11.9621515,5.95315049 C11.7928848,6.36981716 11.7456848,6.73278382 11.8205515,7.04205049 C11.8954181,7.35125049 12.0663181,7.64258382 12.3332515,7.91605049 L14.6281515,10.2305005 C14.8690181,10.4778938 15.1033848,10.6211205 15.3312515,10.6601805 C15.5591181,10.6992472 15.8130181,10.6927372 16.0929515,10.6406505 L17.1574515,10.4453405 L17.8215515,11.1191705 L17.7824515,11.6758105 C17.7629181,11.9232038 17.7938515,12.1510672 17.8752515,12.3594005 C17.9565848,12.5677338 18.1177181,12.7923438 18.3586515,13.0332305 L19.1203515,13.7754205 C19.3612181,14.0163072 19.6232515,14.1416338 19.9064515,14.1514005 C20.1896515,14.1611605 20.4484515,14.0488538 20.6828515,13.8144805 L23.5929515,10.8945605 C23.8273515,10.6601872 23.9412848,10.4046538 23.9347515,10.1279605 C23.9282848,9.85126716 23.8045848,9.59247716 23.5636515,9.35159049 L22.7922515,8.58987049 C22.5578515,8.34899049 22.3381181,8.18461716 22.1330515,8.09675049 C21.9279848,8.00881716 21.7049848,7.97461716 21.4640515,7.99415049 L20.8879515,8.04295049 L20.2433515,7.40825049 L20.4875515,6.28515049 C20.5526181,6.00521716 20.5395848,5.74318382 20.4484515,5.49905049 C20.3573181,5.25491716 20.1652515,4.98635049 19.8722515,4.69335049 L17.6750515,2.50585049 C16.8417181,1.67905049 15.9546515,1.05895049 15.0138515,0.64555049 C14.0731181,0.23215049 13.1258515,0.0173171567 12.1720515,0.00105049002 C11.2183181,-0.0152828433 10.3003515,0.15885049 9.41815148,0.52345049 C8.53601815,0.88805049 7.73362148,1.43168382 7.01096148,2.15435049 Z M8.50515148,2.52545049 C9.11061815,2.08271716 9.76001815,1.76695049 10.4533515,1.57815049 C11.1466848,1.38935049 11.8481848,1.32911716 12.5578515,1.39745049 C13.2674515,1.46585049 13.9559181,1.65628382 14.6232515,1.96875049 C15.2905848,2.28128382 15.9009515,2.71748382 16.4543515,3.27735049 L18.8859515,5.68945049 C19.0031515,5.80665049 19.0763848,5.92058382 19.1056515,6.03125049 C19.1349848,6.14191716 19.1301181,6.28191716 19.0910515,6.45125049 L18.7687515,7.93555049 L20.2726515,9.41995049 L21.2590515,9.36136049 C21.3827181,9.35484716 21.4771181,9.36298382 21.5422515,9.38577049 C21.6073181,9.40855716 21.6886848,9.46877716 21.7863515,9.56643049 L22.3625515,10.1426105 L19.9211515,12.5840105 L19.3449515,12.0078405 C19.2472848,11.9101872 19.1854181,11.8288072 19.1593515,11.7637005 C19.1333515,11.6985938 19.1236181,11.6009372 19.1301515,11.4707305 L19.1984515,10.4941705 L17.7043515,9.00979049 L16.1808515,9.26370049 C16.0181181,9.29625382 15.8895515,9.30113716 15.7951515,9.27835049 C15.7007515,9.25556382 15.5916848,9.18557716 15.4679515,9.06839049 L13.4660515,7.06645049 C13.3358515,6.94925049 13.2626181,6.83695049 13.2463515,6.72955049 C13.2300848,6.62208382 13.2609848,6.47721716 13.3390515,6.29495049 L14.2179515,4.20515049 C13.4367515,3.47595049 12.5578515,2.97138382 11.5812515,2.69145049 C10.6047181,2.41151716 9.60861815,2.42128382 8.59295148,2.72075049 C8.51488481,2.74028382 8.46445148,2.72561716 8.44165148,2.67675049 C8.41885148,2.62795049 8.44001815,2.57751716 8.50515148,2.52545049 Z" id="Shape"></path>
                </g>
                <text id="Exporting" fill="#000000" fill-rule="nonzero" font-family="Helvetica" font-size="13" font-weight="normal">
                    <tspan x="1289" y="1953">Exporting</tspan>
                </text>
                <text id="Symbols-should-be-outlined-when-exporting-to-ensure-the" fill="#000000" fill-rule="nonzero" font-family="Helvetica" font-size="13" font-weight="normal">
                    <tspan x="1289" y="1971">Symbols should be outlined when exporting to ensure the</tspan>
                </text>
                <text id="design-is-preserved-when-submitting-to-Xcode." fill="#000000" fill-rule="nonzero" font-family="Helvetica" font-size="13" font-weight="normal">
                    <tspan x="1289" y="1989">design is preserved when submitting to Xcode.</tspan>
                </text>
                <text id="template-version" fill="#000000" fill-rule="nonzero" font-family="Helvetica" font-size="13" font-weight="normal">
                    <tspan x="2952" y="1933">Template v.3.0</tspan>
                </text>
                <text id="Requires-Xcode-13-or-greater" fill="#000000" fill-rule="nonzero" font-family="Helvetica" font-size="13" font-weight="normal">
                    <tspan x="2865" y="1951">Requires Xcode 13 or greater</tspan>
                </text>
                <text id="descriptive-name" fill="#000000" fill-rule="nonzero" font-family="Helvetica" font-size="13" font-weight="normal">
                    <tspan x="2860" y="1969">Generated from sleep.circle.fill</tspan>
                </text>
                <text id="Typeset-at-100-points" fill="#000000" fill-rule="nonzero" font-family="Helvetica" font-size="13" font-weight="normal">
                    <tspan x="2912" y="1987">Typeset at 100 points</tspan>
                </text>
                <text id="Small" fill="#000000" fill-rule="nonzero" font-family="Helvetica" font-size="13" font-weight="normal">
                    <tspan x="263" y="726">Small</tspan>
                </text>
                <text id="Medium" fill="#000000" fill-rule="nonzero" font-family="Helvetica" font-size="13" font-weight="normal">
                    <tspan x="263" y="1156">Medium</tspan>
                </text>
                <text id="Large" fill="#000000" fill-rule="nonzero" font-family="Helvetica" font-size="13" font-weight="normal">
                    <tspan x="263" y="1586">Large</tspan>
                </text>
            </g>
            <g id="Guides" transform="translate(263.000000, 625.041000)">
                <g id="H-reference" transform="translate(76.993347, 0.500000)" fill="#27AAE1" fill-rule="nonzero">
                    <path d="M0,70.459 L2.644353,70.459 L28.334853,3.3264 L29.036753,3.3264 L29.036753,0 L27.129353,0 L0,70.459 Z M10.694853,45.9793 L45.988453,45.9793 L45.237753,43.7302 L11.444853,43.7302 L10.694853,45.9793 Z M54.125953,70.459 L56.770353,70.459 L29.644753,0 L28.439353,0 L28.439353,3.3264 L54.125953,70.459 Z" id="Shape"></path>
                </g>
                <line x1="0" y1="70.959" x2="2773" y2="70.959" id="Baseline-S" stroke="#27AAE1" stroke-width="0.5"></line>
                <line x1="0" y1="0.5" x2="2773" y2="0.5" id="Capline-S" stroke="#27AAE1" stroke-width="0.5"></line>
                <g id="H-reference" transform="translate(76.993347, 430.500000)" fill="#27AAE1" fill-rule="nonzero">
                    <path d="M0,70.459 L2.644353,70.459 L28.334853,3.3264 L29.036753,3.3264 L29.036753,0 L27.129353,0 L0,70.459 Z M10.694853,45.9793 L45.988453,45.9793 L45.237753,43.7302 L11.444853,43.7302 L10.694853,45.9793 Z M54.125953,70.459 L56.770353,70.459 L29.644753,0 L28.439353,0 L28.439353,3.3264 L54.125953,70.459 Z" id="Shape"></path>
                </g>
                <line x1="0" y1="500.959" x2="2773" y2="500.959" id="Baseline-M" stroke="#27AAE1" stroke-width="0.5"></line>
                <line x1="0" y1="430.499" x2="2773" y2="430.499" id="Capline-M" stroke="#27AAE1" stroke-width="0.5"></line>
                <g id="H-reference" transform="translate(76.993347, 860.500000)" fill="#27AAE1" fill-rule="nonzero">
                    <path d="M0,70.459 L2.644353,70.459 L28.334853,3.3264 L29.036753,3.3264 L29.036753,0 L27.129353,0 L0,70.459 Z M10.694853,45.9793 L45.988453,45.9793 L45.237753,43.7302 L11.444853,43.7302 L10.694853,45.9793 Z M54.125953,70.459 L56.770353,70.459 L29.644753,0 L28.439353,0 L28.439353,3.3264 L54.125953,70.459 Z" id="Shape"></path>
                </g>
                <line x1="0" y1="930.959" x2="2773" y2="930.959" id="Baseline-L" stroke="#27AAE1" stroke-width="0.5"></line>
                <line x1="0" y1="860.499" x2="2773" y2="860.499" id="Capline-L" stroke="#27AAE1" stroke-width="0.5"></line>
                <line x1="1128.3" y1="405.749" x2="1128.3" y2="525.079" id="left-margin-Regular-M" stroke="#00AEEF" stroke-width="0.5"></line>
                <line x1="1245.39" y1="405.749" x2="1245.39" y2="525.079" id="right-margin-Regular-M" stroke="#00AEEF" stroke-width="0.5"></line>
            </g>
            <g id="Symbols" transform="translate(512.380000, 1037.520000)" fill="#000000" fill-rule="nonzero">
                <g id="Black-M" transform="translate(2367.680000, 0.000000)">
                    <path d="M53.345,0 C23.9317034,0 0,23.9181094 0,53.32 C0,82.7218906 23.9317034,106.64 53.345,106.64 C82.7582966,106.64 106.69,82.7218906 106.69,53.32 C106.69,23.9181094 82.7580983,0 53.345,0 Z M89.5356228,25.0663795 L87.6511914,25.0663795 C86.8382416,25.0663795 86.1193332,25.5910611 85.8686655,26.3625266 L81.8294748,38.7878534 L71.2650594,43.4282731 L58.8417709,34.4078094 L58.8417709,21.955135 L69.3257432,14.3464319 C69.9838689,13.8687489 70.2581288,13.0227734 70.0074611,12.2513079 L69.4099545,10.4127932 C77.5745132,13.0679707 84.579447,18.2682801 89.5356228,25.0663795 Z M37.2819943,10.410613 L36.6844877,12.2491277 C36.43382,13.0225583 36.7079161,13.8664049 37.3662056,14.3442517 L47.8482119,21.9529548 L47.8482119,34.4056292 L35.4249234,43.4260929 L24.858542,38.7837081 L20.8173852,26.3583813 C20.5667175,25.5829857 19.8458431,25.0622342 19.0348593,25.0622342 L17.1541961,25.0622342 C22.1102081,18.2679012 29.1172718,13.0675918 37.2819943,10.410613 Z M6.19948777,54.2517716 L7.93321557,55.511763 C8.29464124,55.771961 8.71831344,55.9073647 9.14414447,55.9073647 C9.56781667,55.9073647 9.99382761,55.7741189 10.3550734,55.511763 L21.7553636,47.2319991 L33.3558862,52.3296867 L38.6193161,68.5128535 L31.6048877,76.8613082 L17.2921434,76.8613082 C16.3994634,76.8613082 15.6100479,77.4374481 15.3347959,78.2845753 L14.6959593,80.247479 C9.3765795,72.9482679 6.19732893,63.9913058 6.19732893,54.286117 C6.19732893,54.2733499 6.19948777,54.2625607 6.19948777,54.2517716 Z M39.440921,98.6804899 L41.181267,97.4101161 C41.914919,96.8818129 42.2228446,95.9345548 41.9434103,95.0769292 L37.5082584,81.441815 L44.629267,72.9708916 L62.0595745,72.9708916 L69.1740082,81.441815 L64.7410479,95.0791198 C64.4616136,95.9413092 64.7715483,96.8819955 65.5053829,97.4146799 L67.2457289,98.6806725 C62.8651854,100.106032 58.1986328,100.907067 53.3465211,100.907067 C48.4902088,100.906702 43.8236561,100.110048 39.440921,98.6804899 Z M91.9920657,80.2547133 L91.3532257,78.2853253 C91.0758134,77.4360358 90.2842347,76.8642084 89.3937086,76.8642084 L75.0828654,76.8663662 L68.0748753,68.5200238 L73.3341961,52.3347909 L84.9389196,47.2392334 L96.337293,55.5125689 C96.6987206,55.7769042 97.1223952,55.9103306 97.5484084,55.9103306 C97.9742418,55.9103306 98.400255,55.777084 98.7595238,55.5125689 L100.493261,54.2549082 C100.493261,54.2656974 100.49542,54.2764866 100.49542,54.2892538 C100.492901,63.991978 97.3094956,72.9489889 91.9920657,80.2547133 Z" id="Shape"></path>
                </g>
                <g id="Regular-M" transform="translate(887.660000, 3.470000)">
                    <path d="M49.805,0 C22.343584,0 0,22.3413624 0,49.805 C0,77.2686376 22.343584,99.61 49.805,99.61 C77.266416,99.61 99.61,77.2686376 99.61,49.805 C99.61,22.3413624 77.2662309,0 49.805,0 Z M86.6075148,23.0496834 L84.4781086,23.0496834 C83.5594759,23.0496834 82.7471099,23.6428513 82.4638555,24.5150155 L77.8995728,38.5622093 L65.9617907,43.8083389 L51.9234833,33.610442 L51.9234833,19.5323309 L63.7703648,10.9304704 C64.5140463,10.3904358 64.8239599,9.43403584 64.5407055,8.56187165 L63.8655235,6.4833772 C73.0914692,9.4851327 81.0070396,15.364234 86.6075148,23.0496834 Z M35.7466982,6.48134073 L35.0715161,8.55983518 C34.7882617,9.43422097 35.0979902,10.3882142 35.8418568,10.9284339 L47.6865167,19.5302944 L47.6865167,33.6084056 L33.6482093,43.8063025 L21.7082056,38.5579512 L17.1417013,24.5107574 C16.8584469,23.63415 16.0438593,23.0454253 15.1274481,23.0454253 L13.0023,23.0454253 C18.6025902,15.364234 26.5205673,9.4851327 35.7466982,6.48134073 Z M4.24122468,49.7694544 L6.02535677,51.0666852 C6.39729009,51.3345735 6.83327962,51.473979 7.27149075,51.473979 C7.70748028,51.473979 8.14587655,51.3367951 8.51762473,51.0666852 L20.2493532,42.5422105 L32.1871352,47.7905618 L37.6035877,64.4520266 L30.3852303,73.0472223 L15.6563747,73.0472223 C14.737742,73.0472223 13.925376,73.6403902 13.6421216,74.5125544 L12.9847123,76.5334723 C7.51068331,69.0185309 4.23900307,59.7968433 4.23900307,49.8048149 C4.23900307,49.7916704 4.24122468,49.7805624 4.24122468,49.7694544 Z M35.7111525,93.1153297 L37.4752902,91.8269852 C38.2189717,91.2912087 38.5311069,90.3305507 38.2478525,89.4607932 L33.7520692,75.6327975 L40.9704266,67.042045 L58.639018,67.042045 L65.8507106,75.6327975 L61.3571489,89.4630148 C61.0738945,90.3374006 61.3880662,91.2913938 62.1319328,91.8316136 L63.8960705,93.1155148 C59.4556421,94.5610376 54.7252946,95.3734037 49.8068513,95.3734037 C44.88415,95.3730334 40.1538025,94.5651105 35.7111525,93.1153297 Z M86.6228809,76.5401371 L85.9654717,74.5125544 C85.6799957,73.6381686 84.8654081,73.0494439 83.9489969,73.0494439 L69.2221778,73.0516655 L62.0104852,64.4586914 L67.4226796,47.7951901 L79.3647198,42.5490605 L91.0944117,51.0668703 C91.4663451,51.3390167 91.9023346,51.4763858 92.3407309,51.4763858 C92.778942,51.4763858 93.2173382,51.3392018 93.58705,51.0668703 L95.3711821,49.7720462 C95.3711821,49.7831542 95.3734037,49.7942623 95.3734037,49.8074067 C95.3708118,59.7968433 92.0948735,69.0185309 86.6228809,76.5401371 Z" id="Shape"></path>
                </g>
                <g id="Ultralight-M" transform="translate(-0.000000, 5.960000)">
                    <path d="M47.34,0 C21.2377325,0 0,21.2244064 0,47.315 C0,73.4055936 21.2377325,94.63 47.34,94.63 C73.4422675,94.63 94.68,73.4055936 94.68,47.315 C94.68,21.2244064 73.4420916,0 47.34,0 Z M82.3716,23.0043211 L80.2789833,23.0043211 C79.3762217,23.0043211 78.5778908,23.5908261 78.2995302,24.4531935 L73.814104,38.3425988 L62.0825694,43.5298 L48.2868,33.4464535 L48.2868,19.5264781 L59.9290045,11.0212401 C60.6598375,10.4872716 60.9643967,9.54161465 60.6860361,8.67924726 L60.0225191,6.6241 C69.0890693,9.59213756 76.8678834,15.4052004 82.3716,23.0043211 Z M34.6597268,4.7315 L33.9962133,6.78664726 C33.7178542,7.6512113 34.0222298,8.59448856 34.7532409,9.12864013 L46.3932,17.6338781 L46.3932,31.5538535 L32.5975042,41.6372 L20.8638491,36.4478022 L16.3762636,22.5583968 C16.0979045,21.6916362 15.2973946,21.1095244 14.3968211,21.1095244 L12.3084,21.1095244 C17.8119053,13.514614 25.593043,7.70155115 34.6597268,4.7315 Z M3.7895326,44.5514106 L5.66280639,45.9237528 C6.05332284,46.2071522 6.51109599,46.3546295 6.97120173,46.3546295 C7.42897487,46.3546295 7.889275,46.2095024 8.27959707,45.9237528 L20.5974851,36.9057 L33.1317219,42.4579376 L38.8188,60.0841229 L31.2397873,69.1769916 L15.7750248,69.1769916 C14.8104939,69.1769916 13.9575391,69.8045047 13.6601324,70.7271683 L12.9698765,72.8651 C7.22234521,64.9150337 3.7872,55.1593984 3.7872,44.5888186 C3.7872,44.574913 3.7895326,44.5631618 3.7895326,44.5514106 Z M33.2669187,88.5067096 L35.0881794,87.1727118 C35.8559414,86.6179496 36.1781836,85.62325 35.8857574,84.7226721 L31.2444,70.4046718 L38.6964889,61.5095 L56.9371917,61.5095 L64.3824,70.4046718 L59.7433361,84.7249724 C59.45091,85.6303427 59.7752545,86.6181413 60.5432077,87.1775041 L62.3644684,88.5069013 C57.7802583,90.0036472 52.8967414,90.8448 47.8190383,90.8448 C42.7369392,90.8444166 37.8534223,90.0078645 33.2669187,88.5067096 Z M81.9529401,72.8651 L81.2813063,70.8330003 C80.9896534,69.9566666 80.1574403,69.3666304 79.2212006,69.3666304 L64.1757338,69.368857 L56.808,60.7567399 L62.3372994,44.0561167 L74.5377324,38.7983 L86.5212225,47.3350854 C86.9012034,47.607838 87.3466266,47.7455131 87.7945085,47.7455131 C88.2422013,47.7455131 88.6900833,47.6080235 89.0677945,47.3350854 L90.8905303,46.0373767 C90.8905303,46.0485095 90.8928,46.0596422 90.8928,46.072816 C90.890152,56.0845064 87.5433315,65.3267376 81.9529401,72.8651 Z" id="Shape"></path>
                </g>
            </g>
        </g>
    </g>
</svg>