<?xml version="1.0" encoding="UTF-8"?>
<svg width="3300px" height="2200px" viewBox="0 0 3300 2200" version="1.1" xmlns="http://www.w3.org/2000/svg" xmlns:xlink="http://www.w3.org/1999/xlink">
    <title>football</title>
    <g id="Page-1" stroke="none" stroke-width="1" fill="none" fill-rule="evenodd">
        <g id="football">
            <g id="Notes">
                <rect id="artboard" fill="#FFFFFF" fill-rule="nonzero" x="0" y="0" width="3300" height="2200"></rect>
                <line x1="263" y1="292" x2="3036" y2="292" id="Path" stroke="#000000" stroke-width="0.5"></line>
                <text id="Weight/Scale-Variations" fill="#000000" fill-rule="nonzero" font-family="Helvetica" font-size="13" font-weight="normal">
                    <tspan x="263" y="322">Weight/Scale Variations</tspan>
                </text>
                <text id="Ultralight" fill="#000000" fill-rule="nonzero" font-family="Helvetica" font-size="13" font-weight="normal">
                    <tspan x="533.711" y="322">Ultralight</tspan>
                </text>
                <text id="Thin" fill="#000000" fill-rule="nonzero" font-family="Helvetica" font-size="13" font-weight="normal">
                    <tspan x="843.422" y="322">Thin</tspan>
                </text>
                <text id="Light" fill="#000000" fill-rule="nonzero" font-family="Helvetica" font-size="13" font-weight="normal">
                    <tspan x="1138.63" y="322">Light</tspan>
                </text>
                <text id="Regular" fill="#000000" fill-rule="nonzero" font-family="Helvetica" font-size="13" font-weight="normal">
                    <tspan x="1426.84" y="322">Regular</tspan>
                </text>
                <text id="Medium" fill="#000000" fill-rule="nonzero" font-family="Helvetica" font-size="13" font-weight="normal">
                    <tspan x="1723.06" y="322">Medium</tspan>
                </text>
                <text id="Semibold" fill="#000000" fill-rule="nonzero" font-family="Helvetica" font-size="13" font-weight="normal">
                    <tspan x="2015.77" y="322">Semibold</tspan>
                </text>
                <text id="Bold" fill="#000000" fill-rule="nonzero" font-family="Helvetica" font-size="13" font-weight="normal">
                    <tspan x="2326.48" y="322">Bold</tspan>
                </text>
                <text id="Heavy" fill="#000000" fill-rule="nonzero" font-family="Helvetica" font-size="13" font-weight="normal">
                    <tspan x="2618.19" y="322">Heavy</tspan>
                </text>
                <text id="Black" fill="#000000" fill-rule="nonzero" font-family="Helvetica" font-size="13" font-weight="normal">
                    <tspan x="2917.4" y="322">Black</tspan>
                </text>
                <line x1="263" y1="1903" x2="3036" y2="1903" id="Path" stroke="#000000" stroke-width="0.5"></line>
                <g id="Group" transform="translate(264.367190, 1918.068400)" fill="#000000" fill-rule="nonzero">
                    <path d="M7.88086,15.761678 C8.96156,15.761678 9.97717667,15.5566 10.92771,15.146444 C11.8782433,14.7362873 12.7164767,14.166626 13.44241,13.43746 C14.1682767,12.7082933 14.7379433,11.86845 15.15141,10.91793 C15.56481,9.96741 15.77151,8.95504 15.77151,7.88082 C15.77151,6.8066 15.56481,5.79422667 15.15141,4.8437 C14.7379433,3.89316667 14.1666433,3.05333333 13.43751,2.3242 C12.70831,1.595 11.8684767,1.02533333 10.91801,0.6152 C9.96747667,0.205066667 8.95183667,0 7.87109,0 C6.79687,0 5.7845,0.205066667 4.83398,0.6152 C3.88346,1.02533333 3.04687333,1.595 2.32422,2.3242 C1.60156,3.05333333 1.03352333,3.89316667 0.62011,4.8437 C0.206703333,5.79422667 -2.99874823e-25,6.8066 -2.99874823e-25,7.88082 C-2.99874823e-25,8.95504 0.206703333,9.96741 0.62011,10.91793 C1.03352333,11.86845 1.60318667,12.7082933 2.3291,13.43746 C3.05501333,14.166626 3.89323,14.7362873 4.84375,15.146444 C5.79427,15.5566 6.80664,15.761678 7.88086,15.761678 Z M7.88086,14.277303 C6.99544,14.277303 6.16699,14.1129153 5.39551,13.78414 C4.62402333,13.4553667 3.94694,12.99801 3.36426,12.41207 C2.78157333,11.82613 2.32584333,11.14579 1.99707,10.37105 C1.66829,9.59631 1.5039,8.76623333 1.5039,7.88082 C1.5039,6.9954 1.66666333,6.16532 1.99219,5.39058 C2.31771,4.61586 2.77181,3.93553333 3.35449,3.3496 C3.93717,2.76366667 4.61425333,2.3063 5.38574,1.9775 C6.15722667,1.6487 6.98567667,1.4843 7.87109,1.4843 C8.76303667,1.4843 9.59474333,1.6487 10.36621,1.9775 C11.1376767,2.3063 11.8163767,2.76366667 12.40231,3.3496 C12.9882433,3.93553333 13.4472433,4.61586 13.77931,5.39058 C14.11131,6.16532 14.27731,6.9954 14.27731,7.88082 C14.27731,8.76623333 14.1129433,9.59631 13.78421,10.37105 C13.45541,11.14579 12.9996767,11.82613 12.41701,12.41207 C11.8343433,12.99801 11.15561,13.4553667 10.38081,13.78414 C9.60607667,14.1129153 8.77276,14.277303 7.88086,14.277303 Z M4.47265,7.89058 C4.47265,8.10542667 4.54101,8.27958333 4.67773,8.41305 C4.81445,8.54651 4.99674333,8.61324 5.22461,8.61324 L7.13867,8.61324 L7.13867,10.53707 C7.13867,10.7584233 7.2054,10.93746 7.33886,11.07418 C7.47232667,11.2109 7.64648333,11.27926 7.86133,11.27926 C8.08268333,11.27926 8.26171667,11.2109 8.39843,11.07418 C8.53515,10.93746 8.60351,10.7584233 8.60351,10.53707 L8.60351,8.61324 L10.52731,8.61324 C10.74871,8.61324 10.9277433,8.54651 11.06441,8.41305 C11.2011433,8.27958333 11.26951,8.10542667 11.26951,7.89058 C11.26951,7.66922667 11.2011433,7.49019333 11.06441,7.35348 C10.9277433,7.21676 10.74871,7.1484 10.52731,7.1484 L8.60351,7.1484 L8.60351,5.23433 C8.60351,5.00644333 8.53515,4.82416667 8.39843,4.6875 C8.26171667,4.55076667 8.08268333,4.4824 7.86133,4.4824 C7.64648333,4.4824 7.47232667,4.55076667 7.33886,4.6875 C7.2054,4.82416667 7.13867,5.00644333 7.13867,5.23433 L7.13867,7.1484 L5.22461,7.1484 C4.99674333,7.1484 4.81445,7.21676 4.67773,7.35348 C4.54101,7.49019333 4.47265,7.66922667 4.47265,7.89058 Z" id="Shape"></path>
                </g>
                <g id="Group" transform="translate(283.615050, 1915.988300)" fill="#000000" fill-rule="nonzero">
                    <path d="M9.96095,19.92186 C11.3216167,19.92186 12.60255,19.6614433 13.80375,19.14061 C15.0048833,18.6197767 16.06445,17.9003744 16.98245,16.9824031 C17.9003833,16.0644344 18.6197833,15.0048633 19.14065,13.80369 C19.66145,12.6025167 19.92185,11.3215933 19.92185,9.96092 C19.92185,8.60024 19.66145,7.3193 19.14065,6.1181 C18.6197833,4.91696667 17.9003833,3.8574 16.98245,2.9394 C16.06445,2.02146667 15.00325,1.30206667 13.79885,0.7812 C12.5943833,0.2604 11.3118167,0 9.95115,0 C8.59048333,0 7.30956667,0.2604 6.1084,0.7812 C4.90722667,1.30206667 3.84928333,2.02146667 2.93457,2.9394 C2.01985667,3.8574 1.30208333,4.91696667 0.78125,6.1181 C0.260416667,7.3193 -8.88178419e-16,8.60024 -8.88178419e-16,9.96092 C-8.88178419e-16,11.3215933 0.260416667,12.6025167 0.78125,13.80369 C1.30208333,15.0048633 2.02148333,16.0644344 2.93945,16.9824031 C3.85741667,17.9003744 4.91698667,18.6197767 6.11816,19.14061 C7.31933333,19.6614433 8.60026333,19.92186 9.96095,19.92186 Z M9.96095,18.2617 C8.80859667,18.2617 7.73111667,18.0468563 6.72851,17.617169 C5.72591,17.1874813 4.84537667,16.593405 4.08691,15.83494 C3.32845,15.07648 2.73600333,14.1959467 2.30957,13.19334 C1.88313667,12.1907333 1.66992,11.11326 1.66992,9.96092 C1.66992,8.80857333 1.88313667,7.7311 2.30957,6.7285 C2.73600333,5.7259 3.32682333,4.84373333 4.08203,4.082 C4.83723667,3.32026667 5.71614333,2.7262 6.71875,2.2998 C7.72135,1.87333333 8.79881667,1.6601 9.95115,1.6601 C11.1034833,1.6601 12.18095,1.87333333 13.18355,2.2998 C14.18615,2.7262 15.0683167,3.32026667 15.83005,4.082 C16.5917833,4.84373333 17.1874833,5.7259 17.61715,6.7285 C18.0468833,7.7311 18.26175,8.80857333 18.26175,9.96092 C18.26175,11.11326 18.0485167,12.1907333 17.62205,13.19334 C17.19565,14.1959467 16.6032167,15.07648 15.84475,15.83494 C15.0862833,16.593405 14.2041167,17.1874813 13.19825,17.617169 C12.1923833,18.0468563 11.1132833,18.2617 9.96095,18.2617 Z M5.64453,9.97068 C5.64453,10.20506 5.72265333,10.39712 5.8789,10.54686 C6.03515333,10.6966 6.23697667,10.77147 6.48437,10.77147 L9.13085,10.77147 L9.13085,13.43748 C9.13085,13.6783667 9.20571667,13.8753067 9.35545,14.0283 C9.50518333,14.1812933 9.69725,14.25779 9.93165,14.25779 C10.17905,14.25779 10.3808833,14.1812933 10.53715,14.0283 C10.69335,13.8753067 10.77145,13.6783667 10.77145,13.43748 L10.77145,10.77147 L13.42775,10.77147 C13.6686167,10.77147 13.8671833,10.6966 14.02345,10.54686 C14.1797167,10.39712 14.25785,10.20506 14.25785,9.97068 C14.25785,9.72328667 14.1797167,9.52309333 14.02345,9.3701 C13.8671833,9.21710667 13.6686167,9.14061 13.42775,9.14061 L10.77145,9.14061 L10.77145,6.4941 C10.77145,6.24023333 10.69335,6.0368 10.53715,5.8838 C10.3808833,5.7308 10.17905,5.6543 9.93165,5.6543 C9.69725,5.6543 9.50518333,5.7308 9.35545,5.8838 C9.20571667,6.0368 9.13085,6.24023333 9.13085,6.4941 L9.13085,9.14061 L6.48437,9.14061 C6.23046333,9.14061 6.02701333,9.21710667 5.87402,9.3701 C5.72102667,9.52309333 5.64453,9.72328667 5.64453,9.97068 Z" id="Shape"></path>
                </g>
                <g id="Group" transform="translate(307.901860, 1913.224600)" fill="#000000" fill-rule="nonzero">
                    <path d="M12.71484,25.43946 C14.10804,25.43946 15.4378067,25.22299 16.70414,24.79005 C17.9704067,24.3571033 19.13414,23.7500067 20.19534,22.96876 C21.25654,22.1875067 22.1793733,21.2662827 22.96384,20.205088 C23.7483733,19.1438893 24.3571067,17.9785233 24.79004,16.70899 C25.2229733,15.4394633 25.43944,14.11134 25.43944,12.72462 C25.43944,11.3313933 25.2229733,10.0016533 24.79004,8.7354 C24.3571067,7.46906667 23.7483733,6.30533333 22.96384,5.2442 C22.1793733,4.183 21.25654,3.26013333 20.19534,2.4756 C19.13414,1.69106667 17.9687733,1.08233333 16.69924,0.6494 C15.4297067,0.216466667 14.0983067,0 12.70504,0 C11.31184,0 9.98210667,0.216466667 8.71584,0.6494 C7.44955333,1.08233333 6.28743667,1.69106667 5.22949,2.4756 C4.17155,3.26013333 3.25032667,4.183 2.46582,5.2442 C1.68131333,6.30533333 1.07421667,7.46906667 0.64453,8.7354 C0.214843333,10.0016533 0,11.3313933 0,12.72462 C0,14.11134 0.21647,15.4394633 0.64941,16.70899 C1.08235667,17.9785233 1.68945333,19.1438893 2.4707,20.205088 C3.25195333,21.2662827 4.17317667,22.1875067 5.23437,22.96876 C6.29557,23.7500067 7.45929333,24.3571033 8.72554,24.79005 C9.99187333,25.22299 11.32164,25.43946 12.71484,25.43946 Z M12.71484,23.62306 C11.51044,23.62306 10.3629733,23.43914 9.27244,23.0713 C8.18196,22.70346 7.18424667,22.18751 6.2793,21.52345 C5.37434667,20.8593853 4.58821333,20.0732513 3.9209,19.165048 C3.25358,18.2568427 2.73763,17.2574933 2.37305,16.167 C2.00846333,15.0765067 1.82617,13.9290467 1.82617,12.72462 C1.82617,11.51368 2.00846333,10.3629733 2.37305,9.2725 C2.73763,8.18196667 3.25195333,7.1826 3.91602,6.2744 C4.58008,5.3662 5.36458333,4.58006667 6.26953,3.916 C7.17447667,3.25193333 8.17221333,2.73763333 9.26274,2.3731 C10.3532067,2.0085 11.50064,1.8262 12.70504,1.8262 C13.9159733,1.8262 15.0667067,2.0085 16.15724,2.3731 C17.2477067,2.73763333 18.24704,3.25193333 19.15524,3.916 C20.06344,4.58006667 20.8495733,5.3662 21.51364,6.2744 C22.1777067,7.1826 22.6936733,8.18196667 23.06154,9.2725 C23.42934,10.3629733 23.6135762,11.51368 23.6135762,12.72462 C23.6197733,13.9290467 23.44074,15.0765067 23.07614,16.167 C22.7116067,17.2574933 22.1956733,18.2568427 21.52834,19.165048 C20.8610067,20.0732513 20.07324,20.8593853 19.16504,21.52345 C18.25684,22.18751 17.2575067,22.70346 16.16704,23.0713 C15.0765067,23.43914 13.9257733,23.62306 12.71484,23.62306 Z M7.19726,12.73438 C7.19726,12.9882867 7.28352333,13.19825 7.45605,13.36427 C7.62857667,13.5302833 7.84830667,13.61329 8.11524,13.61329 L11.80664,13.61329 L11.80664,17.31446 C11.80664,17.5813867 11.88964,17.7994867 12.05564,17.96876 C12.22164,18.1380333 12.4316067,18.22267 12.68554,18.22267 C12.9590067,18.22267 13.1803733,18.1380333 13.34964,17.96876 C13.5189067,17.7994867 13.60354,17.5813867 13.60354,17.31446 L13.60354,13.61329 L17.30464,13.61329 C17.5715733,13.61329 17.7896733,13.5302833 17.95894,13.36427 C18.1282733,13.19825 18.21294,12.9882867 18.21294,12.73438 C18.21294,12.4609467 18.1282733,12.2395933 17.95894,12.07032 C17.7896733,11.9010533 17.5715733,11.81642 17.30464,11.81642 L13.60354,11.81642 L13.60354,8.125 C13.60354,7.8516 13.5189067,7.63023333 13.34964,7.4609 C13.1803733,7.29163333 12.9590067,7.207 12.68554,7.207 C12.4316067,7.207 12.22164,7.29326667 12.05564,7.4658 C11.88964,7.63833333 11.80664,7.85806667 11.80664,8.125 L11.80664,11.81642 L8.11524,11.81642 C7.8418,11.81642 7.62044333,11.9010533 7.45117,12.07032 C7.28189667,12.2395933 7.19726,12.4609467 7.19726,12.73438 Z" id="Shape"></path>
                </g>
                <text id="Design-Variations" fill="#000000" fill-rule="nonzero" font-family="Helvetica" font-size="13" font-weight="normal">
                    <tspan x="263" y="1953">Design Variations</tspan>
                </text>
                <text id="Symbols-are-supported-in-up-to-nine-weights-and-three-scales." fill="#000000" fill-rule="nonzero" font-family="Helvetica" font-size="13" font-weight="normal">
                    <tspan x="263" y="1971">Symbols are supported in up to nine weights and three scales.</tspan>
                </text>
                <text id="For-optimal-layout-with-text-and-other-symbols,-vertically-align" fill="#000000" fill-rule="nonzero" font-family="Helvetica" font-size="13" font-weight="normal">
                    <tspan x="263" y="1989">For optimal layout with text and other symbols, vertically align</tspan>
                </text>
                <text id="symbols-with-the-adjacent-text." fill="#000000" fill-rule="nonzero" font-family="Helvetica" font-size="13" font-weight="normal">
                    <tspan x="263" y="2007">symbols with the adjacent text.</tspan>
                </text>
                <line x1="776" y1="1919" x2="776" y2="1933" id="Path" stroke="#00AEEF" stroke-width="0.5"></line>
                <g id="Group" transform="translate(778.490230, 1918.732400)" fill="#000000" fill-rule="nonzero">
                    <path d="M0.82032,14.42385 C1.08073333,14.42385 1.28255667,14.3685115 1.42579,14.2578344 C1.56901667,14.1471575 1.68620333,13.9551 1.77735,13.681662 L3.03711,10.2344 L8.79887,10.2344 L10.05857,13.681662 C10.1497033,13.9551 10.2669033,14.1471575 10.41017,14.2578344 C10.55337,14.3685115 10.7519367,14.42385 11.00587,14.42385 C11.26627,14.42385 11.47297,14.3522354 11.62597,14.2090062 C11.77897,14.0657767 11.85547,13.8704643 11.85547,13.623069 C11.85547,13.473329 11.81967,13.297546 11.74807,13.09572 L7.16797,0.8985 C7.05078333,0.598966667 6.89128,0.374333333 6.68946,0.2246 C6.48763333,0.0748666667 6.23047,0 5.91797,0 C5.31250333,0 4.90234667,0.296233333 4.6875,0.8887 L0.10743,13.10549 C0.03581,13.3073133 4.4408921e-16,13.4830947 4.4408921e-16,13.632834 C4.4408921e-16,13.88023 0.0732433333,14.073915 0.21973,14.2138891 C0.366216667,14.353863 0.566413333,14.42385 0.82032,14.42385 Z M3.51563,8.75002 L5.88868,2.1778 L5.9375,2.1778 L8.31057,8.75002 L3.51563,8.75002 Z" id="Shape"></path>
                </g>
                <line x1="793.197" y1="1919" x2="793.197" y2="1933" id="Path" stroke="#00AEEF" stroke-width="0.5"></line>
                <text id="Margins" fill="#000000" fill-rule="nonzero" font-family="Helvetica" font-size="13" font-weight="normal">
                    <tspan x="776" y="1953">Margins</tspan>
                </text>
                <text id="Leading-and-trailing-margins-on-the-left-and-right-side-of-each-symbol" fill="#000000" fill-rule="nonzero" font-family="Helvetica" font-size="13" font-weight="normal">
                    <tspan x="776" y="1971">Leading and trailing margins on the left and right side of each symbol</tspan>
                </text>
                <text id="can-be-adjusted-by-modifying-the-x-location-of-the-margin-guidelines." fill="#000000" fill-rule="nonzero" font-family="Helvetica" font-size="13" font-weight="normal">
                    <tspan x="776" y="1989">can be adjusted by modifying the x-location of the margin guidelines.</tspan>
                </text>
                <text id="Modifications-are-automatically-applied-proportionally-to-all" fill="#000000" fill-rule="nonzero" font-family="Helvetica" font-size="13" font-weight="normal">
                    <tspan x="776" y="2007">Modifications are automatically applied proportionally to all</tspan>
                </text>
                <text id="scales-and-weights." fill="#000000" fill-rule="nonzero" font-family="Helvetica" font-size="13" font-weight="normal">
                    <tspan x="776" y="2025">scales and weights.</tspan>
                </text>
                <g id="Group" transform="translate(1291.246849, 1914.517550)" fill="#000000" fill-rule="nonzero">
                    <path d="M0.594951479,20.3476805 L2.29417148,22.0566705 C2.72385815,22.4928705 3.17795815,22.6946938 3.65647148,22.6621405 C4.13498481,22.6295872 4.60536148,22.3561505 5.06760148,21.8418305 L15.7609515,10.0547205 L14.7941515,9.07815049 L4.17893148,20.7578405 C4.00315148,20.9596605 3.82574148,21.0735938 3.64670148,21.0996405 C3.46766815,21.1256805 3.26096481,21.0215138 3.02659148,20.7871405 L1.85471148,19.6250305 C1.62033815,19.3906545 1.51780148,19.1839482 1.54710148,19.0049115 C1.57639481,18.8258748 1.69195148,18.6452108 1.89377148,18.4629193 L13.3683515,7.66215049 L12.3918515,6.69535049 L0.800031479,17.5840125 C0.305238146,18.0397418 0.039938146,18.5052368 0.00413147929,18.9804975 C-0.0316751874,19.4557595 0.165264813,19.9114872 0.594951479,20.3476805 Z M7.01096148,2.15435049 C6.80262815,2.35615049 6.68544148,2.58725049 6.65940148,2.84765049 C6.63336148,3.10811716 6.67893481,3.33598382 6.79612148,3.53125049 C6.91330815,3.71358382 7.08420481,3.85031716 7.30881148,3.94145049 C7.53342481,4.03258382 7.80850481,4.03908382 8.13405148,3.96095049 C8.86318481,3.79168382 9.60211815,3.72171716 10.3508515,3.75105049 C11.0995181,3.78031716 11.8319181,4.02931716 12.5480515,4.49805049 L11.9621515,5.95315049 C11.7928848,6.36981716 11.7456848,6.73278382 11.8205515,7.04205049 C11.8954181,7.35125049 12.0663181,7.64258382 12.3332515,7.91605049 L14.6281515,10.2305005 C14.8690181,10.4778938 15.1033848,10.6211205 15.3312515,10.6601805 C15.5591181,10.6992472 15.8130181,10.6927372 16.0929515,10.6406505 L17.1574515,10.4453405 L17.8215515,11.1191705 L17.7824515,11.6758105 C17.7629181,11.9232038 17.7938515,12.1510672 17.8752515,12.3594005 C17.9565848,12.5677338 18.1177181,12.7923438 18.3586515,13.0332305 L19.1203515,13.7754205 C19.3612181,14.0163072 19.6232515,14.1416338 19.9064515,14.1514005 C20.1896515,14.1611605 20.4484515,14.0488538 20.6828515,13.8144805 L23.5929515,10.8945605 C23.8273515,10.6601872 23.9412848,10.4046538 23.9347515,10.1279605 C23.9282848,9.85126716 23.8045848,9.59247716 23.5636515,9.35159049 L22.7922515,8.58987049 C22.5578515,8.34899049 22.3381181,8.18461716 22.1330515,8.09675049 C21.9279848,8.00881716 21.7049848,7.97461716 21.4640515,7.99415049 L20.8879515,8.04295049 L20.2433515,7.40825049 L20.4875515,6.28515049 C20.5526181,6.00521716 20.5395848,5.74318382 20.4484515,5.49905049 C20.3573181,5.25491716 20.1652515,4.98635049 19.8722515,4.69335049 L17.6750515,2.50585049 C16.8417181,1.67905049 15.9546515,1.05895049 15.0138515,0.64555049 C14.0731181,0.23215049 13.1258515,0.0173171567 12.1720515,0.00105049002 C11.2183181,-0.0152828433 10.3003515,0.15885049 9.41815148,0.52345049 C8.53601815,0.88805049 7.73362148,1.43168382 7.01096148,2.15435049 Z M8.50515148,2.52545049 C9.11061815,2.08271716 9.76001815,1.76695049 10.4533515,1.57815049 C11.1466848,1.38935049 11.8481848,1.32911716 12.5578515,1.39745049 C13.2674515,1.46585049 13.9559181,1.65628382 14.6232515,1.96875049 C15.2905848,2.28128382 15.9009515,2.71748382 16.4543515,3.27735049 L18.8859515,5.68945049 C19.0031515,5.80665049 19.0763848,5.92058382 19.1056515,6.03125049 C19.1349848,6.14191716 19.1301181,6.28191716 19.0910515,6.45125049 L18.7687515,7.93555049 L20.2726515,9.41995049 L21.2590515,9.36136049 C21.3827181,9.35484716 21.4771181,9.36298382 21.5422515,9.38577049 C21.6073181,9.40855716 21.6886848,9.46877716 21.7863515,9.56643049 L22.3625515,10.1426105 L19.9211515,12.5840105 L19.3449515,12.0078405 C19.2472848,11.9101872 19.1854181,11.8288072 19.1593515,11.7637005 C19.1333515,11.6985938 19.1236181,11.6009372 19.1301515,11.4707305 L19.1984515,10.4941705 L17.7043515,9.00979049 L16.1808515,9.26370049 C16.0181181,9.29625382 15.8895515,9.30113716 15.7951515,9.27835049 C15.7007515,9.25556382 15.5916848,9.18557716 15.4679515,9.06839049 L13.4660515,7.06645049 C13.3358515,6.94925049 13.2626181,6.83695049 13.2463515,6.72955049 C13.2300848,6.62208382 13.2609848,6.47721716 13.3390515,6.29495049 L14.2179515,4.20515049 C13.4367515,3.47595049 12.5578515,2.97138382 11.5812515,2.69145049 C10.6047181,2.41151716 9.60861815,2.42128382 8.59295148,2.72075049 C8.51488481,2.74028382 8.46445148,2.72561716 8.44165148,2.67675049 C8.41885148,2.62795049 8.44001815,2.57751716 8.50515148,2.52545049 Z" id="Shape"></path>
                </g>
                <text id="Exporting" fill="#000000" fill-rule="nonzero" font-family="Helvetica" font-size="13" font-weight="normal">
                    <tspan x="1289" y="1953">Exporting</tspan>
                </text>
                <text id="Symbols-should-be-outlined-when-exporting-to-ensure-the" fill="#000000" fill-rule="nonzero" font-family="Helvetica" font-size="13" font-weight="normal">
                    <tspan x="1289" y="1971">Symbols should be outlined when exporting to ensure the</tspan>
                </text>
                <text id="design-is-preserved-when-submitting-to-Xcode." fill="#000000" fill-rule="nonzero" font-family="Helvetica" font-size="13" font-weight="normal">
                    <tspan x="1289" y="1989">design is preserved when submitting to Xcode.</tspan>
                </text>
                <text id="Template-v.3.0" fill="#000000" fill-rule="nonzero" font-family="Helvetica" font-size="13" font-weight="normal">
                    <tspan x="2952" y="1933">Template v.3.0</tspan>
                </text>
                <text id="Requires-Xcode-13-or-greater" fill="#000000" fill-rule="nonzero" font-family="Helvetica" font-size="13" font-weight="normal">
                    <tspan x="2865" y="1951">Requires Xcode 13 or greater</tspan>
                </text>
                <text id="Generated-from-eye.fill" fill="#000000" fill-rule="nonzero" font-family="Helvetica" font-size="13" font-weight="normal">
                    <tspan x="2904" y="1969">Generated from eye.fill</tspan>
                </text>
                <text id="Typeset-at-100-points" fill="#000000" fill-rule="nonzero" font-family="Helvetica" font-size="13" font-weight="normal">
                    <tspan x="2912" y="1987">Typeset at 100 points</tspan>
                </text>
                <text id="Small" fill="#000000" fill-rule="nonzero" font-family="Helvetica" font-size="13" font-weight="normal">
                    <tspan x="263" y="726">Small</tspan>
                </text>
                <text id="Medium" fill="#000000" fill-rule="nonzero" font-family="Helvetica" font-size="13" font-weight="normal">
                    <tspan x="263" y="1156">Medium</tspan>
                </text>
                <text id="Large" fill="#000000" fill-rule="nonzero" font-family="Helvetica" font-size="13" font-weight="normal">
                    <tspan x="263" y="1586">Large</tspan>
                </text>
            </g>
            <g id="Guides" transform="translate(263.000000, 625.041000)">
                <g id="H-reference" transform="translate(76.993347, 0.500000)" fill="#27AAE1" fill-rule="nonzero">
                    <path d="M0,70.459 L2.644353,70.459 L28.334853,3.3264 L29.036753,3.3264 L29.036753,0 L27.129353,0 L0,70.459 Z M10.694853,45.9793 L45.988453,45.9793 L45.237753,43.7302 L11.444853,43.7302 L10.694853,45.9793 Z M54.125953,70.459 L56.770353,70.459 L29.644753,0 L28.439353,0 L28.439353,3.3264 L54.125953,70.459 Z" id="Shape"></path>
                </g>
                <line x1="0" y1="70.959" x2="2773" y2="70.959" id="Baseline-S" stroke="#27AAE1" stroke-width="0.5"></line>
                <line x1="0" y1="0.5" x2="2773" y2="0.5" id="Capline-S" stroke="#27AAE1" stroke-width="0.5"></line>
                <g id="H-reference" transform="translate(76.993347, 430.500000)" fill="#27AAE1" fill-rule="nonzero">
                    <path d="M0,70.459 L2.644353,70.459 L28.334853,3.3264 L29.036753,3.3264 L29.036753,0 L27.129353,0 L0,70.459 Z M10.694853,45.9793 L45.988453,45.9793 L45.237753,43.7302 L11.444853,43.7302 L10.694853,45.9793 Z M54.125953,70.459 L56.770353,70.459 L29.644753,0 L28.439353,0 L28.439353,3.3264 L54.125953,70.459 Z" id="Shape"></path>
                </g>
                <line x1="0" y1="500.959" x2="2773" y2="500.959" id="Baseline-M" stroke="#27AAE1" stroke-width="0.5"></line>
                <line x1="0" y1="430.499" x2="2773" y2="430.499" id="Capline-M" stroke="#27AAE1" stroke-width="0.5"></line>
                <g id="H-reference" transform="translate(76.993347, 860.500000)" fill="#27AAE1" fill-rule="nonzero">
                    <path d="M0,70.459 L2.644353,70.459 L28.334853,3.3264 L29.036753,3.3264 L29.036753,0 L27.129353,0 L0,70.459 Z M10.694853,45.9793 L45.988453,45.9793 L45.237753,43.7302 L11.444853,43.7302 L10.694853,45.9793 Z M54.125953,70.459 L56.770353,70.459 L29.644753,0 L28.439353,0 L28.439353,3.3264 L54.125953,70.459 Z" id="Shape"></path>
                </g>
                <line x1="0" y1="930.959" x2="2773" y2="930.959" id="Baseline-L" stroke="#27AAE1" stroke-width="0.5"></line>
                <line x1="0" y1="860.499" x2="2773" y2="860.499" id="Capline-L" stroke="#27AAE1" stroke-width="0.5"></line>
                <line x1="1110.16" y1="405.749" x2="1110.16" y2="525.079" id="left-margin-Regular-M" stroke="#00AEEF" stroke-width="0.5"></line>
                <line x1="1263.53" y1="405.749" x2="1263.53" y2="525.079" id="right-margin-Regular-M" stroke="#00AEEF" stroke-width="0.5"></line>
            </g>
            <g id="Symbols" transform="translate(523.762309, 1043.161967)" fill="#000000">
                <g id="Black-M" transform="translate(2349.749977, 0.000000)" fill-rule="nonzero">
                    <path d="M73.9305282,0.0403087254 C79.6231355,-0.12647277 84.9563751,0.224302423 89.9302468,1.0926343 C94.9046959,1.96063285 99.3685039,3.13284174 103.321671,4.60926097 C107.274838,6.08568019 110.545306,7.66496341 113.133074,9.34711062 C115.72081,11.0292001 117.421594,12.5750452 118.235428,13.9846459 C119.065494,15.4223635 119.561977,17.6822959 119.724874,20.7644431 C119.887739,23.8465326 119.620204,27.4684825 118.922271,31.6302928 C118.224304,35.7920454 117.011626,40.2509588 115.284237,45.0070332 C113.557435,49.7627915 111.198653,54.5639269 108.207889,59.4104395 C105.217705,64.2566222 101.518735,68.9012178 97.1109784,73.3442264 C92.7035106,77.7870682 87.4833525,81.7500224 81.4505041,85.2330891 C75.5304122,88.6510558 69.5658233,91.1456182 63.5567376,92.7167764 C57.5477096,94.2879012 51.7040613,95.1527389 46.0257929,95.3112895 C40.3475843,95.4698103 35.0032152,95.1160915 29.9926857,94.2501332 C24.9822239,93.3841588 20.4862068,92.221162 16.5046343,90.7611428 C12.5230861,89.3010325 9.23148723,87.7339493 6.62983752,86.0598931 C4.02821222,84.3857459 2.31236623,82.8298135 1.48229956,81.3920959 C0.66846623,79.9824952 0.187045549,77.7326501 0.0380375209,74.6425606 C-0.110946106,71.5523801 0.177719472,67.9182302 0.904034255,63.740111 C1.63040677,59.5619584 2.87529391,55.0938329 4.63869568,50.3357343 C6.40215518,45.5776024 8.77206727,40.7794106 11.7484319,35.9411587 C14.7248877,31.1029313 18.3956929,26.4746191 22.7608476,22.0562221 C27.12606,17.6377918 32.2687122,13.7195934 38.1888041,10.3016267 C44.2216525,6.81856002 50.2637473,4.27924184 56.3150884,2.68367213 C62.3667183,1.08793576 68.2385315,0.206814623 73.9305282,0.0403087254 Z M82.6262116,20.6955158 C81.1974619,18.4479734 78.2370599,17.7065336 75.90853,19.050911 C73.5170669,20.4316228 72.6976911,23.4895749 74.078403,25.881038 L76.577537,30.211665 L72.24741,32.711665 L69.748276,28.381038 L69.6358306,28.1955158 C68.2070808,25.9479734 65.2466789,25.2065336 62.918149,26.550911 C60.5266859,27.9316228 59.7073101,30.9895749 61.088022,33.381038 L63.5871559,37.711665 L59.2570289,40.211665 L56.7578949,35.881038 L56.6454495,35.6955158 C55.2166998,33.4479734 52.2562978,32.7065336 49.9277679,34.050911 C47.5363048,35.4316228 46.716929,38.4895749 48.0976409,40.881038 L50.5967749,45.211665 L46.2666479,47.711665 L43.7675139,43.381038 L43.6550685,43.1955158 C42.2263187,40.9479734 39.2659167,40.2065336 36.9373869,41.550911 C34.5459238,42.9316228 33.726548,45.9895749 35.1072598,48.381038 L37.6063938,52.711665 L33.2762668,55.211665 L30.7771328,50.881038 L30.6646874,50.6955158 C29.2359377,48.4479734 26.2755357,47.7065336 23.9470058,49.050911 C21.5555427,50.4316228 20.7361669,53.4895749 22.1168788,55.881038 L24.6160128,60.211665 L18.9877137,63.461165 L18.7878651,63.5812854 C15.8338507,65.4285217 14.8526432,69.2990129 16.6085485,72.3403301 C18.403474,75.4492322 22.3788116,76.5144207 25.4877137,74.7194953 L31.1160128,71.4699953 L33.8727687,76.2428366 L33.9852141,76.4283588 C35.4139639,78.6759012 38.3743658,79.417341 40.7028957,78.0729636 C43.0943588,76.6922517 43.9137346,73.6342997 42.5330227,71.2428366 L39.7762668,66.4699953 L44.1063938,63.9699953 L46.8631498,68.7428366 L46.9755952,68.9283588 C48.4043449,71.1759012 51.3647469,71.917341 53.6932768,70.5729636 C56.0847399,69.1922517 56.9041157,66.1342997 55.5234038,63.7428366 L52.7666479,58.9699953 L57.0967749,56.4699953 L59.8535308,61.2428366 L59.9659762,61.4283588 C61.394726,63.6759012 64.355128,64.417341 66.6836578,63.0729636 C69.075121,61.6922517 69.8944967,58.6342997 68.5137849,56.2428366 L65.7570289,51.4699953 L70.0871559,48.9699953 L72.8439119,53.7428366 L72.9563573,53.9283588 C74.385107,56.1759012 77.345509,56.917341 79.6740389,55.5729636 C82.065502,54.1922517 82.8848778,51.1342997 81.5041659,48.7428366 L78.74741,43.9699953 L83.077537,41.4699953 L85.8342929,46.2428366 L85.9467384,46.4283588 C87.3754881,48.6759012 90.3358901,49.417341 92.66442,48.0729636 C95.0558831,46.6922517 95.8752588,43.6342997 94.494547,41.2428366 L91.737791,36.4699953 L100.473398,31.4264902 L100.673247,31.3063698 C103.627261,29.4591334 104.608469,25.5886423 102.852563,22.547325 C101.057638,19.438423 97.0823001,18.3732345 93.9733981,20.1681599 L85.237791,25.211665 L82.7386571,20.881038 L82.6262116,20.6955158 Z" id="Combined-Shape"></path>
                </g>
                <g id="Regular-M" transform="translate(890.000000, 13.893760)">
                    <path d="M53.7180894,0.145656331 C56.411206,0.374710954 58.6946226,0.787861158 60.5683385,1.38510712 C62.4420544,1.98235308 63.754193,2.6737729 64.504755,3.45936634 C65.2553469,4.24499142 65.8932157,5.5945943 66.418362,7.50817477 C66.9435383,9.42178695 67.2724094,11.7428504 67.4049762,14.4713652 C67.5375429,17.1998799 67.3976082,20.179518 66.9851732,23.410279 C66.5730421,26.640731 65.8042474,29.9811773 64.6787892,33.4316179 C63.5536382,36.8817526 61.9958887,40.2927307 60.0055402,43.6645526 C58.0150675,47.0364956 55.5047253,50.2014255 52.4745134,53.1593421 C49.4745863,56.0876966 46.2805367,58.4910625 42.8923648,60.3694398 C39.5042239,62.2477867 36.0849121,63.6951267 32.6344293,64.7114596 C31.7296706,64.9779479 30.8327026,65.2204564 29.9435253,65.4389851 L30.2376914,65.6608797 C15.7548473,54.7474251 6.596555,45.175223 2.7628146,36.9442732 L1.23769137,45.0148309 C8.27973565,55.2175 15.3832897,62.45328 22.5483536,66.7221709 L22.6229908,66.714063 C19.399147,67.0328261 16.4330956,67.0850709 13.7248365,66.8707975 C11.0165774,66.656524 8.72181977,66.2544444 6.84056362,65.6645587 C4.95933762,65.0747046 3.64342866,64.386965 2.89283674,63.6013399 C2.14227497,62.8157465 1.50817608,61.4624635 0.990540083,59.541491 C0.472904098,57.6205186 0.155373974,55.2883845 0.037949743,52.5450886 C-0.079474508,49.8017927 0.0756021914,46.8073737 0.503179841,43.5618314 C0.930787646,40.3163208 1.70715491,36.9684855 2.83228164,33.5183257 C3.95746958,30.0681671 5.50772069,26.6645299 7.48303506,23.3074141 C9.4583503,19.9502363 11.9459715,16.8074702 14.9458986,13.8791158 C17.9761104,10.9211991 21.1890955,8.49936473 24.5848537,6.61361271 C27.9807059,4.72770797 31.4038548,3.27660113 34.8543004,2.26029218 C38.3047762,1.24401477 41.6380732,0.580234588 44.8541915,0.268951624 C48.07034,-0.0422998061 51.0249726,-0.0833982221 53.7180894,0.145656331 Z M44.4519221,13.2787272 C43.6639588,12.7584655 42.5931525,12.8451758 41.8994702,13.5388581 C41.1066904,14.3316378 41.1066904,15.6169878 41.8994702,16.4097675 L41.8994702,16.4097675 L44.9468611,19.4570409 L38.9904594,25.4134425 L35.943502,22.3657356 L35.789324,22.2263798 C34.9919776,21.5760527 33.8158236,21.6225046 33.0725926,22.3657356 C32.2798128,23.1585154 32.2798128,24.4438653 33.0725926,25.2366451 L33.0725926,25.2366451 L36.1199835,28.2839184 L31.5770206,32.8268813 L30.1635818,34.2403201 L27.1166244,31.1926132 L26.9624464,31.0532574 C26.1651,30.4029303 24.988946,30.4493822 24.245715,31.1926132 C23.4529352,31.985393 23.4529352,33.2707429 24.245715,34.0635227 L24.245715,34.0635227 L27.2931059,37.110796 L20.750143,43.6537589 L17.7031857,40.606052 L17.5490077,40.4666962 C16.7516613,39.8163691 15.5755072,39.862821 14.8322762,40.606052 C14.0394964,41.3988318 14.0394964,42.6841817 14.8322762,43.4769615 L14.8322762,43.4769615 L23.7050031,52.3496884 L23.8591811,52.4890442 C24.6565275,53.1393714 25.8326816,53.0929194 26.5759126,52.3496884 C27.3686923,51.5569087 27.3686923,50.2715587 26.5759126,49.478779 L26.5759126,49.478779 L23.6206189,46.5242348 L30.1635818,39.981272 L33.1184419,42.9362496 L33.2726199,43.0756054 C34.0699663,43.7259326 35.2461204,43.6794806 35.9893514,42.9362496 C36.7821311,42.1434699 36.7821311,40.8581199 35.9893514,40.0653402 L35.9893514,40.0653402 L33.0340577,37.110796 L38.9904594,31.1543944 L41.9453195,34.109372 L42.0994975,34.2487278 C42.8968439,34.899055 44.0729979,34.8526031 44.816229,34.109372 C45.6090087,33.3165923 45.6090087,32.0312423 44.816229,31.2384626 L44.816229,31.2384626 L41.8609353,28.2839184 L42.4038982,27.7409556 L45.2743741,24.8704797 L47.817337,22.3275168 L50.7721971,25.2824944 L50.9263751,25.4218503 C51.7237215,26.0721774 52.8998755,26.0257255 53.6431066,25.2824944 C54.4358863,24.4897147 54.4358863,23.2043647 53.6431066,22.411585 L53.6431066,22.411585 L44.7703796,13.5388581 L44.6162016,13.3995022 Z M38.2376914,2.19482555 C52.7307382,12.6741322 61.9096923,21.9239481 65.7745535,29.9442732 L67.2376914,22.0670532 C60.1707826,12.1145881 52.9611981,5.07366149 45.6089377,0.944273234 L38.2376914,2.19482555 Z" id="Combined-Shape"></path>
                    <path d="M53.7180894,0.145656331 C56.411206,0.374710954 58.6946226,0.787861158 60.5683385,1.38510712 C62.4420544,1.98235308 63.754193,2.6737729 64.504755,3.45936634 C65.2553469,4.24499142 65.8932157,5.5945943 66.418362,7.50817477 C66.9435383,9.42178695 67.2724094,11.7428504 67.4049762,14.4713652 C67.5375429,17.1998799 67.3976082,20.179518 66.9851732,23.410279 C66.5730421,26.640731 65.8042474,29.9811773 64.6787892,33.4316179 C63.5536382,36.8817526 61.9958887,40.2927307 60.0055402,43.6645526 C58.0150675,47.0364956 55.5047253,50.2014255 52.4745134,53.1593421 C49.4745863,56.0876966 46.2805367,58.4910625 42.8923648,60.3694398 C39.5042239,62.2477867 36.0849121,63.6951267 32.6344293,64.7114596 C31.7296706,64.9779479 30.8327026,65.2204564 29.9435253,65.4389851 L30.2376914,65.6608797 C15.7548473,54.7474251 6.596555,45.175223 2.7628146,36.9442732 L1.23769137,45.0148309 C8.27973565,55.2175 15.3832897,62.45328 22.5483536,66.7221709 L22.6229908,66.714063 C19.399147,67.0328261 16.4330956,67.0850709 13.7248365,66.8707975 C11.0165774,66.656524 8.72181977,66.2544444 6.84056362,65.6645587 C4.95933762,65.0747046 3.64342866,64.386965 2.89283674,63.6013399 C2.14227497,62.8157465 1.50817608,61.4624635 0.990540083,59.541491 C0.472904098,57.6205186 0.155373974,55.2883845 0.037949743,52.5450886 C-0.079474508,49.8017927 0.0756021914,46.8073737 0.503179841,43.5618314 C0.930787646,40.3163208 1.70715491,36.9684855 2.83228164,33.5183257 C3.95746958,30.0681671 5.50772069,26.6645299 7.48303506,23.3074141 C9.4583503,19.9502363 11.9459715,16.8074702 14.9458986,13.8791158 C17.9761104,10.9211991 21.1890955,8.49936473 24.5848537,6.61361271 C27.9807059,4.72770797 31.4038548,3.27660113 34.8543004,2.26029218 C38.3047762,1.24401477 41.6380732,0.580234588 44.8541915,0.268951624 C48.07034,-0.0422998061 51.0249726,-0.0833982221 53.7180894,0.145656331 Z M44.4519221,13.2787272 C43.6639588,12.7584655 42.5931525,12.8451758 41.8994702,13.5388581 C41.1066904,14.3316378 41.1066904,15.6169878 41.8994702,16.4097675 L41.8994702,16.4097675 L44.9468611,19.4570409 L38.9904594,25.4134425 L35.943502,22.3657356 L35.789324,22.2263798 C34.9919776,21.5760527 33.8158236,21.6225046 33.0725926,22.3657356 C32.2798128,23.1585154 32.2798128,24.4438653 33.0725926,25.2366451 L33.0725926,25.2366451 L36.1199835,28.2839184 L31.5770206,32.8268813 L30.1635818,34.2403201 L27.1166244,31.1926132 L26.9624464,31.0532574 C26.1651,30.4029303 24.988946,30.4493822 24.245715,31.1926132 C23.4529352,31.985393 23.4529352,33.2707429 24.245715,34.0635227 L24.245715,34.0635227 L27.2931059,37.110796 L20.750143,43.6537589 L17.7031857,40.606052 L17.5490077,40.4666962 C16.7516613,39.8163691 15.5755072,39.862821 14.8322762,40.606052 C14.0394964,41.3988318 14.0394964,42.6841817 14.8322762,43.4769615 L14.8322762,43.4769615 L23.7050031,52.3496884 L23.8591811,52.4890442 C24.6565275,53.1393714 25.8326816,53.0929194 26.5759126,52.3496884 C27.3686923,51.5569087 27.3686923,50.2715587 26.5759126,49.478779 L26.5759126,49.478779 L23.6206189,46.5242348 L30.1635818,39.981272 L33.1184419,42.9362496 L33.2726199,43.0756054 C34.0699663,43.7259326 35.2461204,43.6794806 35.9893514,42.9362496 C36.7821311,42.1434699 36.7821311,40.8581199 35.9893514,40.0653402 L35.9893514,40.0653402 L33.0340577,37.110796 L38.9904594,31.1543944 L41.9453195,34.109372 L42.0994975,34.2487278 C42.8968439,34.899055 44.0729979,34.8526031 44.816229,34.109372 C45.6090087,33.3165923 45.6090087,32.0312423 44.816229,31.2384626 L44.816229,31.2384626 L41.8609353,28.2839184 L42.4038982,27.7409556 L45.2743741,24.8704797 L47.817337,22.3275168 L50.7721971,25.2824944 L50.9263751,25.4218503 C51.7237215,26.0721774 52.8998755,26.0257255 53.6431066,25.2824944 C54.4358863,24.4897147 54.4358863,23.2043647 53.6431066,22.411585 L53.6431066,22.411585 L44.7703796,13.5388581 L44.6162016,13.3995022 Z M38.2376914,2.19482555 C52.7307382,12.6741322 61.9096923,21.9239481 65.7745535,29.9442732 L67.2376914,22.0670532 C60.1707826,12.1145881 52.9611981,5.07366149 45.6089377,0.944273234 L38.2376914,2.19482555 Z" id="Combined-Shape"></path>
                </g>
                <g id="Ultralight-M" stroke-linejoin="bevel" transform="translate(0.000000, 13.893760)">
                    <path d="M53.7180894,0.145656331 C56.411206,0.374710954 58.6946226,0.787861158 60.5683385,1.38510712 C62.4420544,1.98235308 63.754193,2.6737729 64.504755,3.45936634 C65.2553469,4.24499142 65.8932157,5.5945943 66.418362,7.50817477 C66.9435383,9.42178695 67.2724094,11.7428504 67.4049762,14.4713652 C67.5375429,17.1998799 67.3976082,20.179518 66.9851732,23.410279 C66.5730421,26.640731 65.8042474,29.9811773 64.6787892,33.4316179 C63.5536382,36.8817526 61.9958887,40.2927307 60.0055402,43.6645526 C58.0150675,47.0364956 55.5047253,50.2014255 52.4745134,53.1593421 C49.4745863,56.0876966 46.2805367,58.4910625 42.8923648,60.3694398 C39.5042239,62.2477867 36.0849121,63.6951267 32.6344293,64.7114596 C31.7296706,64.9779479 30.8327026,65.2204564 29.9435253,65.4389851 L30.2376914,65.6608797 C15.7548473,54.7474251 6.596555,45.175223 2.7628146,36.9442732 L1.23769137,45.0148309 C8.27973565,55.2175 15.3832897,62.45328 22.5483536,66.7221709 L22.6229908,66.714063 C19.399147,67.0328261 16.4330956,67.0850709 13.7248365,66.8707975 C11.0165774,66.656524 8.72181977,66.2544444 6.84056362,65.6645587 C4.95933762,65.0747046 3.64342866,64.386965 2.89283674,63.6013399 C2.14227497,62.8157465 1.50817608,61.4624635 0.990540083,59.541491 C0.472904098,57.6205186 0.155373974,55.2883845 0.037949743,52.5450886 C-0.079474508,49.8017927 0.0756021914,46.8073737 0.503179841,43.5618314 C0.930787646,40.3163208 1.70715491,36.9684855 2.83228164,33.5183257 C3.95746958,30.0681671 5.50772069,26.6645299 7.48303506,23.3074141 C9.4583503,19.9502363 11.9459715,16.8074702 14.9458986,13.8791158 C17.9761104,10.9211991 21.1890955,8.49936473 24.5848537,6.61361271 C27.9807059,4.72770797 31.4038548,3.27660113 34.8543004,2.26029218 C38.3047762,1.24401477 41.6380732,0.580234588 44.8541915,0.268951624 C48.07034,-0.0422998061 51.0249726,-0.0833982221 53.7180894,0.145656331 Z M43.4519221,14.2787272 C42.6639588,13.7584655 42.5931525,12.8451758 41.8994702,13.5388581 C41.1066904,14.3316378 42.1066904,14.6169878 42.8994702,15.4097675 L42.8994702,15.4097675 L46.9468611,19.4570409 L38.9904594,27.4134425 L34.943502,23.3657356 L34.789324,23.2263798 C33.9919776,22.5760527 33.8158236,21.6225046 33.0725926,22.3657356 C32.2798128,23.1585154 33.2798128,23.4438653 34.0725926,24.2366451 L34.0725926,24.2366451 L38.1199835,28.2839184 L32.5770206,33.8268813 L30.1635818,36.2403201 L26.1166244,32.1926132 L25.9624464,32.0532574 C25.1651,31.4029303 24.988946,30.4493822 24.245715,31.1926132 C23.4529352,31.985393 24.4529352,32.2707429 25.245715,33.0635227 L25.245715,33.0635227 L29.2931059,37.110796 L20.750143,45.6537589 L16.7031857,41.606052 L16.5490077,41.4666962 C15.7516613,40.8163691 15.5755072,39.862821 14.8322762,40.606052 C14.0394964,41.3988318 15.0394964,41.6841817 15.8322762,42.4769615 L15.8322762,42.4769615 L24.7050031,51.3496884 L24.8591811,51.4890442 C25.6565275,52.1393714 25.8326816,53.0929194 26.5759126,52.3496884 C27.3686923,51.5569087 26.3686923,51.2715587 25.5759126,50.478779 L25.5759126,50.478779 L21.6206189,46.5242348 L30.1635818,37.981272 L34.1184419,41.9362496 L34.2726199,42.0756054 C35.0699663,42.7259326 35.2461204,43.6794806 35.9893514,42.9362496 C36.7821311,42.1434699 35.7821311,41.8581199 34.9893514,41.0653402 L34.9893514,41.0653402 L31.0340577,37.110796 L38.9904594,29.1543944 L42.9453195,33.109372 L43.0994975,33.2487278 C43.8968439,33.899055 44.0729979,34.8526031 44.816229,34.109372 C45.6090087,33.3165923 44.6090087,33.0312423 43.816229,32.2384626 L43.816229,32.2384626 L39.8609353,28.2839184 L41.4038982,26.7409556 L44.2743741,23.8704797 L47.817337,20.3275168 L51.7721971,24.2824944 L51.9263751,24.4218503 C52.7237215,25.0721774 52.8998755,26.0257255 53.6431066,25.2824944 C54.4358863,24.4897147 53.4358863,24.2043647 52.6431066,23.411585 L52.6431066,23.411585 L43.7703796,14.5388581 L43.6162016,14.3995022 Z M38.2376914,2.19482555 C52.7307382,12.6741322 61.9096923,21.9239481 65.7745535,29.9442732 L67.2376914,22.0670532 C60.1707826,12.1145881 52.9611981,5.07366149 45.6089377,0.944273234 L38.2376914,2.19482555 Z" id="Combined-Shape"></path>
                </g>
            </g>
        </g>
    </g>
</svg>